/* XPM */
static char * _opt_kde2_share_icons_small_locolor_apps_desktop_png[] = {
"16 16 23 1",
"-	c None",
".	c #000000",
"/	c #C0C0C0",
"0	c #808080",
"1	c #FFFFFF",
"2	c #FF0000",
"3	c #800080",
"4	c #FF00FF",
"5	c #008000",
"6	c #00FF00",
"7	c #808000",
"8	c #FFFF00",
"9	c #000080",
":	c #0000FF",
";	c #008080",
"<	c #00FFFF",
"=	c #800000",
">	c #FFA858",
"?	c #C0C0FF",
"@	c #0000C0",
"A	c #585858",
"B	c #FFDCA8",
"C	c #C05800",
"---...------...-",
"--.>>>..---.?@--",
"-.>>>A/A..--..--",
".>>>A111>>..----",
".B>A/1.>>>>>..--",
".CBB>A>C>>>..>..",
".>CCBB>.>>>::>C.",
".CB>CCBB>>>>>C.-",
".BCCCCCCBB>>CC.-",
".C>BCC..CCBCCC.-",
"..>CC.-.B>CCCC.-",
"--...--.C>BCCC.-",
"-------.CBCCCC.-",
"-------.>CCCC.--",
"--------..>C.---",
"----------..----"};
