/* XPM */
static char * back_xpm[] = {
"16 16 20 1",
"-	c None",
".	c #000000",
"/	c #C0C0C0",
"0	c #808080",
"1	c #FFFFFF",
"2	c #FF0000",
"3	c #800080",
"4	c #FF00FF",
"5	c #008000",
"6	c #00FF00",
"7	c #808000",
"8	c #FFFF00",
"9	c #000080",
":	c #0000FF",
";	c #008080",
"<	c #00FFFF",
"=	c #800000",
">	c #00C0C0",
"?	c #C0FFFF",
"@	c #004040",
"----------------",
"----------------",
"------..--------",
"-----.1.--------",
"----.1<.--------",
"---.1<>.........",
"--.1<>><??????<.",
"-.1<>>>>>>>>>>;.",
".?<>>>>>>>>>>>;.",
"-.;>>>>>>>>>>>;.",
"--.;>>>;;;;;;;@.",
"---.;>>.........",
"----.;>.--------",
"-----.@.--------",
"------..--------",
"----------------"};
