/* XPM */
static char * forward_xpm[] = {
"16 16 8 1",
" 	c None",
".	c #000000",
"+	c #004040",
"@	c #00C0C0",
"#	c #008080",
"$	c #00FFFF",
"%	c #C0FFFF",
"&	c #FFFFFF",
"                ",
"        ..      ",
"        .+.     ",
"        .@#.    ",
".........@@#.   ",
".+#######@@@#.  ",
".#@@@@@@@@@@@#. ",
".#@@@@@@@@@@@$%.",
".#@@@@@@@@@@$&. ",
".$%%%%%%$@@$&.  ",
".........@$&.   ",
"        .$&.    ",
"        .&.     ",
"        ..      ",
"                ",
"                "};
