/* XPM */
static char * flwriter_xpm[] = {
"64 49 432 2",
"  	c None",
". 	c #057D80",
"+ 	c #057578",
"@ 	c #08676A",
"# 	c #05797D",
"$ 	c #057376",
"% 	c #076D70",
"& 	c #076C6F",
"* 	c #038589",
"= 	c #02878B",
"- 	c #067275",
"; 	c #028D91",
"> 	c #078A8D",
", 	c #2B9C9F",
"' 	c #04898C",
") 	c #0A8B8F",
"! 	c #20969A",
"~ 	c #06787B",
"{ 	c #028588",
"] 	c #06787C",
"^ 	c #04787C",
"/ 	c #076669",
"( 	c #05787B",
"_ 	c #07595B",
": 	c #085B5D",
"< 	c #008B8E",
"[ 	c #008082",
"} 	c #0E8889",
"| 	c #5FB0B1",
"1 	c #52A9AA",
"2 	c #45A3A4",
"3 	c #5EAFB0",
"4 	c #67B4B5",
"5 	c #339A9C",
"6 	c #05777B",
"7 	c #027375",
"8 	c #036F71",
"9 	c #01797B",
"0 	c #094F50",
"a 	c #22797C",
"b 	c #257677",
"c 	c #286E6F",
"d 	c #257D7F",
"e 	c #267678",
"f 	c #2A7879",
"g 	c #2A787A",
"h 	c #287778",
"i 	c #2D7A7B",
"j 	c #277477",
"k 	c #257475",
"l 	c #277577",
"m 	c #2A5C5D",
"n 	c #225051",
"o 	c #BABDBE",
"p 	c #C0BEC0",
"q 	c #ADABAD",
"r 	c #BEBCBE",
"s 	c #C9C6C9",
"t 	c #AAA8AA",
"u 	c #C3C1C3",
"v 	c #C8C6C8",
"w 	c #B4B2B4",
"x 	c #AFADAF",
"y 	c #C6C4C6",
"z 	c #86898B",
"A 	c #B7BABC",
"B 	c #A29FA2",
"C 	c #AEABAE",
"D 	c #8A888A",
"E 	c #7F7D7F",
"F 	c #B7B4B7",
"G 	c #C5C1C5",
"H 	c #C4C1C4",
"I 	c #8C8A8C",
"J 	c #A4A1A4",
"K 	c #807E80",
"L 	c #959395",
"M 	c #888688",
"N 	c #9A979A",
"O 	c #908D90",
"P 	c #B5B2B5",
"Q 	c #979597",
"R 	c #7A787A",
"S 	c #9D9A9D",
"T 	c #ACAAAC",
"U 	c #848688",
"V 	c #B1AEB1",
"W 	c #C5C2C5",
"X 	c #9E9B9E",
"Y 	c #C0BDC0",
"Z 	c #989698",
"` 	c #A19EA1",
" .	c #949294",
"..	c #ACA9AC",
"+.	c #AEACAE",
"@.	c #9C9A9C",
"#.	c #9E9C9E",
"$.	c #BBB8BB",
"%.	c #939093",
"&.	c #AFACAF",
"*.	c #96999B",
"=.	c #A09EA0",
"-.	c #9D9B9D",
";.	c #727576",
">.	c #BFC3C3",
",.	c #9D9DAF",
"'.	c #B7B7B7",
").	c #89889A",
"!.	c #CFCDCF",
"~.	c #D4D3D4",
"{.	c #BCBCBC",
"].	c #C1C0C1",
"^.	c #B0AEB0",
"/.	c #DAD9DA",
"(.	c #C8C7C8",
"_.	c #D0CFD0",
":.	c #CCCBCC",
"<.	c #B3B2B3",
"[.	c #D9D8D9",
"}.	c #BAB9BA",
"|.	c #C4C2C4",
"1.	c #858485",
"2.	c #868586",
"3.	c #9A989A",
"4.	c #D3D2D3",
"5.	c #C4C3C4",
"6.	c #BABABA",
"7.	c #BDBDBD",
"8.	c #D7D6D7",
"9.	c #B5B5B5",
"0.	c #D3D1D3",
"a.	c #B2B1B2",
"b.	c #B2B6B7",
"c.	c #B6BABA",
"d.	c #6C6CBC",
"e.	c #B9B8D1",
"f.	c #3E3D81",
"g.	c #CBC8CB",
"h.	c #A4A39B",
"i.	c #8F8E7D",
"j.	c #7D7B76",
"k.	c #CECCCE",
"l.	c #8C898C",
"m.	c #A3A0A3",
"n.	c #929092",
"o.	c #858385",
"p.	c #7F7E7F",
"q.	c #C8C5C8",
"r.	c #CCCACC",
"s.	c #B8B6B8",
"t.	c #CDCBCD",
"u.	c #9B999B",
"v.	c #898789",
"w.	c #D0CED0",
"x.	c #BAB8BA",
"y.	c #A3A1A3",
"z.	c #BDBABD",
"A.	c #787678",
"B.	c #C2BFC2",
"C.	c #999699",
"D.	c #918F91",
"E.	c #9F9D9F",
"F.	c #6F6D6F",
"G.	c #7E7C7E",
"H.	c #A19FA1",
"I.	c #C9C7C9",
"J.	c #A9A7A9",
"K.	c #5C5A5C",
"L.	c #656465",
"M.	c #7F8183",
"N.	c #B6BABB",
"O.	c #2A29A1",
"P.	c #4B4AA8",
"Q.	c #36358B",
"R.	c #878571",
"S.	c #726B49",
"T.	c #727168",
"U.	c #CECDCE",
"V.	c #939193",
"W.	c #8F8D8F",
"X.	c #B0ADB0",
"Y.	c #979497",
"Z.	c #B8B5B8",
"`.	c #999799",
" +	c #A8A6A8",
".+	c #9C999C",
"++	c #B3B1B3",
"@+	c #B2B0B2",
"#+	c #B5B3B5",
"$+	c #B7B5B7",
"%+	c #B1AFB1",
"&+	c #6C6A6C",
"*+	c #6D6C6D",
"=+	c #777577",
"-+	c #969496",
";+	c #A4A2A4",
">+	c #8D8B8D",
",+	c #A6A3A6",
"'+	c #A6A5A6",
")+	c #969396",
"!+	c #A6A4A6",
"~+	c #A3A5A8",
"{+	c #8C9090",
"]+	c #616061",
"^+	c #5F5D5F",
"/+	c #5B5A5B",
"(+	c #777677",
"_+	c #767576",
":+	c #757375",
"<+	c #898889",
"[+	c #7D7C7D",
"}+	c #6F6E6F",
"|+	c #7B7A7B",
"1+	c #6A696A",
"2+	c #979697",
"3+	c #A3A2A3",
"4+	c #989798",
"5+	c #696869",
"6+	c #818081",
"7+	c #727072",
"8+	c #787778",
"9+	c #767476",
"0+	c #747374",
"a+	c #6E6D6E",
"b+	c #969596",
"c+	c #66696B",
"d+	c #DFE3E3",
"e+	c #FEFEFE",
"f+	c #F2F2F2",
"g+	c #ABA9AB",
"h+	c #A1A3A5",
"i+	c #F1F0F1",
"j+	c #828486",
"k+	c #F8F8F8",
"l+	c #AAAAAA",
"m+	c #B8B8B8",
"n+	c #ADADAD",
"o+	c #FBFBFB",
"p+	c #E6E6E6",
"q+	c #FCFCFC",
"r+	c #CCCCCC",
"s+	c #B0B0B0",
"t+	c #F7F7F7",
"u+	c #D8D8D8",
"v+	c #C8C8C8",
"w+	c #E5E5E5",
"x+	c #CBCBCB",
"y+	c #B1B1B1",
"z+	c #EEEEEE",
"A+	c #EAEAEA",
"B+	c #E3E2E3",
"C+	c #8B8D8F",
"D+	c #3C3C3C",
"E+	c #707070",
"F+	c #646464",
"G+	c #9E9E9E",
"H+	c #E7E7E7",
"I+	c #3D3D3D",
"J+	c #A2A2A2",
"K+	c #464646",
"L+	c #BFBFBF",
"M+	c #494949",
"N+	c #7E7E7E",
"O+	c #888888",
"P+	c #DADADA",
"Q+	c #545454",
"R+	c #4F4F4F",
"S+	c #757575",
"T+	c #474747",
"U+	c #EFEFEF",
"V+	c #3B3B3B",
"W+	c #9C9C9C",
"X+	c #555555",
"Y+	c #A2A4A6",
"Z+	c #323232",
"`+	c #FAFAFA",
" @	c #8D8D8D",
".@	c #E4E4E4",
"+@	c #DEDEDE",
"@@	c #575757",
"#@	c #434343",
"$@	c #585858",
"%@	c #282828",
"&@	c #0C0C0C",
"*@	c #D1D1D1",
"=@	c #5A5A5A",
"-@	c #F0F0F0",
";@	c #C1C1C1",
">@	c #848484",
",@	c #DFDFDF",
"'@	c #696969",
")@	c #393939",
"!@	c #383838",
"~@	c #1D1D1D",
"{@	c #999999",
"]@	c #242424",
"^@	c #C6C6C6",
"/@	c #747474",
"(@	c #4C4C4C",
"_@	c #9D9D9D",
":@	c #D2D2D2",
"<@	c #404040",
"[@	c #ACACAC",
"}@	c #B9B9B9",
"|@	c #363636",
"1@	c #616161",
"2@	c #E2E2E2",
"3@	c #C4C4C4",
"4@	c #3A3A3A",
"5@	c #EDEDED",
"6@	c #D0D0D0",
"7@	c #D5D5D5",
"8@	c #CFCFCF",
"9@	c #CDCDCD",
"0@	c #CACACA",
"a@	c #CECECE",
"b@	c #D4D4D4",
"c@	c #C9C9C9",
"d@	c #D3D3D3",
"e@	c #F6F6F6",
"f@	c #FFFFFF",
"g@	c #CCD0D0",
"h@	c #F9F9F9",
"i@	c #FDFDFD",
"j@	c #E0E0E0",
"k@	c #818386",
"l@	c #969A9A",
"m@	c #989898",
"n@	c #818181",
"o@	c #808080",
"p@	c #7F7F7F",
"q@	c #949494",
"r@	c #BEBEBE",
"s@	c #C0C0C0",
"t@	c #A8A8A8",
"u@	c #A9A9A9",
"v@	c #7A7A7A",
"w@	c #E8E6E8",
"x@	c #ADAEB1",
"y@	c #898D8D",
"z@	c #A3A3A3",
"A@	c #858585",
"B@	c #979797",
"C@	c #787878",
"D@	c #878787",
"E@	c #8E8E8E",
"F@	c #797979",
"G@	c #929292",
"H@	c #B2B2B2",
"I@	c #A5A5A5",
"J@	c #E8E8E8",
"K@	c #DBDFDF",
"L@	c #DCDCDC",
"M@	c #F5F5F5",
"N@	c #F3F3F3",
"O@	c #ECECEC",
"P@	c #6A6A6A",
"Q@	c #EBEBEB",
"R@	c #898989",
"S@	c #9B9B9B",
"T@	c #B4B4B4",
"U@	c #A7A7A7",
"V@	c #8B8B8B",
"W@	c #E9E9E9",
"X@	c #A1A1A1",
"Y@	c #939393",
"Z@	c #C2C2C2",
"`@	c #9A9A9A",
" #	c #A0A0A0",
".#	c #8F8F8F",
"+#	c #8C8C8C",
"@#	c #C5C5C5",
"##	c #828282",
"$#	c #A4A4A4",
"%#	c #777777",
"&#	c #838383",
"*#	c #767676",
"=#	c #B6B6B6",
"-#	c #919191",
";#	c #AFAFAF",
">#	c #E3E3E3",
",#	c #F1F1F1",
"'#	c #F4F4F4",
")#	c #B3B3B3",
"!#	c #868686",
"~#	c #9F9F9F",
"{#	c #7D7D7D",
"]#	c #BBBBBB",
"^#	c #AEAEAE",
"/#	c #969696",
"(#	c #ABABAB",
"_#	c #A6A6A6",
":#	c #959595",
"<#	c #E1E1E1",
"[#	c #D6D6D6",
"}#	c #E8E7E8",
"|#	c #C6C3C6",
"1#	c #AEB0B2",
"2#	c #F3F2F3",
"3#	c #A7A5A7",
"4#	c #959799",
"5#	c #908E90",
"6#	c #919396",
"7#	c #CDD0D1",
"8#	c #E1DFE1",
"9#	c #CFCECF",
"0#	c #E5E3E5",
"a#	c #C9C8C9",
"b#	c #DBD9DB",
"c#	c #E7E6E7",
"d#	c #E1E0E1",
"e#	c #B1B0B1",
"f#	c #87898C",
"g#	c #ABADB0",
"h#	c #636163",
"i#	c #CCC9CC",
"j#	c #5A595A",
"k#	c #076B6E",
"l#	c #838688",
"m#	c #7B797B",
"n#	c #8B898B",
"o#	c #7C7A7C",
"p#	c #848284",
"q#	c #A0A2A5",
"r#	c #067579",
"s#	c #75787A",
"t#	c #ABA8AB",
"u#	c #96989B",
"v#	c #A9AAAD",
"w#	c #777D7F",
"x#	c #A9ABAD",
"y#	c #92989A",
". + + @ # + + + + + + + + + + + + + + + + + + + + + + + + + + + + + + + + + + + + + + + + + + + + + + + + + + + + + + $ % + + & ",
"+ * = - ; = = = = = = = = = = = = = = = = = = = = = = > , ' ) ! ) > = = = = = = = = = = = = = = = = = = = = = = = ~ = { ] ^ / + ",
"+ ( _ : < [ [ [ [ [ [ [ [ [ [ [ [ [ [ [ [ [ [ [ [ [ [ } | 1 2 3 4 5 [ [ [ [ [ [ [ [ [ [ [ [ [ [ [ [ [ [ [ [ [ [ [ 6 7 8 + 9 0 + ",
"@ a b c d b b b b b b b b b b b b b b b b b b b b b b e f g h i i h b b b b b b b b b b b b b b b b b b b b b b b j b k l m n @ ",
"# o p q r s s s s t u r v s s w x s s u s s s y y u u s s s s s s s s s s s s s s s s s s s s s s s s s s s s s s s s s s s z # ",
"+ A B C D E F G H I J K L G H H B M N O D H H P Q R R S T G H H H H G H H H H G H H H H H G H H H H G H H H H G H H H H H G U + ",
"+ A V W X Q Y W W Z `  ...W W W +.I @.#.N H W $.$. .@.%.&.W W W W W W W W W W W W W W W W W W W W W W W W W W W W W W W W W U + ",
"+ *.=.=.=.=.=.=.=.=.=.=.=.=.=.=.=.=.=.=.=.=.=.=.=.=.=.-.=.=.=.=.=.=.=.=.=.=.=.=.=.=.=.=.=.=.=.=.=.=.=.=.=.=.=.=.=.=.=.=.=.=.;.+ ",
"+ >.,.'.).!.~.{.].^./.(.~.~.~.~.~.~.(.~.~._.:.~.~.~.~.<.[.~.~.~.~.~.~.}.|.1.2.3.4.5.6.<.4.}.7.x 8.~.~.9.8.~.0.}.~.~.a.4.~.~.b.+ ",
"+ c.d.e.f.g.h.i.j.B k.I L M #.l.&.m.n.o.%.p.r q.!.r.s.-.t.u.v.C w.r.x.y.z.A.u.B.4.C.v.D.k.E.F.u.!.G.o.H.I.u.B.J.u.u.u.!.K.L.M.+ ",
"+ N.O.P.Q.g.R.S.T.B U.-.V.W.X.Y.H Z.X `. +.+H H ++@+#+-.t.X.B w $+@+%+y.z.&+*+&.4. .=+-+!.;+>+u.!.3.m.H.I.,+B.'+Q  .)+!.!+H ~++ ",
"+ {+]+^+/+@.(+_+:+<+[+_+_+_+_+_+_+_+_+_+_+_+_+_+_+_+_+}+|+_+_+_+_+_+_+1+u.2+3+3+4+_+_+5+6+_+_+|+D _+_+7+8+_+9+0+_+_+a+b+_+_+c++ ",
"+ d+e+e+e+e+e+e+e+e+e+e+e+e+e+e+e+e+e+e+e+e+e+e+e+e+e+e+e+e+e+e+e+e+e+e+e+e+e+e+e+e+e+e+e+e+e+e+e+e+e+e+e+e+e+e+e+e+e+e+f+g+h++ ",
"+ d+e+e+e+e+e+e+e+e+e+e+e+e+e+e+e+e+e+e+e+e+e+e+e+e+e+e+e+e+e+e+e+e+e+e+e+e+e+e+e+e+e+e+e+e+e+e+e+e+e+e+e+e+e+e+e+e+e+e+i+v.j++ ",
"+ d+e+e+e+e+e+k+l+l+m+7.n+o+p+l+q+l+r+l+s+t+u+l+v+w+l+l+x+y+l+l+z+l+l+A+e+e+e+e+e+e+e+e+e+e+e+e+e+e+e+e+e+e+e+e+e+e+e+e+B+3+C++ ",
"+ d+e+e+e+e+e+k+D+E+F+G+F+o+H+I+J+K+L+M+N+O+P+I+x+y+Q+Q+F+R+S+T+U+V+W+X+e+e+e+e+e+e+e+e+e+e+e+e+e+e+e+e+e+e+e+e+e+e+e+e+i+H Y++ ",
"+ d+e+e+e+e+e+e+M+Z+`+x+ @.@+@@@#@$@H+%@&@*@e+=@e+-@;@>@,@'@)@l+e+!@~@{@e+e+e+e+e+e+e+e+e+e+e+e+e+e+e+e+e+e+e+e+e+e+e+e+i+H Y++ ",
"+ d+e+e+e+e+e+f+]@^@e+/@)@(@_@)@:@@@'.<@[@=@}@]@W+e+F+|@,@!@1@]@2@]@3@4@k+e+e+e+e+e+e+e+e+e+e+e+e+e+e+e+e+e+e+e+e+e+e+e+i+H Y++ ",
"+ d+e+e+e+e+e+5@v+6@7@r+v+v+6@8@7@9@6@0@7@x+6@v+a@7@0@v+b@c@v+v+d@v+b@x+e@e+e+e+e+e+e+e+e+e+e+e+e+e+e+e+e+e+e+e+e+e+e+e+i+H Y++ ",
"+ d+f@e+e+f@e+e+e+e+f@e+e+f@f@f@f@f@f@e+e+f@e+e+e+e+f@e+e+f@f@f@f@f@f@e+e+f@e+e+e+e+f@e+e+f@f@f@f@f@f@e+e+f@e+e+e+e+f@e+i+H Y++ ",
"+ g@U+o+5@h@i@q+`+`+f@f@f@f@f@5@f@f@f@o+f@f@f@f@f@f@f@f@f@f@f@f@f@f@f@f@f@f@f@f@f@f@f@f@f@f@f@f@f@f@f@f@f@f@f@f@f@f@f@f@j@3.k@+ ",
"+ l@m@x+n@o@9@p@q@J+p+W+r@s@t@^@[@r+u@v@o+f@f@f@f@f@f@f@f@f@f@f@f@f@f@f@f@f@f@f@f@f@f@f@f@f@f@f@f@f@f@f@f@f@f@f@f@f@f@f@w@W x@+ ",
"+ y@_@z@A@O+B@C@D@J+d@E@F@'. @t@'@G@H@I@J@f@f@f@f@f@f@f@f@f@f@f@f@f@f@f@f@f@f@f@f@f@f@f@f@f@f@f@f@f@f@f@f@f@f@f@f@f@f@f@w@W x@+ ",
"+ K@o+`+e@k+i@o+`+`+j@L@`+i@e@y+e@e+M@`+`+f@f@f@f@f@f@f@f@f@f@f@f@f@f@f@f@f@f@f@f@f@f@f@f@f@f@f@f@f@f@f@f@f@f@f@f@f@f@f@w@W x@+ ",
"+ d+f@f@f@f@f@f@f@f@f@f@f@f@f@f@f@f@f@f@f@f@f@f@f@f@f@f@f@f@f@f@f@f@f@f@f@f@f@f@f@f@f@f@f@f@f@f@f@f@f@f@f@f@f@f@f@f@f@f@w@W x@+ ",
"+ d+f@f@f@f@f@f@f@f@f@f@f@f@f@f@f@f@f@f@f@f@f@f@f@f@f@f@f@f@f@f@f@f@f@f@f@f@f@f@f@f@f@f@f@f@f@f@f@f@f@f@f@f@f@f@f@f@f@f@w@W x@+ ",
"+ d+f@f@f@f@f@f@f@f@f@f@f@f@f@f@f@f@f@f@f@f@f@f@f@f@f@f@f@f@f@f@f@f@f@f@f@f@f@f@f@f@f@f@f@f@f@f@f@f@f@f@f@f@f@f@f@f@f@f@w@W x@+ ",
"+ d+f@f@f@f@f@f@f@f@f@f@f@f@f@f@f@f@f@f@f@f@f@f@f@f@f@f@f@f@f@f@f@f@f@f@f@f@f@f@f@f@f@f@f@f@f@f@f@f@f@f@f@f@f@f@f@f@f@f@w@W x@+ ",
"+ d+f@f@f@f@f@f@f@f@f@f@f@f@f+f@f@e@M@f@f@f@f@f@f@f@f+f@f@f+f@f@f@f@f@f@N@e+f@f+f@f+f@f@f@f@f@f@f@f@f+f@f@O@f@f@f@f@f@f@w@W x@+ ",
"+ d+f@f@f@f@f@f@f@f@f@f@f@f@[@t+[@>@P@Q@f@C@7.d@f@u+z@x+'.R@S@T@8@s@u@c@S+q+T@L+U@V@}@F@f@W@ @X@-@f@[@'.I@1@s@f@f@f@f@f@w@W x@+ ",
"+ d+f@f@f@f@f@f@f@f@f@f@f@f@Y@Z@/@B@u@c@^@I@`@J+[@ #U@z@.#[@+#@#u@##$#%#&#q+[@p@B@*#[@I@=#L@-#{@X@y+[@*# #U@:@f@f@f@f@f@w@W x@+ ",
"+ d+f@f@f@f@f@f@f@f@f@f@f@f@W@-@5@e@k+i@f@e@-@t+f@e@M@c@;#e@e@e@M@-@M@M@H+e+e@U+Y@>#e@e@f@f@e@J@f@f@e@z+h@h@e@f@f@f@f@f@w@W x@+ ",
"+ d+f@f@f@f@f@f@f@f@f@f@f@f@f@f@f@f@f@f@f@f@f@f@f@f@f@f@f@f@f@f@f@f@f@f@f@f@f@f@f@f@f@f@f@f@f@f@f@f@f@f@f@f@f@f@f@f@f@f@w@W x@+ ",
"+ d+f@f@f@f@f@f@f@f@f@f@f@f@f@f@f@f@f@f@f@f@f@f@f@f@f@f@f@f@f@f@f@f@f@f@f@f@f@f@f@f@f@f@f@f@f@f@f@f@f@f@f@f@f@f@f@f@f@f@w@W x@+ ",
"+ d+f@f@f@f@f@f@f@f@f@f@f@f@f@f@f@f@f@f@f@f@f@f@f@f@f@f@f@f@f@f@f@f@f@f@f@f@f@f@f@f@f@f@f@f@f@f@f@f@f@f@f@f@f@f@f@f@f@f@w@W x@+ ",
"+ d+f@f@f@f@f@f@f@f@f@f@f@f@f@f@f@f@f@f@f@f@f@f@f@f@f@f@f@f@f@f@f@f@f@f@f@f@f@f@f@f@f@f@f@f@f@f@f@f@f@f@f@f@f@f@f@f@f@f@w@W x@+ ",
"+ d+f@f@f@f@f@f@,#`+N@o+f@h@e@W@t+f@f@t+f@f@f@f@f@f@o+'#f@q+h@f@`+q+t+f@f@t+f@z+f@f@f@f@f@f@f@f@f@f@f@f@f@f@f@f@f@f@f@f@w@W x@+ ",
"+ d+f@f@f@f@f@L@z@m@[@)#9@[@9@!#~#`+W@t@r@{#s+a@z@b@^@9.s@L+J+:@H@@#N+f@6. @]#7@f@f@f@f@f@f@f@f@f@f@f@f@f@f@f@f@f@f@f@f@w@W x@+ ",
"+ d+f@f@f@f@f@u+^#/#d@C@B@C@U+Y@~#q+'#(#[@_#.#Y@:#l+;@Z@_@.#'@_@##O+ @f+{@E@(#7@f@f@f@f@f@f@f@f@f@f@f@f@f@f@f@f@f@f@f@f@w@W x@+ ",
"+ d+f@f@f@f@f@f@.@M@t+W@<#U+q+7@-@q+N@,#,#-@(#2@)#U+-@,#p+U+J@2@U+U++@,#>#W@,#[#f@f@f@f@f@f@f@f@f@f@f@f@f@f@f@f@f@f@f@f@}#|#1#+ ",
"+ d+f@f@f@f@f@f@f@f@f@f@f@f@f@f@f@f@f@f@f@f@f@f@f@f@f@f@f@f@f@f@f@f@f@f@f@f@f@f@f@f@f@f@f@f@f@f@f@f@f@f@f@f@f@f@f@f@f@f@2#3#4#+ ",
"+ d+e+e+e+e+e+e+e+e+e+e+e+e+e+e+e+e+e+e+e+e+e+e+e+e+e+e+e+e+e+e+e+e+e+e+e+e+e+e+e+e+e+e+e+e+e+e+e+e+e+e+e+e+e+e+e+e+e+e+i+5#6#+ ",
"+ 7#8#9#0#0#0#0#0#0#0#0#0#0#0#0#0#0#0#0#0#0#0#0#0#0#0#0#0#0#0#0#0#0#0#0#0#0#0#0#0#0#0#a#b#b#b#b#b#b#b#b#b#b#b#b#b#b#c#d#e#3.f#+ ",
"+ g#h#3+W W W W W W W W W W W W W W W W W W W W W W W W W W W W W W W W W W W W W W W 3.W W W W W W W W W W W W W W i#j#3.W x@+ ",
"k#l#m#m#n#n#n#n#n#n#n#n#n#n#n#n#n#n#n#n#n#n#n#n#n#n#n#n#n#n#n#n#n#n#n#n#n#n#n#n#n#n#n#|+#+#+#+#+#+#+#+#+#+#+#+#+#+#+3.o#p##+q#k#",
"r#s#t#t#t#t#t#t#t#t#t#t#t#t#t#t#t#t#t#t#t#t#t#t#t#t#t#t#t#t#t#t#t#t#t#t#t#t#t#t#t#t#t#t#t#t#t#t#t#t#t#t#t#t#t#t#t#t#t#t#t#t#u#r#",
"+ U W W W W W W W W W W W W W W W W W W W W W W W W W W W W W W W W W W W W W W W W W W W W W W W W W W W W W W W W W W W W v#+ ",
"+ w#x#x#x#x#x#x#x#x#x#x#x#x#x#x#x#x#x#x#x#x#x#x#x#x#x#x#x#x#x#x#x#x#x#x#x#x#x#x#x#x#x#x#x#x#x#x#x#x#x#x#x#x#x#x#x#x#x#x#x#x#y#+ ",
"& + + @ # + + + + + + + + + + + + + + + + + + + + + + + + + + + + + + + + + + + + + + + + + + + + + + + + + + + + + + $ % + + : "};
