/* XPM */
static char * 3floppy_mount_png[] = {
"32 32 22 1",
"-	c None",
".	c #000000",
"/	c #C0C0C0",
"0	c #808080",
"1	c #FFFFFF",
"2	c #FF0000",
"3	c #800080",
"4	c #FF00FF",
"5	c #008000",
"6	c #00FF00",
"7	c #808000",
"8	c #FFFF00",
"9	c #000080",
":	c #0000FF",
";	c #008080",
"<	c #00FFFF",
"=	c #800000",
">	c #00C0C0",
"?	c #0000C0",
"@	c #A0A0A4",
"A	c #004000",
"B	c #00C000",
"---------------.----------------",
"--------------.:.---------------",
"-------------.:9:.--------------",
"------------.:::9/.-------------",
"-----------.:::911/.------------",
"----------.:::91/11/.-----------",
"---------.:::9111/11/.----------",
"--------.:::91/111/11/.---------",
"-------.:::9111/111/11/.--------",
"------.:::91/111/111/11/.-------",
"-----.::::911/111/111/11/.------",
"----.::::::911/111/111/11/.-----",
"---.::::::::911/111/111/11/.----",
"--.::::99::::911/111/111/119.---",
"-.::::9//9::::911/111/11119::.--",
".::::9//0/9::::911/111/119::>:.-",
".:::9//9:0/9::::911/11119::>:?.-",
".>:9//9::://9::::911/119::>:?.--",
".?9//9:::////9::::91119::>:?.---",
"-.91/:::/@///@9::::9@9::>:?.----",
"--.@1/:/@/@/@/99:::::::>:?.-----",
"---.@1/@/@/@/9::9:::::>:?.------",
"----.@1@@@@@9::::9:::>:?.-------",
"-----.@1@@@9:::::9::>:?.--------",
"------.@1@9:::::9::>:?.---------",
"-------.@9:::::9::>:?.----------",
"--------.9>:::9::>:?.---........",
"---------.?>:9::>:?.----.AAAAAB.",
"----------.?9::>:?.-----.A5555B.",
"-----------.9>>:?.------.A5555B.",
"------------.???.-------.ABBBBB.",
"-------------...--------........"};
