/* XPM */
static char * _opt_kde2_share_icons_medium_locolor_devices_cdrom_unmount_png[] = {
"32 32 28 1",
"-	c None",
".	c #000000",
"/	c #C0C0C0",
"0	c #808080",
"1	c #FFFFFF",
"2	c #FF0000",
"3	c #800080",
"4	c #FF00FF",
"5	c #008000",
"6	c #00FF00",
"7	c #808000",
"8	c #FFFF00",
"9	c #000080",
":	c #0000FF",
";	c #008080",
"<	c #00FFFF",
"=	c #800000",
">	c #C0FFFF",
"?	c #00C0C0",
"@	c #303030",
"A	c #004040",
"B	c #585858",
"C	c #A0A0A4",
"D	c #C0FFC0",
"E	c #FFC0C0",
"F	c #DCDCDC",
"G	c #404000",
"H	c #FFFFC0",
"-----------.......--------------",
"-----......>>>>>>?.-------------",
"-----@>>>>>>>>>>>>?.------------",
"------.>>>>>>>>>>?>?.-----------",
"-------.>>>>>>>>?>?>?.----------",
"--------.>>>>>>>>?>?>?.---------",
"---------.>>>>>>?>?>???.--------",
"--------.A@>>>>?>?>?????.-------",
"-------.A@B@>>>>?>?>?????.------",
"------.A@0BB@>>?>?>???????.-----",
"-----.?@C00BB@?>?D?????????.----",
"----.?A/EC00BB@?>?>?????????.---",
"---.?AB//EC00B@@?>???????????.--",
"--.?AAC///ECB@@@@?????????????.-",
"-.?AAA/////B.B0C@@????????...@.-",
".?AAAAF////B.C@@C.AAAA....@@AA.-",
".?AAA@F////C@0AA0.0BBBBG@@@AAA.-",
".;?A@@//////0BC0.GB0BBBB@@AAAA.-",
".;;?@@C//FDD/0@.B00B0BB@@AAAA.--",
".;;;?@BFDDDHE///EC00B0B@AAAA.---",
"-.;;;?@CDDHEE////EC00B@AAAA.----",
"--.;;;?@CHEEF/////EC0@AAAA.-----",
"---.;;;?@/EE////////@AAAA.------",
"----.;;;?@CF//FF/CB@?AAA.-------",
"-----.;;;?@@@B00B@@?AAA.--------",
"------.;;;?@@@@@@@?AAA.---------",
"-------.;;;?@@@@@?AAA.----------",
"--------.;;;?@@@?AAA.-----------",
"---------.;;;???AAA.------------",
"----------.;;;;AAA.-------------",
"-----------.;;;AA.--------------",
"------------.....---------------"};
