/* XPM */
static char *fileprint_xpm[] = {
/* columns rows colors chars-per-pixel */
"16 16 10 1",
"  c #000000",
". c #303030",
"X c #404000",
"o c #585858",
"O c #808080",
"+ c #a0a0a0",
"@ c #ffdca8",
"# c #c3c3c3",
"$ c #dcdcdc",
"% c #ffffff",
/* pixels */
"%%%%%%%%o o%%%%%",
"%%%%%%%o%%#o %%%",
"%%%%%%X%%%%%%+o%",
"%%%%%%o%%%%%%%+ ",
"%%%% o%%%%%%%%. ",
"%%% O#%%%%%%%+O ",
"%% +o%@%@%%%%o %",
"% +++oo@%@%@+ o%",
" ++++++ooo@%.o %",
" $$+++++++ooo++ ",
" $$$$$$+++++++o ",
" $$$$$$$$$+++oo ",
"%  o$$$$$$$$ooo ",
"%%%%  o$$$$$oo %",
"%%%%%%%  o$$o %%",
"%%%%%%%%%%   %%%"
};
