/* XPM */
static char *pencil_xpm[] = {
/* columns rows colors chars-per-pixel */
"16 16 11 1",
"  c #000000",
". c #303030",
"X c #400000",
"o c #800000",
"O c #c00000",
"+ c #808080",
"@ c #a0a0a0",
"# c #c3c3c3",
"$ c #dcdcdc",
"% c #ffc0c0",
"& c #ffffff",
/* pixels */
"&&&&&&&&&&&&oO%O",
"&&&&&&&&&&&oO%OO",
"&&&&&&&&&&oO%OOO",
"&&&&&&&&&oO%OOOo",
"&&&&&&&&oO%OOOoo",
"&&&&&&&oO%OOOoo ",
"&&&&&&oO%OOOoo &",
"&&&&&oO%OOOoo &&",
"&&&&oO%OOOoo &&&",
"&&&&&#OOOoo &&&&",
"&&&$&$#Ooo &&&&&",
"&&&&$##+o &&&&&&",
"&&&$##+. &&&&&&&",
"&&O#@. &&&&&&&&&",
"&OoX &&&&&&&&&&&",
"&oX&&&&&&&&&&&&&"
};
