/* XPM */
static char * pict_xpm[] = {
"16 16 5 1",
" 	c None",
".	c #000000000000",
"X	c #0000FFFF0000",
"o	c #00000000FFFF",
"O	c #FFFF00000000",
"                ",
" .......        ",
".       .       ",
". .. .. .       ",
". .. .. .       ",
".   .   .       ",
".   .   . XXXX  ",
". .   . .XXXXXX ",
".  ...  .XXXXXoo",
" .     . XXXXXoo",
"  ......  XXXooo",
"         OOOOOoo",
"        OOOOOOO ",
"        OOOOOOO ",
"         OOOOO  ",
"                "};
