/* XPM */
static char * print_xpm[] = {
"16 16 6 1",
" 	c None",
".	c #000000000000",
"X	c #FFFFFFFFFFFF",
"o	c #CF3CCF3CCF3C",
"O	c #FFFFFFFF0000",
"+	c #FFFF00000000",
"                ",
"      ........  ",
"     .XXXXXXX.  ",
"     .X....X.   ",
"    .XXXXXXX.   ",
"    .X....X.... ",
"   .XXXXXXX.o.o.",
"  .........o.o..",
" .oOoOoOoOo.o.O.",
" ............Oo.",
" .OoOoOoOo+O.o..",
" .oOoOoOoOoo....",
" .............. ",
"  ............  ",
"                ",
"                "};
