/* XPM */
static char * save_xpm[] = {
"16 16 9 1",
" 	c None",
".	c #000000",
"+	c #0000FF",
"@	c #000080",
"#	c #A0A0A0",
"$	c #0000C0",
"%	c #FFFFFF",
"&	c #C0C0FF",
"*	c #DCDCDC",
"................",
".+@##########@+.",
".$@%%%%%%%%%%@$.",
".+@%%%%%%%%%%@+.",
".+@%########%@+.",
".+@%%%%%%%%%%@+.",
".+@%########%@+.",
".+@&%%%%%%%%&@+.",
".++@@@@@@@@@@++.",
".++++++++++++++.",
".++$......@@$++.",
".++.******.+@++.",
".++.*@+***.+@++.",
".++.*@+***.+@++.",
".@+.******.+@++.",
" ..............."};
