/* XPM */
static char * spell_xpm[] = {
"16 16 3 1",
" 	c None",
".	c #000000000000",
"X	c #00000000FFFF",
"                ",
"                ",
"     ..     ..  ",
"      .    .  . ",
"      .    .    ",
"      ...  .    ",
"  ..  .  . .  . ",
"    . .  .  ..  ",
"  ... .  .      ",
" .  . .  .      ",
" .  .  ..   XXX ",
"  ...     XXX   ",
"    X    XX     ",
"   XXX  XX      ",
"    XXXXX       ",
"     XXX        "};
