/* XPM */
static char * img1_xpm[] = {
"64 64 2 1",
" 	c None",
".	c #FFFF00",
"                                                                ",
"                                                                ",
"                                                                ",
"                                                                ",
"                                                                ",
"                                                                ",
"                                                                ",
"                                                                ",
"                                                                ",
"                                                                ",
"                                                                ",
"                                                                ",
"                                                                ",
"                             .                                  ",
"                             .                                  ",
"                             .                                  ",
"                             ..                                 ",
"                              ..                                ",
"                               .                                ",
"                               .                                ",
"                               .                                ",
"                         .     .        ..                      ",
"                        ...    ..       .                       ",
"                          ..   ..      ..                       ",
"                           ..  .       .                        ",
"                            .  .   .  ..                        ",
"                            .  .  .....                         ",
"                            .. .  . ..                          ",
"                             . . ..                             ",
"                     ...     .  .          .                    ",
"                 ....   .....  ..         ..                    ",
"                 .          ..    .... .... ..                  ",
"                                     ...                        ",
"                            .   ..                              ",
"                            .    ..                             ",
"                           .. .   .....                         ",
"                          ..  .       ..                        ",
"                        ...   .        .                        ",
"                       ..     ..       ..                       ",
"                     ..        .        .                       ",
"                     .         .        ...                     ",
"                    .         ..          ...                   ",
"                    .         .                                 ",
"                              ..                                ",
"                               .                                ",
"                               .                                ",
"                               .                                ",
"                              ..                                ",
"                              .                                 ",
"                                                                ",
"                                                                ",
"                                                                ",
"                                                                ",
"                                                                ",
"                                                                ",
"                                                                ",
"                                                                ",
"                                                                ",
"                                                                ",
"                                                                ",
"                                                                ",
"                                                                ",
"                                                                ",
"                                                                "};
