/* XPM */
static char * img2_xpm[] = {
"64 64 3 1",
" 	c None",
".	c #FFFF00",
"+	c #FF0000",
"                                                                ",
"                                                                ",
"                                                                ",
"                                                                ",
"                                                                ",
"                                                                ",
"                                                                ",
"                                                                ",
"            ..                                                  ",
"             .                                                  ",
"             .              .                                   ",
"             ..             .                                   ",
"              ...           .                                   ",
"                .            .                 ..               ",
"                .            .                 .                ",
"                ...          .                .                 ",
"                  ..         ..              ..                 ",
"                   .          ..           ...                  ",
"                   ..          .          ..                    ",
"                    .          .         ..                     ",
"                    .          .         ..                     ",
"                    ..   .     .        ..                      ",
"                      .....    ..       .                       ",
"                       .  ..   ..      ..                       ",
"                           ..  .       .                        ",
"                            .  .   .  ..                        ",
"                            .  .  .....                         ",
"                                  . ..                          ",
"                        +  ++    +                   ..         ",
"                        ++ +    ++         .      ......        ",
"             ... ......  + ++   +   +++   ..  .... .   ..       ",
"         ..... ...    .  ++ ++  +   +   ... ...                 ",
"          ..              +++ +    +                            ",
"                              +                                 ",
"                           +          +                         ",
"                       +++++ ++ ++++++                          ",
"                       +     +   +     .                        ",
"                             +   ++    .                        ",
"                            ++    ++   ..                       ",
"                     ..     +      +    .                       ",
"                     .                  ...                     ",
"                    .         ..          ....                  ",
"                    .         .              .                  ",
"                   .          ..             ...                ",
"                   .           .               ..               ",
"                  ..           .                .               ",
"                  .            .                ....            ",
"                 .            ..                   ..           ",
"                .             .                     .           ",
"               ..             ..                     .          ",
"              ..               .                     ..         ",
"            ...                .                      .         ",
"           .                   .                      .         ",
"                               ..                               ",
"                               ..                               ",
"                               .                                ",
"                                                                ",
"                                                                ",
"                                                                ",
"                                                                ",
"                                                                ",
"                                                                ",
"                                                                ",
"                                                                "};
