/* XPM */
static char * filesystems_folder_home_png[] = {
"32 32 23 1",
"-	c None",
".	c #000000",
"/	c #C0C0C0",
"0	c #808080",
"1	c #FFFFFF",
"2	c #FF0000",
"3	c #800080",
"4	c #FF00FF",
"5	c #008000",
"6	c #00FF00",
"7	c #808000",
"8	c #FFFF00",
"9	c #000080",
":	c #0000FF",
";	c #008080",
"<	c #00FFFF",
"=	c #800000",
">	c #FFDCA8",
"?	c #FFA858",
"@	c #585858",
"A	c #303030",
"B	c #A0A0A4",
"C	c #400000",
"---...--------------------------",
"---.>>..------------------------",
"-...?>>>..----------------------",
"-.1@..?>>>..--------------------",
"-.111@..?>>>..--..A-------------",
"-.11111@..?>>>..>>>..-----------",
"-.1111111@..?>>>>>>>>..---------",
"-.111111111@..?>>>>>>>.---------",
"-.11111/1//BB.????>>>>>.--------",
"-.111111/1///@.??????>>.--------",
"-.111/1/1/1//B@..?C.???>.-------",
"-.1111/1///////B@.@@..?>.-------",
"-.1/1/1/1/////////B/B@.??.------",
"-.11/1/////..//B/B/B/B@.?.------",
"-.1/1/.///....//B/B/BB@.?.------",
"-./1//.//.1111.B/BBBBB@.?.------",
"-.1/1/./.111111.B/BBBB@.?.------",
"-.////..11111111.BBBBB@C?.------",
"-.////.111111111/.BBBB@.?.------",
"-.BB/.1111111111//.BBB@.?.------",
"-.@@...111111111/...BB@.?.------",
"--..@@.111111111/.BBBB@.?.------",
"----...111...111/.BBBB@.?.------",
"------.111.B.111/.BBBB@.?.------",
"------.111.@.111/.BBBB@.?.------",
"------.111...111/.BBBB@.?.------",
"------.111.-.111/.BBBB@.?...----",
"------.....-......BBBB@.?.....--",
"----------------..@@BB@.?......-",
"------------------..@@@.?.....--",
"--------------------..@.?...----",
"----------------------....------"};
