/* XPM */
static char * _opt_kde2_share_icons_medium_hicolor_filesystems_trashcan_full_png[] = {
"32 32 27 1",
"-	c None",
".	c #000000",
"/	c #C0C0C0",
"0	c #808080",
"1	c #FFFFFF",
"2	c #FF0000",
"3	c #800080",
"4	c #FF00FF",
"5	c #008000",
"6	c #00FF00",
"7	c #808000",
"8	c #FFFF00",
"9	c #000080",
":	c #0000FF",
";	c #008080",
"<	c #00FFFF",
"=	c #800000",
">	c #FFFFC0",
"?	c #C0FFFF",
"@	c #585858",
"A	c #00C0C0",
"B	c #C0C000",
"C	c #A0A0A4",
"D	c #FFDCA8",
"E	c #FFA858",
"F	c #004040",
"G	c #DCDCDC",
"------.-------------------------",
"-----.>.-----...----------------",
"----.>1>.....???.---------------",
"---.>1>>.@@@@AAA......-.--------",
"--.>1>>B.////@@@.>>>>..1.-------",
"-.>1>>B>.///////.BBBB.>>1.------",
"--.>>B>B.CCCCCCC...7.>>>11.-----",
"---.B>BB.C@.....DDD.B>B>>>1.----",
"----.BBB.C@.///@EEE.BB>B>>.-----",
"----F@B7.C@.////@@@.BBB>B..-----",
"----.F@@@@@.///////.7BB...------",
"----.CCC@@@.@00000@@@@@@@.------",
"----.CCC1CCC@@@@@@@@00@.@.------",
"----.C0CGGGGC/CC0000@0@.@.------",
"----.C0CG1/C/GC0CCC.@0@.@.------",
"----.C0CG10CCGC00C0.@0@.@.------",
"----.C0CG10CCGC00C0.@0@.@.------",
"----.C0CG10CCGC00C0.@0@.@.------",
"----.C0CG10CCGC00C0.@0@.@.------",
"----.C0CG10CCGC00C0.@0@.@.------",
"----.C0CG10CCGC00C0.@0@.@.------",
"----.C0CG10CCGC00C0.@0@.@.------",
"----.C0CG10CCGC00C0.@0@.@.------",
"----.C0CG10CCGC00C0.@0@.@.------",
"----.C0CG10CCGC00C0.@0@.@.------",
"----.C0CG10CCGC00C0.@0@.@.------",
"----.CCCG10CCGC00C0.@0@@@.------",
"----.CCGG10CCGC00C0@@0@@F.------",
"----.0GG1110GGC@CC0@@0@F..------",
"-----..C11GGGGCCCC0@@@@..-------",
"-------...C//CCCCC@@...---------",
"----------..........------------"};
