/* XPM */
static char * flnotepad_xpm[] = {
"64 59 370 2",
"  	c None",
". 	c #07777B",
"+ 	c #04878B",
"@ 	c #077275",
"# 	c #067F83",
"$ 	c #086A6E",
"% 	c #05868A",
"& 	c #096366",
"* 	c #075C5E",
"= 	c #086265",
"- 	c #0A585A",
"; 	c #095B5D",
"> 	c #0A5456",
", 	c #076E72",
"' 	c #05767A",
") 	c #085758",
"! 	c #086264",
"~ 	c #009CA1",
"{ 	c #009094",
"] 	c #057073",
"^ 	c #029398",
"/ 	c #129A9D",
"( 	c #38ACAF",
"_ 	c #189CA0",
": 	c #059396",
"< 	c #019195",
"[ 	c #1B9EA1",
"} 	c #00999D",
"| 	c #06696B",
"1 	c #019BA0",
"2 	c #047A7D",
"3 	c #047C7F",
"4 	c #047A7E",
"5 	c #07787C",
"6 	c #028588",
"7 	c #046C6E",
"8 	c #046A6C",
"9 	c #028E92",
"0 	c #008082",
"a 	c #008083",
"b 	c #58ACAE",
"c 	c #4CA6A7",
"d 	c #61B1B2",
"e 	c #3C9FA0",
"f 	c #5BAEAF",
"g 	c #74BABB",
"h 	c #5CAEAF",
"i 	c #6BB6B7",
"j 	c #56ABAD",
"k 	c #45A3A4",
"l 	c #50A8A9",
"m 	c #48A4A6",
"n 	c #3D9FA0",
"o 	c #086669",
"p 	c #008D90",
"q 	c #027375",
"r 	c #065E60",
"s 	c #019599",
"t 	c #046C6D",
"u 	c #095254",
"v 	c #028386",
"w 	c #085759",
"x 	c #085658",
"y 	c #095153",
"z 	c #008183",
"A 	c #379C9E",
"B 	c #399D9F",
"C 	c #51A9AA",
"D 	c #49A5A6",
"E 	c #5AADAF",
"F 	c #40A0A2",
"G 	c #54AAAC",
"H 	c #4EA7A9",
"I 	c #56ABAC",
"J 	c #349A9C",
"K 	c #037072",
"L 	c #056668",
"M 	c #056466",
"N 	c #027576",
"O 	c #095052",
"P 	c #0A5558",
"Q 	c #056E71",
"R 	c #066263",
"S 	c #067376",
"T 	c #2E7677",
"U 	c #0A5A5C",
"V 	c #06696C",
"W 	c #0A4C4E",
"X 	c #05777A",
"Y 	c #0A4D4E",
"Z 	c #0B4445",
"` 	c #0A4B4C",
" .	c #096468",
"..	c #0B4849",
"+.	c #058286",
"@.	c #337779",
"#.	c #C1C4C5",
"$.	c #BEC1C2",
"%.	c #A9ACAD",
"&.	c #056669",
"*.	c #08686B",
"=.	c #396E6F",
"-.	c #CBCACB",
";.	c #C4C1C4",
">.	c #A19EA1",
",.	c #929092",
"'.	c #ABA8AB",
").	c #B3B1B3",
"!.	c #A29FA2",
"~.	c #BBB8BB",
"{.	c #A4A2A4",
"].	c #BFBCBF",
"^.	c #046D71",
"/.	c #8D8B8D",
"(.	c #BAB7BA",
"_.	c #9F9C9F",
":.	c #8E8C8E",
"<.	c #B9B6B9",
"[.	c #B1AEB1",
"}.	c #868486",
"|.	c #716F71",
"1.	c #777677",
"2.	c #B5B2B5",
"3.	c #918F91",
"4.	c #8C8A8C",
"5.	c #8F8C8F",
"6.	c #969396",
"7.	c #C5C2C5",
"8.	c #848284",
"9.	c #767476",
"0.	c #908E90",
"a.	c #928F92",
"b.	c #656365",
"c.	c #8F8D8F",
"d.	c #9E9C9E",
"e.	c #807E80",
"f.	c #777577",
"g.	c #ADAAAD",
"h.	c #959295",
"i.	c #959395",
"j.	c #9B999B",
"k.	c #ACAAAC",
"l.	c #8A888A",
"m.	c #979597",
"n.	c #ADABAD",
"o.	c #949294",
"p.	c #727072",
"q.	c #9D9A9D",
"r.	c #B8B6B8",
"s.	c #2D6364",
"t.	c #A1A1A1",
"u.	c #9F9F9F",
"v.	c #9E9D9E",
"w.	c #929192",
"x.	c #8F8E8F",
"y.	c #178084",
"z.	c #3B7071",
"A.	c #FFFFFF",
"B.	c #F6F6F6",
"C.	c #989698",
"D.	c #C1BEC1",
"E.	c #1E878B",
"F.	c #F3F3F3",
"G.	c #FEFEFE",
"H.	c #EBEBEB",
"I.	c #FAFAFA",
"J.	c #262626",
"K.	c #B6B6B6",
"L.	c #898989",
"M.	c #BABABA",
"N.	c #D4D4D4",
"O.	c #F1F1F1",
"P.	c #C3C3C3",
"Q.	c #E5E5E5",
"R.	c #C8C8C8",
"S.	c #AEAEAE",
"T.	c #CFCFCF",
"U.	c #E2E2E2",
"V.	c #C6C6C6",
"W.	c #919191",
"X.	c #C1C1C1",
"Y.	c #D3D3D3",
"Z.	c #E0E0E0",
"`.	c #BEBEBE",
" +	c #FDFDFD",
".+	c #B1B1B1",
"++	c #B4B4B4",
"@+	c #D0D0D0",
"#+	c #A8A8A8",
"$+	c #D5D5D5",
"%+	c #DCDCDC",
"&+	c #C5C5C5",
"*+	c #C9C9C9",
"=+	c #B9B9B9",
"-+	c #E3E3E3",
";+	c #E9E9E9",
">+	c #D0CFD0",
",+	c #B7B4B7",
"'+	c #F2F2F2",
")+	c #A4A4A4",
"!+	c #BCBCBC",
"~+	c #B5B5B5",
"{+	c #A6A6A6",
"]+	c #949494",
"^+	c #BBBBBB",
"/+	c #ADADAD",
"(+	c #AFAFAF",
"_+	c #C2C2C2",
":+	c #B0B0B0",
"<+	c #A7A7A7",
"[+	c #B2B2B2",
"}+	c #EDEDED",
"|+	c #888888",
"1+	c #ABABAB",
"2+	c #BFBFBF",
"3+	c #BDBDBD",
"4+	c #E4E4E4",
"5+	c #868686",
"6+	c #A9A9A9",
"7+	c #A5A5A5",
"8+	c #7E7E7E",
"9+	c #ACACAC",
"0+	c #8C8C8C",
"a+	c #20898D",
"b+	c #F5F5F5",
"c+	c #9D9D9D",
"d+	c #F8F8F8",
"e+	c #FCFCFC",
"f+	c #F0F0F0",
"g+	c #F7F7F7",
"h+	c #ECECEC",
"i+	c #FBFBFB",
"j+	c #D7D7D7",
"k+	c #EAEAEA",
"l+	c #EEEEEE",
"m+	c #EFEFEF",
"n+	c #F4F4F4",
"o+	c #E8E8E8",
"p+	c #E6E6E6",
"q+	c #D9D7D9",
"r+	c #2B9498",
"s+	c #D6D6D6",
"t+	c #D3D1D3",
"u+	c #D1CFD1",
"v+	c #268F93",
"w+	c #B3B3B3",
"x+	c #C4C4C4",
"y+	c #B8B8B8",
"z+	c #A2A2A2",
"A+	c #CACACA",
"B+	c #C0C0C0",
"C+	c #C7C7C7",
"D+	c #9C9C9C",
"E+	c #8F8F8F",
"F+	c #DADADA",
"G+	c #DFDFDF",
"H+	c #CBCBCB",
"I+	c #DDDDDD",
"J+	c #848484",
"K+	c #B7B7B7",
"L+	c #969696",
"M+	c #858585",
"N+	c #D9D9D9",
"O+	c #9B9B9B",
"P+	c #CECECE",
"Q+	c #8A8A8A",
"R+	c #939393",
"S+	c #909090",
"T+	c #929292",
"U+	c #CCCCCC",
"V+	c #D8D8D8",
"W+	c #DCDBDC",
"X+	c #817F81",
"Y+	c #188185",
"Z+	c #2D6264",
"`+	c #E7E6E7",
" @	c #215758",
".@	c #878787",
"+@	c #AAAAAA",
"@@	c #9E9E9E",
"#@	c #989898",
"$@	c #8D8D8D",
"%@	c #A3A3A3",
"&@	c #CDCDCD",
"*@	c #D2D2D2",
"=@	c #DBDBDB",
"-@	c #A0A0A0",
";@	c #9A9A9A",
">@	c #777777",
",@	c #A5A4A5",
"'@	c #D1D1D1",
")@	c #A9A8A9",
"!@	c #8E8E8E",
"~@	c #DEDEDE",
"{@	c #767676",
"]@	c #838383",
"^@	c #C6C5C6",
"/@	c #818181",
"(@	c #AFAEAF",
"_@	c #7F7F7F",
":@	c #E7E7E7",
"<@	c #C6C4C6",
"[@	c #DAD9DA",
"}@	c #E1E1E1",
"|@	c #B1B0B1",
"1@	c #7D7D7D",
"2@	c #7A7A7A",
"3@	c #989798",
"4@	c #F9F9F9",
"5@	c #D8D7D8",
"6@	c #DFDEDF",
"7@	c #2E6364",
"8@	c #828282",
"9@	c #959595",
"0@	c #C2C1C2",
"a@	c #EEEDEE",
"b@	c #2E969B",
"c@	c #BDBABD",
"d@	c #979797",
"e@	c #0C0B0C",
"f@	c #838183",
"g@	c #B8B5B8",
"h@	c #F3F2F3",
"i@	c #F2F1F2",
"j@	c #D2D0D2",
"k@	c #E3E2E3",
"l@	c #BFBDBF",
"m@	c #D4D3D4",
"n@	c #EAE9EA",
"o@	c #AEADAE",
"p@	c #1D868B",
"q@	c #C8C5C8",
"r@	c #908F90",
"s@	c #A6A4A6",
"t@	c #9F9D9F",
"u@	c #181718",
"v@	c #AEACAE",
"w@	c #0F0F0F",
"x@	c #BEBCBE",
"y@	c #BAB8BA",
"z@	c #878587",
"A@	c #096568",
"B@	c #214F50",
"C@	c #464546",
"D@	c #4A494A",
"E@	c #494849",
"F@	c #787678",
"G@	c #5D5C5D",
"H@	c #2A7477",
"I@	c #0B4B4C",
"J@	c #048C90",
"K@	c #236365",
"L@	c #C3C0C3",
"M@	c #269094",
"N@	c #076568",
"O@	c #24585A",
"P@	c #C2BFC2",
"Q@	c #0B7477",
"R@	c #288F93",
"S@	c #289094",
"T@	c #2A8084",
"U@	c #2A8488",
"V@	c #2B7A7E",
"W@	c #298A8E",
"X@	c #0A9BA1",
"Y@	c #0A494B",
"Z@	c #08676A",
"`@	c #0B4648",
" #	c #076A6D",
".#	c #0C4344",
". + + + + @ # + + + + + + + + + + + + + + + + + + + + + + + + + + + + + + + + + + + + + + + + + + + + + + + + + + $ % + + + + & ",
"+ * = = = - $ = = = = = = = = = = = = = = = = = = = = = = = = = = = = = = = = = = = = = = = = = = = = = = ; = = = > , = = = ' ) ",
"+ ! ~ { { ] ^ { { { { { { { { { { { { { { { { / ( { { { _ : { { { { { < [ { { { { { { { { { { { { { { { { $ } { { | 1 2 3 4 5 ) ",
"+ ! 6 7 8 * 9 0 0 0 0 a 0 a 0 0 a 0 a 0 a 0 a b c d e f g h i j k l m f n 0 a 0 0 a 0 a 0 a 0 a 0 0 a 0 a o p q q r s t 0 u . ) ",
"+ ! v w x y 9 z z z z z z z z z z z z z z z z A A A B j j C D E F G H I J z z z z z z z z z z z z z z z z o p K L r s M N O . ) ",
", P Q R R O S R R R R R R R R R R R R R R R R R R R R R R R R T R R R R R R R R R R R R R R R R R R R R R U V R R W X Y Z `  ...",
"+.@.#.$.$.$.$.$.$.$.$.$.$.$.$.$.$.$.$.$.$.$.$.$.$.$.$.$.$.$.$.$.$.$.$.$.$.$.$.$.$.$.$.$.$.$.$.$.$.$.$.$.$.$.$.$.$.$.$.$.$.%.&.*.",
"+ =.-.;.>.,.'.).;.;.;.;.;.;.!.,.~.;.{.].;.;.;.;.).;.).;.;.).;.;.;.;.;.;.;.;.;.;.;.;.;.;.;.;.;.;.;.;.;.;.;.;.;.;.;.;.;.;.;.'.^.) ",
"+ =.-.;./.(._.,./.:.;.;.;.;.:.<.[.}.|.1.2.;.;.;.3.<.4.5./.,.}.6.;.;.;.;.;.;.;.;.;.;.;.;.;.;.;.;.;.;.;.;.;.;.;.;.;.;.;.;.;.'.^.) ",
"+ =.-.7.8.!.,.,.9.0.7.7.7.7.8.>.a.].b.:.7.7.7.7.c.d.e.f.c.,.0.0.7.7.7.7.7.7.7.7.7.7.7.7.7.7.7.7.7.7.7.7.7.7.7.7.7.7.7.7.7.'.^.) ",
"+ =.-.7.g.7.g.g.h.i.7.7.7.7.j.,.k.l.m.n.2.7.7.7.g.7.g.6.o.g.p.q.7.7.7.7.7.7.7.7.7.7.7.7.7.7.7.7.7.7.7.7.7.7.7.7.7.7.7.7.7.'.^.) ",
"+ =.-.7.7.7.7.7.7.7.7.7.7.7.7.7.7.7.7.7.7.7.7.7.7.7.7.7.7.7.r.7.7.7.7.7.7.7.7.7.7.7.7.7.7.7.7.7.7.7.7.7.7.7.7.7.7.7.7.7.7.'.^.) ",
"+ s.t.u.u.u.u.u.u.u.u.u.u.u.u.u.u.u.u.u.u.u.u.u.u.u.u.u.u.u.u.u.u.u.u.u.u.u.u.u.u.u.u.u.u.u.u.u.u.u.u.u.u.u.u.u.u.u.v.w.w.x.y.) ",
"+ z.A.A.A.A.A.A.A.A.A.A.A.A.A.A.A.A.A.A.A.A.A.A.A.A.A.A.A.A.A.A.A.A.A.A.A.A.A.A.A.A.A.A.A.A.A.A.A.A.A.A.A.A.A.A.A.A.B.7.C.D.E.) ",
"+ z.A.A.A.A.A.A.A.A.A.A.A.A.A.A.A.A.A.A.A.A.A.A.A.A.A.A.A.A.A.A.A.A.A.A.F.G.A.H.I.A.A.A.A.A.A.A.A.A.A.A.A.A.A.A.A.A.B./.J.e.E.) ",
"+ z.A.A.A.K.L.M.N.A.O.P.Q.P.Q.R.S.T.N.U.V.Q.W.B.A.X.X.Y.N.N.N.P.B.A.Z.T.`. +V..+++@+#+Z.$+A.A.A.%+&+T.*+A. +=+-+&+;+>+(.(.,+E.) ",
"+ z.A.A.A.'+)+!+~+A.A.)+`.{+P.S.&+Y.]+^+/+Q.(+;+A._+:+++!+/+~+<+A.A.[+}+/+;+/+|+1+2+!+3+#+4+A.A.Q.5+6+]+A.G.7+++8+9+0+4.4.4.a+) ",
"+ z.A.A.A.b+4+B.O.A.O.c+d+Q.e+H. +;+f+g+H.e+h+i+A.j+%+f+g+k+O.Q.A.A.l+O.;+m+3+P.;+n+o+B.O.p+A.A.A.f+i+H.A.G.;+f+k+ +q+7.7.7.r+) ",
"+ z.A.A.A.A.A.A.A.A.A.A.A.A.e+I.A.A.A.A.F.U.A.A.A.A.A.A.A.A.A.A.A.A.A.A.d+f+Q.A.A.A.A.A.A.A.A.A.A.l+A.A.s+A.d+A.A.A.B.t+t+u+v+) ",
"+ z.w+x+#+~+y+*+*+#+s+S.U.A.s+z+s+A+A.A.^+1+6+B+[+K.K.A.O.y+~+=+!+C+A.A.D+%+E+j+6+F+~+T.X.A.A.^+G+X.U.y+c+H+D+I+.+;+B.7.7.D.E.) ",
"+ z.W.J+K+~+L+2+[+u.:+M+N+A.l+1+[+[+A.A.)+t.L.O+[+2+[+A.A.]+P+)+++t.'+A.X.3+t.E+Q+N.R+:+(+A.A.R+f+S+_+T+u.u.X.U+u.s+B.7.7.D.E.) ",
"+ z.A.A.A.o+s+A.A.A.A.A.A.A.A.A.A.A.A.A.A.A.A.A.A.V+Q.A.A.2+A.A.A.A.A.A.A.A.A.A.A.A.A.A.A.A.A.A.A.A.g+K.A.A.A.A.A.A.W+X+X+e.Y+) ",
"+ Z+!+w+m+A.A.A.A.A.A.A.A.A.A.A.A.A.}+A.A.A.l+A.A.}+A.m+ +A.A.A.A.A.A.A.}+A.A.A.A.A.A.A.A.!+ +A.A.}+A.A.A.A.}+A.A.A.`+7.7.7.r+) ",
"+  @K.=+t.B+5+*+:+u.M.A.b+/+*+.@R..+c+%+:+G+~+j+_++@T.S.i+:+++@@@+#@A.A.D+%+:+G+M+(+#+C+[+2+e+R+H+$@R.L.A.A.D+I+(+F+`+7.7.7.r+) ",
"+ z.u.^+:++@2+F+3+^+F+A.b+%@s+2+F+3+&@H+@@f+O+P+_+F+`./+F+(+#+X.3+:+A.A.U+H+@@Q.9+R+3+&@`.9+H+/+C+[+3+X.A.A.U+U+S.N+`+7.7.7.r+) ",
"+ z.A.A.A.A.A.A.A.A.A.A.A.A.A.A.A.A.A.A.A.A.A.A.A.A.A.A.A.A.A.A.A.A.A.A.A.A.A.A.A.A.A.A.A.A.A.A.A.A.A.A.A.A.A.A.A.A.`+7.7.7.r+) ",
"+ z.F.U+l+A.A.U.A.A.A.l+N.H.A.A.U.A.A.A.A.A.A.A.A.A.A.m+ +A.A.A.A.A.A.A.*@%+A.A.U.B+A.A.A.A.A.A.A.A.'+!+U.A.A.A.A.A.`+7.7.7.r+) ",
"+ z.{+S.+@U.Q++@P+w+=@-@N+D+;@.++@T.T+=+A.4+[+x+<+S.++)+i+>@*+5+O.A.2+++D+%+A.n+$@S.<+1+-@A.A.T+2+7+3+{+6+P+.@-@.@B+,@7.7.7.r+) ",
"+ z.^+R.{+G+^+Q.`.K+h++@H+y+$+K+N+`.C+%+A.O.^+N+!++@*+y+=@M.G+M.F.A.N.*+K.}+A.A.3+{+K+R.T.A.A.B+$+y+*@V.4+2+'@j+=+R.)@7.7.7.r+) ",
"+ z.A.A.A.A.A.A.A.A.A.A.A.A.A.A.A.A.A.A.A.A.A.A.A.&+A.A.A.A.A.A.A.A.A.A.A.A.A.A.A.A.A.A.A.A.A.A.A.A.A.A.A.A.A.A.A.A.`+7.7.7.r+) ",
"+ z.A.A.A.A.A.A.A.A.A.A.A.A.A.A.A.A.A.A.A.A.A.A.A.A.A.A.A.A.A.A.A.A.A.A.A.A.A.A.A.A.A.A.A.A.A.A.A.A.A.A.A.A.A.A.A.A.`+7.7.7.r+) ",
"+ z.A.A.A.A.A.A.A.A.A.A.A.A.A.A.A.A.A.A.A.A.A.A.A.A.A.A.A.A.A.A.A.A.A.A.A.A.A.A.A.A.A.A.A.A.A.A.A.A.A.A.A.A.A.A.A.A.`+7.7.7.r+) ",
"+ z.A.A.A.A.A.A.A.A.A.A.A.A.A.A.A.A.A.A.A.A.A.A.A.A.A.A.A.A.A.A.A.A.A.A.A.A.A.A.A.A.A.A.A.A.A.A.A.A.A.A.A.A.A.A.A.A.`+7.7.7.r+) ",
"+ z.A.A.A.A.A.A.A.A.A.A.A.A.A.A.A.A.A.A.A. +I.A.A.A.A.A.A. +A.I.G.A.A.A.A.A.A.A.A.A.i+G. +A.A.A.A.A.A. +i+A.A.A.A.A.`+7.7.7.r+) ",
"+ z.A.A.A.~+!@H.G+~@=@A.G.U+s+&@P+~@U+Z.P+f+#+d+*@A.A.A.A.3+n+{@m+A.U+U+I+~@~@;+A.g+]@j+4+I+}+@@G+P+G+$+;@~@~@%+c+;+^@7.7.7.r+) ",
"+ z.A.A.A.K+Y.3+3+3+A.A.N+;@*+#+H+@@/@y+3+3+3+K+z+m+A.A.A.3+A.3+A.A.M.:+3+3+3+3+A.3+3+'+*+3+!+3+m+3+A.3+3+3+3+3+3+x+(@7.7.7.r+) ",
"+ z.A.A.A.s+-+H.~@&@h+A.G.U+%+;+~@&@U+T._@m+3+~@*@%+A.A.A.2+G+&+A.A.V+Y.I+h+@+o+A.g+&@P+T.I+h+Z.~@&+:@_+N+Z.%+%+Z.o+<@7.7.7.r+) ",
"+ z.A.A.A.A.A.A.A.F. +A.A.A.A.A.A.A.A. +-+l+A.A.A.A.A.A.A.A.A.~@d+A.I.A.A.A.A.A.A.A.A.A.A.A.A.A.A.A.A.A.A.A.A.A.A.A.[@7.7.7.r+) ",
"+ z.V.Y._+G+V.S.P+B+i+V.l+A.}+C+Z.T.A.A.$@I+_+-+&+A.A.&@}@A.n+.@U.C+G+N.A.A.A.%+x+P+C+'@'@A.f+K+U+N.G+R./+@+A.A.&+Y.|@7.7.7.r+) ",
"+ z.9+++)+N.1@`.@+(+4+-@T.A.x+9+.+h+A.A.t.=@(+2+X.A.A.6+-@A.d+7+3+T+#+<+4+A.A.O.$@y+/+^++@A.B.2@E+(+=+T+&+'@A.A.1+++3@7.7.7.r+) ",
"+ z.B+H+o+e+h+4@h+h+O.}+e+A.e+}+O.'+A.A.p+ +H.B.}+A.A.'+O.A.i+o+e+}+g+F.:@A.A.n+2+e+l+g+h+A.4@O.O.H.b+l+ +h+A.A.`.&@5@7.7.7.r+) ",
"+ z.A.A.A.A.A.A.G.s+A.A.A.A.A.A.A.A.A.A.A.F.;+F.A.A.A.A.A.A.A.A.A.A.g+A.A.A.A.A.A.s+A.A.A.A.A.A.A.A.A.A.A.A.A.A.g+~@6@7.7.7.r+) ",
"+ 7@K+++y+M.V.A.A.c+$+.+=+M.M.9+A.A.A.A.A.p+0+H+!+V.V.A.O.t.M.H+'@w+6+T.A.f+t.N+#+:+*+&@2+A.A.(+`.H+*@2+U+2+A.A.E+2+(@7.7.7.r+) ",
"+ z.L+@+7+++z+'+G.-@-@R+w+S+P.;@l+A.A.A.A.A.-@U+{+2+%@A.O.8@L+7+!+9@T.`.A.f+8@D+L.5+X.{+.+A.A.z+M.7+(+M..+[+A.A.~+-@0@7.7.7.r+) ",
"+ z.B+A.A.A.A.A.A.A.A.A.A.A.A.A.A.A.A.A.A.A.A.A.A.A.A.A.A.A.A.A.A.A.A.A.A.A.A.A.A.A.A.A.A.A.A.A.A.A.A.A.A.A.A.A.A.A.a@t+t+t+b@) ",
"+ z.A.A.A.A.A.A.A.A.A.A.A.A.A.A.A.A.A.H+A.A.A.A.A.A.A.U+ +A.A.%+}+A.A.A.A.A.A.A.A.A.A.A.A.A.A.h+A.A.A.A.H+A.A.A.A.A.B.D.].c@E.) ",
"+ z.]+T.S.6+^+A+P+3+=@]@Y.A.j+_+A+`.3+1+8@Y.A.A.A.A.A.c+1+D+P.@@~@A.1+1+!+3+3+R.A.++-@^+^+9+H+E+k+A.Z.d@6+2+!+3+O+K+B.0.e@f@E.) ",
"+ z.X.&+(+&+/+/+G+3+=@:+;+A.j+_+A+`.3+^+:+;+l+A.A.A.G.9+c+=+#+(+I+A.$+~+3+U+:+R.A.!+L+`.S.&@U+B+N+A.:@[+1+1+!+U+z+p+B.7.g@D.E.) ",
"+ z.h@i@i@s+i@i@i@i@i@i@i@i@i@i@i@i@i@i@i@i@i@i@`+j@k@k@k@k@k@k@k@k@l@m@k@k@k@k@k@k@k@k@k@k@k@k@k@k@k@k@k@k@n@i@i@i@o@X+X+X+p@) ",
"+ z.q@0.2.r@7.7.7.7.7.7.7.7.7.7.7.7.7.7.7.7.7.7.s@t@7.7.7.7.7.7.7.7.7.7.7.7.7.7.7.7.7.7.7.7.7.7.7.7.7.7.7.7.t+7.e.7.X+7.7.7.r+) ",
"+ z.].u@v@r@7.7.7.7.7.7.7.7.7.7.7.7.7.7.7.7.7.7.s@t@7.7.7.7.7.7.7.7.7.7.7.7.7.7.7.7.7.7.7.7.7.7.7.7.7.7.7.7.t+7.w@v@X+7.7.7.r+) ",
"+ z.x@o.n.:.y@y@y@y@y@y@y@y@y@y@y@y@y@y@y@y@y@y@t@t@7.7.7.7.7.7.7.7.7.7.7.7.7.7.7.7.7.7.7.7.7.7.7.7.7.7.7.7.t+~.z@y@e.7.7.7.r+) ",
"A@B@C@D@D@D@D@D@D@D@D@D@D@D@D@D@D@D@D@D@D@D@D@D@E@9.f@f@f@f@f@f@f@f@f@f@f@f@f@f@f@f@f@f@f@f@f@f@f@f@f@f@f@f@F@D@D@D@G@f@f@}.H@I@",
"J@K@5.7.7.7.7.7.7.7.7.7.7.7.7.7.7.7.7.7.7.7.7.7.7.7.7.7.7.7.7.7.7.7.7.7.7.7.7.7.7.7.7.7.7.7.7.7.7.7.7.7.7.7.7.7.7.7.7.7.7.L@M@N@",
"+ O@5.7.7.7.7.7.7.7.7.7.7.7.7.7.7.7.7.7.7.7.7.7.7.7.7.7.7.7.7.7.7.7.7.7.7.7.7.7.7.7.7.7.7.7.7.7.7.7.7.7.7.7.7.7.7.7.7.7.7.L@v+) ",
"+ O@5.7.7.7.7.7.7.7.7.7.7.7.7.7.7.7.7.7.7.7.7.7.7.7.7.7.7.7.7.7.7.7.7.7.7.7.7.7.7.7.7.7.7.7.7.7.7.7.7.7.7.7.7.7.7.7.7.7.7.L@v+) ",
"+ O@0.L@L@L@L@L@L@L@L@L@L@L@L@L@L@L@L@L@L@L@L@L@L@L@L@L@L@L@L@L@L@L@L@L@L@L@L@L@L@L@L@L@L@L@L@L@L@L@L@L@L@L@L@L@L@L@L@L@L@P@v+) ",
"+ Q@R@S@S@T@U@S@S@S@S@S@S@S@S@S@S@S@S@S@S@S@S@S@S@S@S@S@S@S@S@S@S@S@S@S@S@S@S@S@S@S@S@S@S@S@S@S@S@S@S@S@S@S@S@S@S@V@W@S@S@S@X@) ",
"& w w w w Y@Z@w w w w w w w w w w w w w w w w w w w w w w w w w w w w w w w w w w w w w w w w w w w w w w w w w w `@ #w w w w .#"};
