/* XPM */
static char * block_xpm[] = {
"32 26 455 2",
"  	c None",
". 	c #5E635D",
"+ 	c #5A5E59",
"@ 	c #565B55",
"# 	c #545954",
"$ 	c #545A54",
"% 	c #575E57",
"& 	c #585F58",
"* 	c #585F57",
"= 	c #626A61",
"- 	c #7E857E",
"; 	c #8D928C",
"> 	c #959C95",
", 	c #949B93",
"' 	c #9AA299",
") 	c #9BA49A",
"! 	c #9AA499",
"~ 	c #899388",
"{ 	c #7E887E",
"] 	c #7C857B",
"^ 	c #7B847A",
"/ 	c #6A7369",
"( 	c #606960",
"_ 	c #495049",
": 	c #676F66",
"< 	c #727972",
"[ 	c #A5ABA5",
"} 	c #BBC0BA",
"| 	c #B7BEB7",
"1 	c #A7B0A6",
"2 	c #8F9B8E",
"3 	c #8D998C",
"4 	c #8C988B",
"5 	c #879286",
"6 	c #7B867B",
"7 	c #7A857A",
"8 	c #707A70",
"9 	c #768175",
"0 	c #7D887C",
"a 	c #838E82",
"b 	c #788378",
"c 	c #4D534C",
"d 	c #777D77",
"e 	c #A5ABA4",
"f 	c #B0B8AF",
"g 	c #949E93",
"h 	c #9FA99E",
"i 	c #AEB7AE",
"j 	c #A9B2A9",
"k 	c #919C90",
"l 	c #929D91",
"m 	c #8B968A",
"n 	c #757E74",
"o 	c #707A6F",
"p 	c #737D73",
"q 	c #768075",
"r 	c #7F897E",
"s 	c #7F8A7E",
"t 	c #3E433D",
"u 	c #989B97",
"v 	c #C7CCC7",
"w 	c #BEC5BE",
"x 	c #A3ACA2",
"y 	c #919D90",
"z 	c #97A296",
"A 	c #AAB3A9",
"B 	c #C2C9C2",
"C 	c #9DA59C",
"D 	c #919990",
"E 	c #AFB6AE",
"F 	c #838A82",
"G 	c #6F786E",
"H 	c #747E73",
"I 	c #808B7F",
"J 	c #8B978A",
"K 	c #646D63",
"L 	c #2F342F",
"M 	c #A6A9A6",
"N 	c #CED2CD",
"O 	c #D7DBD7",
"P 	c #D1D6D0",
"Q 	c #CFD4CE",
"R 	c #C2C8C2",
"S 	c #B7BEB6",
"T 	c #C7CBC6",
"U 	c #ABB2AA",
"V 	c #7E827D",
"W 	c #4C504B",
"X 	c #969A95",
"Y 	c #6C716C",
"Z 	c #444944",
"` 	c #899488",
" .	c #98A398",
"..	c #939E92",
"+.	c #99A398",
"@.	c #80897F",
"#.	c #404640",
"$.	c #ABAFAB",
"%.	c #D0D5CF",
"&.	c #D2D7D2",
"*.	c #CBD0CA",
"=.	c #CDD2CC",
"-.	c #D2D5D2",
";.	c #777976",
">.	c #60675F",
",.	c #858F84",
"'.	c #828C81",
").	c #5E645D",
"!.	c #596058",
"~.	c #2B2E2B",
"{.	c #8A9389",
"].	c #B3BBB2",
"^.	c #B6BEB6",
"/.	c #B7BFB7",
"(.	c #BFC6BF",
"_.	c #C0C7C0",
":.	c #899088",
"<.	c #3A3F3A",
"[.	c #888D88",
"}.	c #CFD3CF",
"|.	c #CBD0CB",
"1.	c #CED3CE",
"2.	c #C5CBC5",
"3.	c #BBC2BB",
"4.	c #B4BCB3",
"5.	c #D1D5D0",
"6.	c #BBBEBB",
"7.	c #5C615C",
"8.	c #777E76",
"9.	c #777F77",
"0.	c #868E86",
"a.	c #585E58",
"b.	c #3C413C",
"c.	c #B2B8B2",
"d.	c #CED3CD",
"e.	c #C3C9C3",
"f.	c #CDD3CD",
"g.	c #767D76",
"h.	c #3B403B",
"i.	c #474D47",
"j.	c #B8BDB8",
"k.	c #AEB7AD",
"l.	c #B6BEB5",
"m.	c #ABB4AB",
"n.	c #96A195",
"o.	c #C0C6BF",
"p.	c #AFB4AF",
"q.	c #7E887D",
"r.	c #8A908A",
"s.	c #303330",
"t.	c #5D645C",
"u.	c #3D423D",
"v.	c #1F221F",
"w.	c #717671",
"x.	c #C4CAC4",
"y.	c #C4CAC3",
"z.	c #C9CEC8",
"A.	c #D0D5D0",
"B.	c #D1D6D1",
"C.	c #B1B7B1",
"D.	c #4F554F",
"E.	c #464C45",
"F.	c #393E38",
"G.	c #A1A6A1",
"H.	c #889287",
"I.	c #969B95",
"J.	c #414540",
"K.	c #292D29",
"L.	c #1F211F",
"M.	c #212421",
"N.	c #353935",
"O.	c #6A7069",
"P.	c #9DA69D",
"Q.	c #A5AEA5",
"R.	c #A6AFA6",
"S.	c #B9C1B9",
"T.	c #7D847C",
"U.	c #50574F",
"V.	c #3B413B",
"W.	c #343E35",
"X.	c #424B42",
"Y.	c #747773",
"Z.	c #8F998E",
"`.	c #838D82",
" +	c #666D65",
".+	c #4A5049",
"++	c #313531",
"@+	c #242723",
"#+	c #4A4C44",
"$+	c #70776F",
"%+	c #98A197",
"&+	c #96A095",
"*+	c #95A094",
"=+	c #99A498",
"-+	c #AEB6AD",
";+	c #B1B8B0",
">+	c #909990",
",+	c #393D38",
"'+	c #494E48",
")+	c #3C423C",
"!+	c #474D46",
"~+	c #424741",
"{+	c #3B463C",
"]+	c #809883",
"^+	c #859C88",
"/+	c #4F5750",
"(+	c #747C73",
"_+	c #889487",
":+	c #848F83",
"<+	c #798478",
"[+	c #727B71",
"}+	c #727C70",
"|+	c #60665A",
"1+	c #595B4F",
"2+	c #3D3C32",
"3+	c #322F25",
"4+	c #4B4635",
"5+	c #645F4C",
"6+	c #40443F",
"7+	c #727A72",
"8+	c #889387",
"9+	c #4E534D",
"0+	c #6C736B",
"a+	c #323632",
"b+	c #575E56",
"c+	c #374238",
"d+	c #849D87",
"e+	c #A5C3A8",
"f+	c #849A86",
"g+	c #566057",
"h+	c #5B625A",
"i+	c #6A7062",
"j+	c #6A6954",
"k+	c #6A6851",
"l+	c #66644E",
"m+	c #746F54",
"n+	c #8D845D",
"o+	c #9D9167",
"p+	c #938964",
"q+	c #777052",
"r+	c #55513C",
"s+	c #323229",
"t+	c #323631",
"u+	c #737B72",
"v+	c #717B70",
"w+	c #4F564F",
"x+	c #444843",
"y+	c #818980",
"z+	c #373B36",
"A+	c #555C54",
"B+	c #353A35",
"C+	c #444A43",
"D+	c #313A32",
"E+	c #5C6E5F",
"F+	c #687C6B",
"G+	c #758977",
"H+	c #879D89",
"I+	c #5B6259",
"J+	c #7D7B62",
"K+	c #A79E71",
"L+	c #B1A472",
"M+	c #A69A6B",
"N+	c #797252",
"O+	c #504B36",
"P+	c #3C3827",
"Q+	c #25231B",
"R+	c #20221E",
"S+	c #2C302B",
"T+	c #484E47",
"U+	c #6D766C",
"V+	c #798378",
"W+	c #4C534C",
"X+	c #3F443F",
"Y+	c #494F48",
"Z+	c #6E766D",
"`+	c #7D877C",
" @	c #4F544E",
".@	c #626962",
"+@	c #323732",
"@@	c #4B524A",
"#@	c #090B0A",
"$@	c #2D352E",
"%@	c #4B5A4D",
"&@	c #576759",
"*@	c #445147",
"=@	c #2A302A",
"-@	c #3C3E36",
";@	c #54564B",
">@	c #24241C",
",@	c #171713",
"'@	c #1D1F1C",
")@	c #3C413B",
"!@	c #4C524C",
"~@	c #5D655C",
"{@	c #444A44",
"]@	c #3B403A",
"^@	c #3D413C",
"/@	c #505650",
"(@	c #727C71",
"_@	c #6E776D",
":@	c #434842",
"<@	c #6E756E",
"[@	c #7C837B",
"}@	c #333732",
"|@	c #535A53",
"1@	c #3D433C",
"2@	c #060806",
"3@	c #323C34",
"4@	c #222E27",
"5@	c #16201C",
"6@	c #141E1A",
"7@	c #1C2520",
"8@	c #272D27",
"9@	c #191B19",
"0@	c #151614",
"a@	c #303430",
"b@	c #2D302C",
"c@	c #3D433D",
"d@	c #555D55",
"e@	c #717A70",
"f@	c #6E786D",
"g@	c #535B53",
"h@	c #4F544F",
"i@	c #545A53",
"j@	c #3E443D",
"k@	c #040504",
"l@	c #44584C",
"m@	c #293E36",
"n@	c #23352E",
"o@	c #25362E",
"p@	c #232A25",
"q@	c #121412",
"r@	c #1C1E1C",
"s@	c #5C645C",
"t@	c #666F65",
"u@	c #5B635A",
"v@	c #70796F",
"w@	c #818C80",
"x@	c #687167",
"y@	c #535A52",
"z@	c #3F443E",
"A@	c #3A3F39",
"B@	c #4A4F49",
"C@	c #6A736A",
"D@	c #6C756B",
"E@	c #626B62",
"F@	c #464B45",
"G@	c #686F68",
"H@	c #7A8279",
"I@	c #545C54",
"J@	c #080908",
"K@	c #1C211D",
"L@	c #6F8B77",
"M@	c #3D5E50",
"N@	c #2E4A40",
"O@	c #20322B",
"P@	c #1D2520",
"Q@	c #0E100F",
"R@	c #0A0B0A",
"S@	c #2F332F",
"T@	c #373C37",
"U@	c #373C36",
"V@	c #788277",
"W@	c #3C403B",
"X@	c #777F76",
"Y@	c #7A8379",
"Z@	c #363A35",
"`@	c #363A36",
" #	c #101311",
".#	c #738D7A",
"+#	c #446557",
"@#	c #2B463D",
"##	c #23362F",
"$#	c #1C2621",
"%#	c #171918",
"&#	c #030303",
"*#	c #596159",
"=#	c #575F57",
"-#	c #4C524B",
";#	c #505850",
">#	c #616A60",
",#	c #697268",
"'#	c #838F82",
")#	c #5D665D",
"!#	c #4B514A",
"~#	c #656D64",
"{#	c #454A44",
"]#	c #383C37",
"^#	c #121612",
"/#	c #637A69",
"(#	c #4C6D5D",
"_#	c #2D4A3E",
":#	c #20342C",
"<#	c #202D27",
"[#	c #000100",
"}#	c #3E443E",
"|#	c #40463F",
"1#	c #393E39",
"2#	c #484E48",
"3#	c #353934",
"4#	c #30342F",
"5#	c #60685F",
"6#	c #737C72",
"7#	c #677066",
"8#	c #4A514A",
"9#	c #070807",
"0#	c #445448",
"a#	c #517463",
"b#	c #304E42",
"c#	c #263C34",
"d#	c #16221E",
"e#	c #0C0E0D",
"f#	c #0D0E0D",
"g#	c #515851",
"h#	c #464C46",
"i#	c #414640",
"j#	c #454B44",
"k#	c #4F564E",
"l#	c #3A3E39",
"m#	c #252925",
"n#	c #48594C",
"o#	c #547563",
"p#	c #2C473C",
"q#	c #253D34",
"r#	c #1C2F29",
"s#	c #121B17",
"t#	c #0C100E",
"u#	c #0A0A0A",
"v#	c #171917",
"w#	c #545B53",
"x#	c #4E544D",
"y#	c #343834",
"z#	c #1F211E",
"A#	c #3E4C41",
"B#	c #527261",
"C#	c #35574B",
"D#	c #263F36",
"E#	c #1E312A",
"F#	c #1D2D26",
"G#	c #070A08",
"H#	c #050605",
"I#	c #2C302C",
"J#	c #303B32",
"K#	c #374E43",
"L#	c #2F4B40",
"M#	c #243D33",
"N#	c #2A4339",
"O#	c #253830",
"P#	c #0C0F0D",
"Q#	c #000000",
"R#	c #38483E",
"S#	c #25342D",
"T#	c #1F2D26",
"U#	c #1B221D",
"V#	c #191D19",
"                              . + @ # $ % & *                   ",
"                      = - ; > , ' ) ! ~ { ] ^ / ( _             ",
"                  : < [ } | 1 2 3 4 5 6 7 8 9 0 a b c           ",
"                d e f g h i j k l m n o p n q r 4 4 s t         ",
"              u v w x y z A B C D E F G H H I J 4 4 J K L       ",
"            M N O P Q R S T U V W X Y Z s ` z  ...+.+.@.#.      ",
"          $.%.N &.*.=.Q -.;.>.,.'.).!.~.{.f ].^./.(._.:.<.      ",
"        [.}.|.1.2.3.4.5.6.7.8.9.0.a.b.~.c.d.e.f.=.d.2.g.h.i.    ",
"        j.3.k.l.m.x n.o.p.q.r.s.t.u.v.w.x.y.z.A.B.A.C.D.E.F.    ",
"      a.G.H.4 4 4 4 4 ..I.J.K.L.M.N.O.P.Q.R.S.=.=.R T.F.U.V.    ",
"    W.X.Y.Z.4 4 4 m 5 a `. +.+++@+#+$+%+&+*+=+-+;+>+,+'+)+!+~+  ",
"  {+]+^+/+(+_+_+:+<+[+}+|+1+2+3+4+5+6+7+&+3 J 8+q !+9+0+a+b+)+  ",
"  c+d+e+f+g+h+i+j+k+l+m+n+o+p+q+r+s+t+u+..5 v+w+x+0+y+z+A+B+C+  ",
"  D+E+F+G+H+I+J+K+L+M+N+O+P+Q+R+S+T+U+V+/ W+X+Y+Z+`+t  @.@+@@@  ",
"  #@$@%@&@*@=@-@;@s+>@,@'@)@c !@~@b+{@]@^@/@(@_@b+:@<@[@}@|@1@  ",
"  2@3@4@5@6@7@8@9@0@++a@b@S+a@}@c@_ d@e@V+f@g@{@{@Z+] <.h@i@j@  ",
"  k@D+l@m@n@o@p@q@r@s@t@b+u@v@H w@w@x@y@z@A@B@C@D@E@F@G@H@}@I@  ",
"  J@K@L@M@N@O@P@Q@R@S@T@S@S@U@,+++t+T@T+_@V@(@u@!+W@X@Y@Z@`@    ",
"     #.#+#@###$#%#&#a@*#=#-#;#>#,#'#w@v+)#!#z@T+s@f@~#{#]#      ",
"    ^#/#(#_#:#<#q@[#q@}#|#1#|#c 2#t 3#4#:@5#D@6#7#8#++          ",
"    9#0#a#b#c#d#e#R@f#,+g#h#i#j#k#E@w@s V@,#=#l#m#              ",
"      n#o#p#q#r#s#t#u#v#w#x#Y+=#= h+y@h#y#K.z#                  ",
"      A#B#C#D#E#F#G#k@H#I#V.S@I#I#S+b.                          ",
"      J#K#L#M#N#O#P#Q#Q#                                        ",
"        R#S#T#$#U#V#                                            ",
"                                                                "};
