/* XPM */
static char * character_xpm[] = {
"38 38 212 2",
"  	c None",
". 	c #535353",
"+ 	c #747474",
"@ 	c #757575",
"# 	c #616161",
"$ 	c #5C5C5C",
"% 	c #393939",
"& 	c #060606",
"* 	c #070707",
"= 	c #010101",
"- 	c #565656",
"; 	c #A6A6A6",
"> 	c #9B9B9B",
", 	c #A2A2A2",
"' 	c #989898",
") 	c #373737",
"! 	c #505050",
"~ 	c #B4B4B4",
"{ 	c #DBDBDB",
"] 	c #E7E7E7",
"^ 	c #E2E2E2",
"/ 	c #C9C9C9",
"( 	c #6C6C6C",
"_ 	c #202020",
": 	c #333333",
"< 	c #2A2A2A",
"[ 	c #0C0C0C",
"} 	c #EFEFEF",
"| 	c #FFFFFF",
"1 	c #F2F2F2",
"2 	c #E3E3E3",
"3 	c #F6F6F6",
"4 	c #B8B8B8",
"5 	c #131313",
"6 	c #383838",
"7 	c #858585",
"8 	c #979797",
"9 	c #A8A8A8",
"0 	c #F7F7F7",
"a 	c #A0A0A0",
"b 	c #545454",
"c 	c #414141",
"d 	c #3F3F3F",
"e 	c #474747",
"f 	c #3B3B3B",
"g 	c #090909",
"h 	c #242424",
"i 	c #B3B3B3",
"j 	c #8D8D8D",
"k 	c #A7A7A7",
"l 	c #FCFCFC",
"m 	c #5B5B5B",
"n 	c #8F8F8F",
"o 	c #E5E5E5",
"p 	c #DDDDDD",
"q 	c #C1C1C1",
"r 	c #919191",
"s 	c #6F6F6F",
"t 	c #454545",
"u 	c #4C4C4C",
"v 	c #494949",
"w 	c #444444",
"x 	c #484848",
"y 	c #4A4A4A",
"z 	c #1A1A1A",
"A 	c #8E8E8E",
"B 	c #FBFBFB",
"C 	c #606060",
"D 	c #9F9F9F",
"E 	c #F8F8F8",
"F 	c #CFCFCF",
"G 	c #1B1B1B",
"H 	c #808080",
"I 	c #D8D8D8",
"J 	c #F3F3F3",
"K 	c #262626",
"L 	c #1C1C1C",
"M 	c #595959",
"N 	c #5D5D5D",
"O 	c #686868",
"P 	c #CACACA",
"Q 	c #666666",
"R 	c #C6C6C6",
"S 	c #707070",
"T 	c #D9D9D9",
"U 	c #D5D5D5",
"V 	c #212121",
"W 	c #525252",
"X 	c #7C7C7C",
"Y 	c #F9F9F9",
"Z 	c #252525",
"` 	c #151515",
" .	c #3D3D3D",
"..	c #555555",
"+.	c #5A5A5A",
"@.	c #0D0D0D",
"#.	c #8C8C8C",
"$.	c #848484",
"%.	c #434343",
"&.	c #D0D0D0",
"*.	c #0E0E0E",
"=.	c #E9E9E9",
"-.	c #999999",
";.	c #D2D2D2",
">.	c #585858",
",.	c #939393",
"'.	c #737373",
").	c #929292",
"!.	c #EEEEEE",
"~.	c #DFDFDF",
"{.	c #CDCDCD",
"].	c #A5A5A5",
"^.	c #080808",
"/.	c #3C3C3C",
"(.	c #868686",
"_.	c #D4D4D4",
":.	c #EAEAEA",
"<.	c #C4C4C4",
"[.	c #9A9A9A",
"}.	c #BEBEBE",
"|.	c #D3D3D3",
"1.	c #171717",
"2.	c #2F2F2F",
"3.	c #292929",
"4.	c #797979",
"5.	c #C2C2C2",
"6.	c #8B8B8B",
"7.	c #1F1F1F",
"8.	c #BABABA",
"9.	c #BFBFBF",
"0.	c #C8C8C8",
"a.	c #222222",
"b.	c #787878",
"c.	c #020202",
"d.	c #343434",
"e.	c #C5C5C5",
"f.	c #6A6A6A",
"g.	c #A4A4A4",
"h.	c #EBEBEB",
"i.	c #E1E1E1",
"j.	c #6D6D6D",
"k.	c #BBBBBB",
"l.	c #2B2B2B",
"m.	c #ACACAC",
"n.	c #6E6E6E",
"o.	c #717171",
"p.	c #676767",
"q.	c #6B6B6B",
"r.	c #767676",
"s.	c #030303",
"t.	c #828282",
"u.	c #9E9E9E",
"v.	c #AFAFAF",
"w.	c #888888",
"x.	c #2D2D2D",
"y.	c #5F5F5F",
"z.	c #909090",
"A.	c #0A0A0A",
"B.	c #9D9D9D",
"C.	c #575757",
"D.	c #B0B0B0",
"E.	c #8A8A8A",
"F.	c #B2B2B2",
"G.	c #727272",
"H.	c #4D4D4D",
"I.	c #BDBDBD",
"J.	c #232323",
"K.	c #1D1D1D",
"L.	c #AAAAAA",
"M.	c #FAFAFA",
"N.	c #D9D8D8",
"O.	c #B6B6B6",
"P.	c #2C2C2C",
"Q.	c #878787",
"R.	c #000000",
"S.	c #969696",
"T.	c #A7A6A6",
"U.	c #A0A09F",
"V.	c #838383",
"W.	c #2C2B2B",
"X.	c #323232",
"Y.	c #ECECEC",
"Z.	c #DADADA",
"`.	c #C7C7C7",
" +	c #464646",
".+	c #4E4E4E",
"++	c #7F7F7F",
"@+	c #E6E6E6",
"#+	c #E4E4E4",
"$+	c #FDFDFD",
"%+	c #0C0D0D",
"&+	c #CBCBCB",
"*+	c #7D7D7D",
"=+	c #F1F1F1",
"-+	c #D6D6D6",
";+	c #D1D1D1",
">+	c #ADADAD",
",+	c #5E5E5E",
"'+	c #111111",
")+	c #3A3A3A",
"!+	c #A1A1A1",
"~+	c #898989",
"{+	c #949494",
"]+	c #0B0B0B",
"^+	c #272727",
"/+	c #BCBCBC",
"(+	c #B7B7B7",
"_+	c #353535",
":+	c #404040",
"<+	c #626262",
"[+	c #424242",
"}+	c #F0F0F0",
"                                                                            ",
"                                                                            ",
"                                                                            ",
"                                                                            ",
"                                                                            ",
"                                                                            ",
"                                                                            ",
"                                                                            ",
"                                        . + @ # $ % & * =                   ",
"                - ; ; > , ' )         ! ~ { ] ^ / ( _ : < [                 ",
"                # } | 1 2 3 4 5     6 7 8 9 ] 0 a b c d e f g               ",
"                h i | j k 3 l m   : n o p q r s < t u v w x y z             ",
"                  A B C D , E F G f F H I | J x K   L M N O + C             ",
"                  7 P Q R S T U V W U X Y | } Z     ` w  .d ..+.@.          ",
"                  #.$.+.( %.D &.*.S =.# -.;.1 *.    z M u >.,.'.&           ",
"                  S ).!.0 ~.Q ; = . {.&.q ].F ^.    V ! /.# (.n 5           ",
"                  Q R _.:.l <.#     f +.[.}.|.1.    2.3.w 4.5.6.*.          ",
"                7.D {.5.8.9.0.a.          W b.L   c.2.d.W #.e.m             ",
"                f.q 7 g.h.i.X &                   : j.S 4.k.R a.            ",
"              l.k.O m.n.j F v                 3.>.b.o.p.q.$.r.s.            ",
"              r.t.C u.(.v.w.x.                y.z.~ T v.q ; G               ",
"            A.B.C.D.n.E.I N                 y.P g.F.).,.&.b.*               ",
"            +.r G.$.H.R I.%                 I.Y D.b.I.!.D.J.                ",
"          K.L.;.' ,.T M.].            h c 6 . w.9 9.N.O.2.                  ",
"          P.i 9 Q.j a i G.y       R.< S.8., D.T.U.,.V.W.                    ",
"          X.I.Y.Z.R `.<.b. +.+` * 5 ++@+v.F.9.#+$+3 O %+                    ",
"            > &+M # *+=+9 #.-+;+k.>+(.m ,+r `.} J X '+                      ",
"            )+w.!+=+F Y 8.>.~+#.B.R h.l &.r n {+( ]+                        ",
"              ^+@ /+-+B ^ ( # D F ~.=.| | Y (+_+                            ",
"                    :+<+r a [+f *+#+}+|.> ,+7.                              ",
"                              s.* *._ P.                                    ",
"                                                                            ",
"                                                                            ",
"                                                                            ",
"                                                                            ",
"                                                                            ",
"                                                                            ",
"                                                                            "};
