/* XPM */
static char * deb_xpm[] = {
"32 32 11 1",
" 	c None",
".	c #FFFFFF",
"+	c #FCA8FC",
"@	c #FC5454",
"#	c #A800A8",
"$	c #FCFCA8",
"%	c #A8FCFC",
"&	c #FC54A8",
"*	c #000054",
"=	c #54A8FC",
"-	c #545454",
"   ............+++...........   ",
"   .........+@@#@@+..........   ",
"   ........+###@++++.........   ",
"   ........@#@+$..$@@+.......   ",
"   .......+#@...%+.&@#@+.....   ",
"   .......@#+...**=.+###+....   ",
"   .......@@$...--+.@@@+$....   ",
"   ......+@@....+%..@@.......   ",
"   ......@#$.........$.......   ",
"   .....$#@..................   ",
"   .....@#+..................   ",
"   ....$#@+..................   ",
"   ....@#@......+......$.....   ",
"   ....@#+......@............   ",
"   ....@@$......+.......+....   ",
"   ....@&...............+....   ",
"   ....#+...............++...   ",
"   ....@+..............$@+...   ",
"   ....@+..............&@$...   ",
"   ....@+.............+@#....   ",
"   ....+@............$@#@....   ",
"   .....@............@##.....   ",
"   .....++..........@#@+.....   ",
"   .....$+.........@##@......   ",
"   ......$...+@@####@+.......   ",
"   .........+#####@@$........   ",
"   .........@##@+++..........   ",
"   .........+@+$.............   ",
"   ....++$++@###@+$+.........   ",
"   ...$@####@@@@####@@.......   ",
"   ....++++@+$.+++++@@.......   ",
"                                "};
