/* XPM */
static char * exec_xpm[] = {
"32 32 12 1",
" 	c None",
".	c #000000",
"+	c #C0C0C0",
"@	c #FFFFFF",
"#	c #DCDCDC",
"$	c #303030",
"%	c #585858",
"&	c #808080",
"*	c #A0A0A4",
"=	c #FFA858",
"-	c #FFDCA8",
";	c #FFFFC0",
"                                ",
"               ...              ",
"              .+@+.             ",
"              .#@#.             ",
"       ...   $.+++.$   ..$      ",
"      .#@+.%.&#@@@#&.%.+@#.     ",
"     .*##**#@+&%%%&+@##*##*.    ",
"     .%+*#@*%%&&*&&%%*@#*+%.    ",
"     .%%+#&%&====-==*%&#+%%.    ",
"      ..#&%*==-=-=--=*%&#..     ",
"      .#*&*==-=----;--*%*#.     ",
"  %...&#&*==---%$%--;-=*&+&...% ",
"  .#@#*#&==-=-%$*$%--;-=&#*#@#. ",
" .+##+*#&=--;-&+ +&-;-;=&@*+@#+.",
" .*###*#*==;-;-&$&-;@;-=*#*###*.",
" .$&&*%+#&=-;-;---@@;;-&+#%*&&$.",
"  .%%%$&++&=-;;;@@@;;-&*@*$%%%. ",
"   .....*#*&=-;;;@;--&+#+.....  ",
"      .&&+#+&*=---=**#@+&&.     ",
"     .%+*&+#@+*&&&*#@#+&*+&.    ",
"     $#@#*&&+####@##+*&*#@#.    ",
"    .##@@#&$%&*###*&%$&##@##$   ",
"    .*##*&%.$$&&&&&$$.%&*##*.   ",
"    .%*&&%.  $+###+$  .%&&*%.   ",
"     .%%..   .&#@@&.   ..%%.    ",
"      ..     .&#@#&.     ..     ",
"              .***.             ",
"              .%%%.             ",
"               ...              ",
"                                ",
"                                ",
"                                "};
