/* XPM */
static char * flfm_xpm[] = {
"64 51 33 1",
" 	c None",
".	c #7492A4",
"+	c #7AAAC1",
"@	c #628599",
"#	c #51778D",
"$	c #6592AC",
"%	c #62A2C6",
"&	c #32424A",
"*	c #5D5B5E",
"=	c #D8D6CD",
"-	c #CFCEC9",
";	c #C6C2C6",
">	c #7A7C7F",
",	c #B1AEAF",
"'	c #959392",
")	c #B6B6B7",
"!	c #B5BEC0",
"~	c #A6A3A3",
"{	c #888688",
"]	c #92A5B1",
"^	c #EDEBE3",
"/	c #FEFEFB",
"(	c #D68C47",
"_	c #F7EDA1",
":	c #E7DA8E",
"<	c #C8B770",
"[	c #DB9146",
"}	c #B6A46A",
"|	c #CA8844",
"1	c #DAC57E",
"2	c #2E2E26",
"3	c #262626",
"4	c #CE8A48",
"                                                                ",
"    .++++@++++++++++++++++++++++++++++++++++++++++++++.++++@    ",
"    +#@@@#.@@@@@@@@@@@@@@@@@@@@@@@@@@@@@@@@@@@@@@@@@@@@@@@.#    ",
"    +@+++@++++++++++++++++++#$%++++++++++++++++++$+++%+$$$.#    ",
"    +$%@@$+%%%%%%%%%%%%%%%%%&#**%%%%%%%%%%%%%%%%%@+%#$%$%#.#    ",
"    +@%###+%%%%%%%%%%%%%%%%%####%%%%%%%%%%%%%%%%%$+%@$%@@#$#    ",
"    @@@@@@$@@@@@@@@@@@@@@@#@#$#@@@@@@@@@@@@@@@@@@#.#@@@#####    ",
"    +.=--------------------------------------------------;>@    ",
"    +.;;,'))!;!;!,;~!;!!;!;!,!!!,!;!;!;!;!;!!;!;!;;;;;;;;)@#    ",
"    +.;;{'''*~;;;).'>>'{,;;;{{>#'>~;;;;;;;;;;;;;;;;;;;;;;)##    ",
"    +.-;~;~~>);;;;',{'''!;;;'){''>~;;;;;;;;;;;;;;;;;;;;;;)@#    ",
"    +.;!~'!;;;;;;~');;;;;;;;~';;;~;;;;;;;;;;;;;;;;;;;;;;;)@#    ",
"    +>{{{{{{{{{{{{{{{{{{{{{{{{{{{{{{{{{{{{{{{{{{{{{{{{{{{>@#    ",
"    +#{~~~~~~~~~~~~~~~~~]~~~~~~~~~~~]~~~~~~~~~~~~~~~~~~~~~!#    ",
"    +*-=^///^^/////^///^////^{///////////////////////////^!#    ",
"    +#;']!;^!~,-,;;'~,;,!!)!~*///////////////////////////^!#    ",
"    +#-,~,)!;;!;{))~{!;;;))){{///////////////////////////^!#    ",
"    +*-//////////////////////,///////////////////////////^!#    ",
"    +#;^^^^^^^^^^^^^^^^^^^^^^^^^^^^^^^^^^^^^^^^^^^^^^^^^^=!#    ",
"    +@;;;;;-;-;-;~(^__:~-;-;;-;-;-;-~(^__^~;-;-;-;-;-;====+#    ",
"    ]@;;;;;;;;;;;~(<^_;);;;;;;;;;;;;~[}_::~;;;;;;;;;;;=!>;]#    ",
"    +@;;;;;;;;;;~:<|1_});;;;;;;;;;;~:<|1_}!;;;;;;;;;;;-'*'+#    ",
"    ]@;;;;;;;;;,11:[1:*,;;;;;;;;;;,11:[<_*~;;;;;;;;!;;!{''.#    ",
"    +@;;;;;;;;!)~<:1[<2!;;;;!;;;;;)~<:1[13);;!;;;;;;;;,'{']#    ",
"    +>;;;;;;;;;;;)'~<{,;;;;;;;;;;;!;;'~<'~;;;;;;;;;;;;,''']#    ",
"    +@;;;;;;;;;;;;;;!,;;;;;;;;;;;;;;;;;!,;;;;;;;;;;;;;)'''+#    ",
"    +@;;!;;;;~)~~)~!~,,'~~';;;!;;;{~,~{){){;;;;!;;;;;;,''']#    ",
"    +>;;;;;!,*~>'{>{>'{]''';;;;;;;'>'>')>{';;;;;;;;;;!!']'+#    ",
"    +@;;;;;;;'~'~~'~'~~~',~;;;;;;;~~,'~)',~;;;;;;;;;;;=--=]#    ",
"    +@;;;;;;;;;;;;;;;;;;;;;;;;;;;;;;;;;;;;;;;;;;;;;;;;=;;;]#    ",
"    ]@;;;;;;;;;;;;;;;;;;;;;;;;;;;;;;;;;;;;;!;;;;;;;;;!=;;!]#    ",
"    +@;;;;;;;;;;;;;;;;;;;!;;;;;;;;;;;;;;;;;;;;;!;;;;;;){>>.#    ",
"    +@;;;;;;;;;;;'{~'!;;;;;;;;;;;;;;;!{',;;;;;;;;;;;;;)''']#    ",
"    +>!;;;;;;;;;;||_:;~~;;;!;;;;;;;;;'/-;)';;;;;;;;;;!)'']]#    ",
"    +@;;;;;;;;;;;~41___{;;;;;;;;;;;;;,,-*_,;;;;;;;;;;;,''']#    ",
"    +@;;;;;;;;;;!~<(:::~;;;;;;;;;;;;~_/]>/];;;;!;;;;;;!,~~+#    ",
"    +>;;;;;;;;;;~:1(1_<);;;;;;;;!;;,1/-;/_';;;;;;;;;;;----]#    ",
"    +@;;;!;;;;;)}:1<[:*>;;!;;;;;;;;{__]=_<&;;;;;;;;;;;-{2']#    ",
"    +@;;;;;;;;;;,~<:<1&);;;;;;;;;!;!'}:/_>';;;;;;;;;;;--';]#    ",
"    +@---!--------;~<};-=----=-=====-=,}<{!))!))))!--=,{{{+#    ",
"    ].;,)'-;;;-;;;;-;-;-;-;-;-;;;;;;;-!->''''''''',-';{;;;]#    ",
"    +.;3~';;;;;;;;;;;!;;!;;;!;;;;;;;!;;!{''''''''',-3~{;;;]@    ",
"    +.;~,'-;;;;;;;;;;;;;;;;;;;;;;;;;;;;;{']''']''',;{!{;;-]#    ",
"    .#***********************************>>>{>>>{>{****]'~]#    ",
"    .>{'~',,~,,,,,~,,~,,,,,~,~~',]~,,,,~~~],'~],],~',~,,,,]@    ",
"    +#'~'>),>''{~'>''{''])!~)>)')*{]~{;'!,{,{{{;*,>#')~;;!!#    ",
"    ]#~>~>,'>''*>~'{{'>>{~';'>~);>{>{>;';''~>{';'>{>';';;!!#    ",
"    +*'!));;!;;);)!););;;;!;;)!;;)!;;!;~!;););!;;;;);~);;!!#    ",
"    +.]]].]]]]]]]]]]]]]]]]]]]]]]]]]]]]]]]]]]]]]]]]]]]].]]+!#    ",
"    @#####@#####@####@######@###@#####@###@###########@#####    ",
"                                                                "};
