/* XPM */
static char * folder_xpm[] = {
"32 32 366 2",
"  	c None",
". 	c #2C2E2B",
"+ 	c #616361",
"@ 	c #333433",
"# 	c #4B504A",
"$ 	c #C5CEC4",
"% 	c #B0B3B0",
"& 	c #747574",
"* 	c #1A1B1A",
"= 	c #000000",
"- 	c #424842",
"; 	c #AEBBAD",
"> 	c #BCC7BA",
", 	c #CFD5CF",
"' 	c #BBBDBB",
") 	c #555356",
"! 	c #0B0C0B",
"~ 	c #121312",
"{ 	c #292C29",
"] 	c #727272",
"^ 	c #C7C7C7",
"/ 	c #444444",
"( 	c #070707",
"_ 	c #4C524C",
": 	c #AAB8A9",
"< 	c #ABB9AA",
"[ 	c #AFBCAE",
"} 	c #BCC7BB",
"| 	c #D2D6D2",
"1 	c #828781",
"2 	c #181B18",
"3 	c #474A47",
"4 	c #DBE0DB",
"5 	c #767676",
"6 	c #0A0A0A",
"7 	c #7D7D7D",
"8 	c #FEFEFE",
"9 	c #ECECEC",
"0 	c #505050",
"a 	c #515751",
"b 	c #8D988B",
"c 	c #A3B0A2",
"d 	c #AAB7A9",
"e 	c #9DAB9C",
"f 	c #475346",
"g 	c #282C27",
"h 	c #3B3F3A",
"i 	c #BBC6BA",
"j 	c #E0E5E0",
"k 	c #7C7D7C",
"l 	c #050505",
"m 	c #757575",
"n 	c #FFFFFF",
"o 	c #F4F4F4",
"p 	c #757775",
"q 	c #687167",
"r 	c #909B8F",
"s 	c #A5B3A4",
"t 	c #9FAD9E",
"u 	c #667365",
"v 	c #525652",
"w 	c #0B0B0B",
"x 	c #363B36",
"y 	c #919D90",
"z 	c #BAC5B9",
"A 	c #D0D8CF",
"B 	c #AAA9AA",
"C 	c #322632",
"D 	c #323232",
"E 	c #C4C3C4",
"F 	c #EDEEED",
"G 	c #A4A6A4",
"H 	c #4E514E",
"I 	c #464C46",
"J 	c #7F897E",
"K 	c #9EAA9D",
"L 	c #BEC4BD",
"M 	c #898A89",
"N 	c #717A70",
"O 	c #B0BDAF",
"P 	c #C0CABF",
"Q 	c #E9E7E9",
"R 	c #B1B1B1",
"S 	c #626262",
"T 	c #AAAAAA",
"U 	c #F8F8F8",
"V 	c #FCFDFC",
"W 	c #F7F8F7",
"X 	c #D3D4D3",
"Y 	c #767976",
"Z 	c #2B2E2B",
"` 	c #697168",
" .	c #9CA99B",
"..	c #B6C2B4",
"+.	c #CCD3CC",
"@.	c #C9CBC8",
"#.	c #484748",
"$.	c #5E665E",
"%.	c #A9B7A8",
"&.	c #B5C1B4",
"*.	c #DBE0DA",
"=.	c #EEEFEE",
"-.	c #898889",
";.	c #656465",
">.	c #DBDCDB",
",.	c #F7F7F7",
"'.	c #FCFCFC",
").	c #F9FAF9",
"!.	c #C3C6C2",
"~.	c #434643",
"{.	c #464B46",
"].	c #7C857A",
"^.	c #A2AFA0",
"/.	c #B8C3B7",
"(.	c #DDE2DD",
"_.	c #B7B8B7",
":.	c #282828",
"<.	c #080808",
"[.	c #474D47",
"}.	c #97A396",
"|.	c #ACBAAB",
"1.	c #C5CFC5",
"2.	c #E5E9E5",
"3.	c #CCC9CD",
"4.	c #6A6B6A",
"5.	c #9D9D9D",
"6.	c #DFDFDF",
"7.	c #FDFDFD",
"8.	c #EBECEB",
"9.	c #8D908D",
"0.	c #3C403C",
"a.	c #5B635A",
"b.	c #8F9B8E",
"c.	c #ADB9AB",
"d.	c #CBD3CA",
"e.	c #C6CAC5",
"f.	c #727472",
"g.	c #181918",
"h.	c #010101",
"i.	c #282B27",
"j.	c #818C81",
"k.	c #B5C2B5",
"l.	c #D2D9D2",
"m.	c #D7D9D7",
"n.	c #838483",
"o.	c #767776",
"p.	c #BEBFBE",
"q.	c #F4F5F4",
"r.	c #B6B9B6",
"s.	c #5F625F",
"t.	c #3D423C",
"u.	c #788277",
"v.	c #A6B4A5",
"w.	c #B7C3B6",
"x.	c #C7CFC6",
"y.	c #909490",
"z.	c #333432",
"A.	c #020302",
"B.	c #181A18",
"C.	c #768076",
"D.	c #AEBCAD",
"E.	c #C6CFC5",
"F.	c #D5D9D5",
"G.	c #B0B0B0",
"H.	c #797A79",
"I.	c #979997",
"J.	c #F0F0F0",
"K.	c #FAFAFA",
"L.	c #DCDDDC",
"M.	c #8B8F8A",
"N.	c #313431",
"O.	c #6F786D",
"P.	c #A0AD9E",
"Q.	c #BDC7BC",
"R.	c #B4B9B3",
"S.	c #626461",
"T.	c #737D73",
"U.	c #CED4CD",
"V.	c #D2D4D1",
"W.	c #888988",
"X.	c #797979",
"Y.	c #C4C6C4",
"Z.	c #F6F6F6",
"`.	c #F5F6F5",
" +	c #BEC2BE",
".+	c #545853",
"++	c #4F554E",
"@+	c #8F9B8D",
"#+	c #A7B5A6",
"$+	c #B5C1B3",
"%+	c #A1A9A0",
"&+	c #373D36",
"*+	c #6A736A",
"=+	c #A8B6A7",
"-+	c #BFCABE",
";+	c #A8A9A8",
">+	c #737373",
",+	c #8A8B8A",
"'+	c #D9D9D9",
")+	c #FAFBFA",
"!+	c #A8ABA8",
"~+	c #383D38",
"{+	c #737C71",
"]+	c #808A7E",
"^+	c #738071",
"/+	c #293028",
"(+	c #4B514A",
"_+	c #9DAA9C",
":+	c #B9C4B8",
"<+	c #CFD6CE",
"[+	c #C3C7C3",
"}+	c #6E726E",
"|+	c #6C6F6C",
"1+	c #B9B9B9",
"2+	c #DEDEDE",
"3+	c #949494",
"4+	c #313531",
"5+	c #666E65",
"6+	c #687067",
"7+	c #95A193",
"8+	c #566354",
"9+	c #141813",
"0+	c #282C28",
"a+	c #B4C0B3",
"b+	c #BAC6BA",
"c+	c #889386",
"d+	c #30372F",
"e+	c #838383",
"f+	c #B8B8B8",
"g+	c #6D6E6D",
"h+	c #2F332F",
"i+	c #676F66",
"j+	c #939F91",
"k+	c #3A4739",
"l+	c #111510",
"m+	c #0E100E",
"n+	c #778075",
"o+	c #808E7E",
"p+	c #252C24",
"q+	c #717171",
"r+	c #B3B3B3",
"s+	c #4C4C4C",
"t+	c #323631",
"u+	c #727B71",
"v+	c #8C9A8B",
"w+	c #273126",
"x+	c #181B17",
"y+	c #222722",
"z+	c #778276",
"A+	c #8B9A89",
"B+	c #353D34",
"C+	c #575857",
"D+	c #B2B2B2",
"E+	c #454545",
"F+	c #363A36",
"G+	c #889286",
"H+	c #677565",
"I+	c #1C211B",
"J+	c #2D352D",
"K+	c #727E71",
"L+	c #A0AE9F",
"M+	c #8E9D8C",
"N+	c #455043",
"O+	c #383A38",
"P+	c #A7A7A7",
"Q+	c #373837",
"R+	c #3D413C",
"S+	c #929E90",
"T+	c #455343",
"U+	c #151A15",
"V+	c #30382F",
"W+	c #667164",
"X+	c #98A596",
"Y+	c #909F8F",
"Z+	c #4B5749",
"`+	c #242724",
" @	c #8E8E8E",
".@	c #262825",
"+@	c #70786F",
"@@	c #818E7F",
"#@	c #3A4538",
"$@	c #242923",
"%@	c #535E52",
"&@	c #92A090",
"*@	c #919F8F",
"=@	c #4F5C4D",
"-@	c #282B28",
";@	c #242623",
">@	c #637161",
",@	c #232922",
"'@	c #181C18",
")@	c #3A4439",
"!@	c #849282",
"~@	c #96A494",
"{@	c #546052",
"]@	c #262A25",
"^@	c #6A6A6A",
"/@	c #212321",
"(@	c #656D64",
"_@	c #727D71",
":@	c #455144",
"<@	c #0C0F0C",
"[@	c #2D362C",
"}@	c #6F7D6C",
"|@	c #99A798",
"1@	c #9AA999",
"2@	c #576355",
"3@	c #202320",
"4@	c #232623",
"5@	c #677066",
"6@	c #5D695B",
"7@	c #283026",
"8@	c #020202",
"9@	c #2A3129",
"0@	c #556353",
"a@	c #859483",
"b@	c #A1AF9F",
"c@	c #9EAC9C",
"d@	c #606E5E",
"e@	c #313A30",
"f@	c #080908",
"g@	c #2F322E",
"h@	c #636C62",
"i@	c #3E473C",
"j@	c #0B0E0A",
"k@	c #272F26",
"l@	c #495648",
"m@	c #6C7C6A",
"n@	c #A1B0A0",
"o@	c #6A7968",
"p@	c #353F34",
"q@	c #4D554C",
"r@	c #171B16",
"s@	c #2C332B",
"t@	c #3B463A",
"u@	c #596957",
"v@	c #738372",
"w@	c #9DAB9B",
"x@	c #A2B0A1",
"y@	c #6C7C6B",
"z@	c #404B3F",
"A@	c #444A43",
"B@	c #282F27",
"C@	c #030403",
"D@	c #2A2F29",
"E@	c #4D5C4B",
"F@	c #61705F",
"G@	c #81907F",
"H@	c #667764",
"I@	c #525D50",
"J@	c #3D443C",
"K@	c #0F130F",
"L@	c #2E342D",
"M@	c #3D483B",
"N@	c #505F4D",
"O@	c #4A5948",
"P@	c #505A4F",
"Q@	c #232723",
"R@	c #191E18",
"S@	c #3C443B",
"T@	c #404A3E",
"U@	c #2F392D",
"V@	c #212620",
"W@	c #151715",
"X@	c #131512",
"Y@	c #010201",
"                                                                ",
"                      . + @                                     ",
"                      # $ % & *                                 ",
"              =       - ; > , ' ) !                             ",
"  ~ {         ] ^ / ( _ : < [ } | 1 2                           ",
"  3 4 5 6     7 8 9 0 a b c d < e f g                           ",
"  h i j k l = m 8 n o p # q r s t u v w                         ",
"  x y z A B C D E 8 8 F G H I J e K L M * =                     ",
"    N < O P Q R S T U V W X Y Z `  ...+.@.#.= =                 ",
"    $.%.< < &.*.=.-.;.>.,.'.).!.~.{.].^./.(._.:.<.              ",
"    [.}.< < < |.1.2.3.4.5.6.8 7.8.9.0.a.b.c.d.e.f.g.h.          ",
"    i.j.< < < < < k.l.m.n.o.p.U 8 q.r.s.t.u.v.w.x.y.z.A.        ",
"    B.C.< < < < < < D.E.F.G.H.I.J.8 K.L.M.N.O.P.[ Q.R.S.w       ",
"      T.< < < < < < < |.&.U.V.W.X.Y.Z.8 `. +.+++@+#+$+%+&+      ",
"      *+=+< < < < < < < < ; -+*.;+>+,+'+Z.)+!+~+{+]+^.^+/+      ",
"      (+_+< < < < < < < < < ; :+<+[+}+|+1+2+3+4+5+6+7+8+9+      ",
"      0+b < < < < < < < < < < < a+b+c+d+e+f+g+h+i+i+j+k+l+      ",
"      m+n+%.< < < < < < < < < < < |.o+p+q+r+s+t+i+u+v+w+x+      ",
"        y+z+v.< < < < < < < < < < < A+B+C+D+E+F+i+G+H+I+        ",
"          J+K+L+< < < < < < < < < < M+N+O+P+Q+R+` S+T+U+        ",
"            V+W+X+: < < < < < < < < Y+Z+`+ @.@(++@@@#@m+        ",
"              $@%@&@: < < < < < < < *@=@-@>+;@a.n+>@,@          ",
"                '@)@!@%.< < < < < < ~@{@]@^@/@(@_@:@<@          ",
"                    [@}@|@=+< < < < 1@2@d+3@4@5@6@7@8@=         ",
"                      9@0@a@b@: < < c@d@e@f@g@h@i@j@= = = =     ",
"                        k@l@m@A+=+< n@o@p@f@F+q@r@h.= = = = =   ",
"                          s@t@u@v@w@x@y@z@m+A@B@C@= = = = =     ",
"                            D@V+E@F@G@H@I@B.J@K@= = = = =       ",
"                                L@M@N@O@P@Q@R@8@= = = =         ",
"                                  S@T@U@V@W@f@= = =             ",
"                                      X@Y@= = =                 ",
"                                                                "};
