/* XPM */
static char * gz_xpm[] = {
"29 32 17 1",
" 	c None",
".	c #050506",
"+	c #81887E",
"@	c #43473F",
"#	c #C3C8C3",
"$	c #62685F",
"%	c #9CA59B",
"&	c #272824",
"*	c #909B92",
"=	c #71796C",
"-	c #E9EAE8",
";	c #B4B9B0",
">	c #D5D7D6",
",	c #373931",
"'	c #53584F",
")	c #F7F8F7",
"!	c #171816",
"              +              ",
"            '$;*+!....       ",
"            $##**&...        ",
"        ....'%;**.           ",
"            .&,&!            ",
"             ,'@,            ",
"             =#+'            ",
"        &&&!!$;$&            ",
"       @$;;;'&@&..           ",
"       +'!!&>>%*+*+&         ",
"      !'&   **++=%%*&.       ",
"      &,!   =;$&.=%%*'.      ",
"     .$,.    !@!!  .**$.     ",
"     .',.    =;$!   .==.     ",
"     .$,.   &&'!!   .@=!     ",
"     .',..!,;#+$$..! .'.     ",
"     .'&.&,*>;==$,&,&.'.     ",
"     .&*)*&'*%==$@@@)@@&,&&. ",
"    ..+-;>+@!!,,&&'+-.,'$,&& ",
"    .''-)*%#%+''$>))$&,,&!,, ",
"  *+!*-)-++-)>+*#)-$@.,&&,!  ",
" =*%*@.;))>%;>))>)'@$'@&,!!  ",
" =@@%%*!.;-)>*+>-$,,*@,&&.   ",
" %***%==++$@!,--@@'*&&&!.    ",
" ,+%***$'$**',&@&$*=,,&.     ",
"    !'+%**%+,@%%%=,@,@       ",
"      !=%**%*+@@=&,@@!       ",
"        ,******+@,@@&.       ",
"           ,+%**%,@,         ",
"             ,%*%',!         ",
"              @'*',          ",
"                             "};
