/* XPM */
static char * html_xpm[] = {
"31 32 17 1",
" 	c None",
".	c #030305",
"+	c #5386B6",
"@	c #CAC8BE",
"#	c #30516E",
"$	c #989890",
"%	c #497299",
"&	c #E8E7DD",
"*	c #AAACA8",
"=	c #6F7272",
"-	c #293944",
";	c #838884",
">	c #505355",
",	c #B8B6AD",
"'	c #7C9CAA",
")	c #D8D8CF",
"!	c #FCFCF4",
"                  ..           ",
"                ..;;.          ",
"               .;**$.          ",
"          ...-;,,,**>          ",
"      ....;$,,,,*,**$.         ",
"     );;$*,,,,,*,****;         ",
"    .&==;$**,,***,***,.        ",
"   .$)@>=$*****$******;        ",
"   .)&)>=$$$=====;$$**,.       ",
"  .*&>>>=;=+''$;;==$$**;       ",
"  .=>>>==%'&&)'*,,$=;$*,.      ",
"  .-;=;=='&!!!&@&@,;>;$,;.     ",
"   .;;;=%@!!!!!@)@$$==;**-     ",
"   .,$$=+*@)&!&@,&$>=>;$,;     ",
"   .,,*%+++',*,@*$>->>=$*,     ",
"   .,,,%%+++@,,,,=-->-=;,,.    ",
"   .>),=%%%')@*>#-----=;,@,.   ",
"    .)@'#%#=)@*>#---->>$*@@*.  ",
"    .&)*%###&,$>#---->=$,@@,-  ",
".................---->;*@@@@*. ",
"..!.!!!!.!.!.!...#-->=$@@)@@@$.",
"..!.!.!..!!!.!...-->=$,@)@@@@$.",
"..!!!.!..!.!.!...>>=$,@)))@$.. ",
"..!.!.!..!.!.!...=;$,@))))..   ",
"..!.!.!..!.!.!!..*,@))))*....  ",
".................))&&)*....... ",
"     .,!!!!!!!&&&&&@$......    ",
"      .!!!!!!!!$......         ",
"      .@!!!!)*-....            ",
"       -!&,;....               ",
"       .......                 ",
"        ..                     "};
