/* XPM */
static char * image_xpm[] = {
"32 24 160 2",
"  	c None",
". 	c None",
"+ 	c #A89193",
"@ 	c #D7B68E",
"# 	c #D2B28E",
"$ 	c #AD9493",
"% 	c #D4B48E",
"& 	c #B09692",
"* 	c #AC92A4",
"= 	c #0000FF",
"- 	c #1512F3",
"; 	c #D5B48E",
"> 	c #895675",
", 	c #B2A9B0",
"' 	c #9A899A",
") 	c #BBA091",
"! 	c #E76C54",
"~ 	c #FF0000",
"{ 	c #F42E24",
"] 	c #110EF5",
"^ 	c #D5B58E",
"/ 	c #040404",
"( 	c #80506D",
"_ 	c #AFA4AC",
": 	c #9C8C9C",
"< 	c #BEA290",
"[ 	c #B79B9E",
"} 	c #0D0C0D",
"| 	c #784B66",
"1 	c #AD9FA9",
"2 	c #9E8E9E",
"3 	c #C2A590",
"4 	c #D6B58E",
"5 	c #1F1B1F",
"6 	c #684158",
"7 	c #A995A2",
"8 	c #E3E243",
"9 	c #FFFF00",
"0 	c #EBDB45",
"a 	c #BCBE7C",
"b 	c #00FF00",
"c 	c #05FD03",
"d 	c #272227",
"e 	c #603C52",
"f 	c #A7919F",
"g 	c #E0DE4C",
"h 	c #C5A890",
"i 	c #A97B80",
"j 	c #8E5979",
"k 	c #A38899",
"l 	c #C6B3A2",
"m 	c #8F776C",
"n 	c #C3A482",
"o 	c #4F4334",
"p 	c #523346",
"q 	c #A18496",
"r 	c #C4B3A4",
"s 	c #7E7A72",
"t 	c #B9A387",
"u 	c #5A4C3B",
"v 	c #4B2F40",
"w 	c #9F8094",
"x 	c #C3B3A5",
"y 	c #C9AB8F",
"z 	c #968F7F",
"A 	c #797D79",
"B 	c #A1A2A1",
"C 	c #BEBEBE",
"D 	c #616161",
"E 	c #3F2735",
"F 	c #9C798F",
"G 	c #C0B3A8",
"H 	c #DBAD9E",
"I 	c #EF82EF",
"J 	c #ED85E8",
"K 	c #D5B48C",
"L 	c #8E7561",
"M 	c #9B9280",
"N 	c #9D9F9D",
"O 	c #696969",
"P 	c #392330",
"Q 	c #9B768C",
"R 	c #BFB3AA",
"S 	c #DBABA1",
"T 	c #D4B38C",
"U 	c #8E7562",
"V 	c #A09481",
"W 	c #A69883",
"X 	c #806C54",
"Y 	c #33202C",
"Z 	c #99728A",
"` 	c #BEB3AB",
" .	c #A99A83",
"..	c #4CACA9",
"+.	c #00ABAB",
"@.	c #4A4A4A",
"#.	c #FFFFFF",
"$.	c #F7F6F7",
"%.	c #DDD3CE",
"&.	c #D2B18B",
"*.	c #8E7563",
"=.	c #B19F85",
"-.	c #51A7A4",
";.	c #40F4F5",
">.	c #E7E4E7",
",.	c #F8F7F8",
"'.	c #DDD4D1",
").	c #393025",
"!.	c #000000",
"~.	c #685845",
"{.	c #B8A387",
"].	c #599E9B",
"^.	c #32F6F7",
"/.	c #E5E2E5",
"(.	c #FAF9FA",
"_.	c #DED6D5",
":.	c #CFAF89",
"<.	c #8E7665",
"[.	c #2D261D",
"}.	c #BBA587",
"|.	c #5D605D",
"1.	c #2C2B2C",
"2.	c #E4E1E4",
"3.	c #FBFAFB",
"4.	c #DBD8DB",
"5.	c #B7B8B9",
"6.	c #717586",
"7.	c #727586",
"8.	c #C1A989",
"9.	c #616461",
"0.	c #252525",
"a.	c #E3E0E3",
"b.	c #ECEDEC",
"c.	c #515551",
"d.	c #B8B4B8",
"e.	c #DCD8DC",
"f.	c #B4B0B4",
"g.	c #C6A783",
"h.	c #8F776A",
"i.	c #806F80",
"j.	c #0D0E10",
"k.	c #6C707F",
"l.	c #494D49",
"m.	c #4E524E",
"n.	c #D0AF89",
"o.	c #BFA07F",
"p.	c #8F776B",
"q.	c #8E7C8E",
"r.	c #505350",
"s.	c #B2AEB3",
"t.	c #747889",
"u.	c #C7A884",
"v.	c #AC9073",
"w.	c #90786E",
"x.	c #4A4E4B",
"y.	c #8F7D8F",
"z.	c #4A4E4C",
"A.	c #6F7384",
"B.	c #4A4D4A",
"C.	c #4A4E4A",
". . . . . . . . . . . . . . + @ @ @ @ @ @ @ @ # . . . . . . . . ",
". . . . . . . . . . . . $ @ @ @ @ @ @ @ @ @ @ @ @ % . . . . . . ",
". . . . . . . . . . . & @ @ @ @ @ * = = = - @ @ @ @ ; . . . . . ",
"> , ' . . . . ) @ @ @ ! ~ ~ ~ { @ * = = = = ] @ @ @ @ ^ . . . . ",
"/ ( _ : . . < @ @ @ @ ! ~ ~ ~ { @ @ @ [ = - @ @ @ @ @ ^ . . . . ",
". } | 1 2 3 @ @ @ @ @ @ @ @ @ @ @ @ @ @ @ @ @ @ @ @ @ @ 4 . . . ",
". . . 5 6 7 8 9 9 0 @ @ @ @ @ @ @ @ @ @ a b b b b b c @ 4 . . . ",
". . . . d e f g 9 0 @ @ @ @ @ @ @ @ @ @ a b b b b b c @ 4 . . . ",
". . . . h @ i j k l @ @ @ @ @ @ @ @ @ @ @ @ @ @ @ @ @ @ 4 . . . ",
". . . m n @ o p j q r @ @ @ @ @ @ @ @ @ @ @ @ @ @ @ @ ^ . . . . ",
". . . m s t @ u v j w x @ @ @ @ @ @ @ @ @ @ @ @ @ @ @ ^ . . . . ",
". . . y @ z A B C D E j F G @ @ @ @ H I I I I J @ @ K L . . . . ",
". . . m n @ M A N C O P j Q R @ @ S I I I I I J @ T U . . . . . ",
". . . m n @ @ V A W @ X Y j Z ` @ S I I I I I J @ T U . . . . . ",
". . . . h @ @ @ @  .A A ..+.@.#.$.%.@ @ @ @ @ &.*.. . . . . . . ",
". . . y @ @ @ @ @ @ @ =.A -.;.>.#.,.'.@ @ @ @ &.*.. . . . . . . ",
"% @ @ @ ).!.!.!.!.~.@ @ @ {.A ].^./.#.(._.:.<.. . . . . . . . . ",
"% @ @ [.!.!.!.!.!.~.@ @ @ @ }.A |.1.2.#.3.4.5.6.6.7.. . . . . . ",
"T @ @ @ ).!.!.!.!.~.@ @ @ @ @ @ 8.9.0.a.#.b.c.d.e.f.. . . . . . ",
"T @ @ @ @ @ @ @ @ @ @ @ @ @ @ @ g.L h.i.j.k.l.l.l.m.e.6.. . . . ",
"L n.@ @ @ @ @ @ @ @ @ @ @ o.L L L p.. . . q.l.r.s.t.e.6.. . . . ",
". <.L u.@ @ @ v.L L L L L L L w.. . . . . q.l.l.l.x.6.6.. . . . ",
". . . . . . . . . . . . . . . . . . . . . . y.l.z.6.A.B.. . . . ",
". . . . . . . . . . . . . . . . . . . . . . y.l.l.l.C.. . . . . "};
