/* XPM */
static char * link_xpm[] = {
"38 38 298 2",
"  	c None",
". 	c #EE2913",
"+ 	c #CA2311",
"@ 	c #9C1B0E",
"# 	c #F32913",
"$ 	c #CD2411",
"% 	c #A81D0E",
"& 	c #9D1B0E",
"* 	c #74150A",
"= 	c #D92611",
"- 	c #AC1E0F",
"; 	c #A6200E",
"> 	c #A4200E",
", 	c #91190D",
"' 	c #E22712",
") 	c #B8200F",
"! 	c #A6230E",
"~ 	c #B44710",
"{ 	c #AC330F",
"] 	c #9D1C0F",
"^ 	c #74140B",
"/ 	c #EA2813",
"( 	c #C52211",
"_ 	c #A71D0E",
": 	c #AE350F",
"< 	c #D69911",
"[ 	c #B64D10",
"} 	c #A21D0F",
"| 	c #921A0E",
"1 	c #5B1009",
"2 	c #D52512",
"3 	c #A7240E",
"4 	c #DCA512",
"5 	c #DFB112",
"6 	c #D59513",
"7 	c #AA2E10",
"8 	c #9C1C10",
"9 	c #7A160C",
"0 	c #E42712",
"a 	c #B41F0F",
"b 	c #A41C0E",
"c 	c #C56C11",
"d 	c #DCAE11",
"e 	c #D7AB11",
"f 	c #DEB012",
"g 	c #B75211",
"h 	c #A11D10",
"i 	c #901A0F",
"j 	c #561009",
"k 	c #F02914",
"l 	c #A51C0E",
"m 	c #B23E0F",
"n 	c #CC9310",
"o 	c #644F08",
"p 	c #6E5708",
"q 	c #BE9310",
"r 	c #D69913",
"s 	c #A21D10",
"t 	c #77160C",
"u 	c #DC2612",
"v 	c #AB1D0F",
"w 	c #C46D10",
"x 	c #9D7B0C",
"y 	c #080500",
"z 	c #120E01",
"A 	c #91710C",
"B 	c #DDA913",
"C 	c #BA5912",
"D 	c #A01D11",
"E 	c #4E0F09",
"F 	c #E62813",
"G 	c #BD2111",
"H 	c #A61F0E",
"I 	c #BE5D10",
"J 	c #DEAF12",
"K 	c #534206",
"L 	c #030100",
"M 	c #0C0900",
"N 	c #95730C",
"O 	c #DEAC13",
"P 	c #CF8B14",
"Q 	c #A52711",
"R 	c #9E1E12",
"S 	c #78160E",
"T 	c #D02412",
"U 	c #AA1D0F",
"V 	c #AC310F",
"W 	c #DAA113",
"X 	c #4C3C05",
"Y 	c #030200",
"Z 	c #1D1602",
"` 	c #9D7A0E",
" .	c #DCAB15",
"..	c #DAA515",
"+.	c #BB5E13",
"@.	c #9F1E12",
"#.	c #921C11",
"$.	c #53100A",
"%.	c #DF2713",
"&.	c #B61F10",
"*.	c #C26911",
"=.	c #DFAF12",
"-.	c #5F4A07",
";.	c #0A0801",
">.	c #392C04",
",.	c #A37E0F",
"'.	c #CC8614",
").	c #A93212",
"!.	c #9B1E12",
"~.	c #72160E",
"{.	c #CC2412",
"].	c #A71D0F",
"^.	c #A31D0F",
"/.	c #DAA512",
"(.	c #DEAE13",
"_.	c #4E3C06",
":.	c #342804",
"<.	c #A27E0F",
"[.	c #DBAA16",
"}.	c #DAA716",
"|.	c #B34A13",
"1.	c #9E1E13",
"2.	c #861910",
"3.	c #460D08",
"4.	c #DF2714",
"5.	c #AE1E0F",
"6.	c #A8290F",
"7.	c #D39212",
"8.	c #352904",
"9.	c #060500",
"0.	c #171201",
"a.	c #98760E",
"b.	c #D39716",
"c.	c #A52C13",
"d.	c #971D12",
"e.	c #6B140D",
"f.	c #EC2915",
"g.	c #C62212",
"h.	c #BF6011",
"i.	c #DDAB12",
"j.	c #322704",
"k.	c #0F0C01",
"l.	c #1F1802",
"m.	c #A17D10",
"n.	c #DAAA17",
"o.	c #B55214",
"p.	c #9D1E14",
"q.	c #821911",
"r.	c #410D09",
"s.	c #AE1F10",
"t.	c #AC3410",
"u.	c #D08D12",
"v.	c #DDAC14",
"w.	c #4B3B07",
"x.	c #312604",
"y.	c #332704",
"z.	c #AF8811",
"A.	c #D09317",
"B.	c #9E1E14",
"C.	c #911C13",
"D.	c #59110C",
"E.	c #E92915",
"F.	c #C82312",
"G.	c #A51E0F",
"H.	c #B74F10",
"I.	c #DDAC13",
"J.	c #B38B11",
"K.	c #5D4808",
"L.	c #6B530A",
"M.	c #CEA015",
"N.	c #D9A918",
"O.	c #D6A519",
"P.	c #B95C16",
"Q.	c #9B1E14",
"R.	c #771810",
"S.	c #DA2613",
"T.	c #AF1F10",
"U.	c #A92C0F",
"V.	c #D79E13",
"W.	c #D9A815",
"X.	c #AD8711",
"Y.	c #BE9313",
"Z.	c #D9A816",
"`.	c #D8A918",
" +	c #D8A919",
".+	c #C98618",
"++	c #A02815",
"@+	c #901D13",
"#+	c #50100B",
"$+	c #E52915",
"%+	c #C62312",
"&+	c #A61E0F",
"*+	c #BA5711",
"=+	c #A07C0F",
"-+	c #151002",
";+	c #4C3B07",
">+	c #C29714",
",+	c #D29919",
"'+	c #B14A16",
")+	c #991F15",
"!+	c #6A150F",
"~+	c #DE2714",
"{+	c #B12011",
"]+	c #D59812",
"^+	c #614B09",
"/+	c #040300",
"(+	c #332705",
"_+	c #B28B13",
":+	c #D7A81A",
"<+	c #D6A51A",
"[+	c #B85E17",
"}+	c #9C1F16",
"|+	c #811A13",
"1+	c #380C09",
"2+	c #CA2413",
"3+	c #A41D0F",
"4+	c #B85312",
"5+	c #D89D13",
"6+	c #D8A014",
"7+	c #D79F15",
"8+	c #D9A415",
"9+	c #DAA615",
"0+	c #B88F12",
"a+	c #463707",
"b+	c #99780F",
"c+	c #D4A616",
"d+	c #C98718",
"e+	c #A63616",
"f+	c #911D15",
"g+	c #51100C",
"h+	c #DB2715",
"i+	c #A11D11",
"j+	c #B24A13",
"k+	c #B95B13",
"l+	c #BD6713",
"m+	c #C77C15",
"n+	c #CA8216",
"o+	c #C88117",
"p+	c #C88118",
"q+	c #C78118",
"r+	c #C78119",
"s+	c #C78019",
"t+	c #C07018",
"u+	c #AC4416",
"v+	c #972016",
"w+	c #6A1510",
"x+	c #A81E10",
"y+	c #80170C",
"z+	c #87180D",
"A+	c #8C190E",
"B+	c #941A0F",
"C+	c #971B10",
"D+	c #9D1D11",
"E+	c #9F1D11",
"F+	c #A01E12",
"G+	c #9F1E13",
"H+	c #9D1F15",
"I+	c #9A1F17",
"J+	c #7D1913",
"K+	c #380C08",
"L+	c #220704",
"M+	c #280805",
"N+	c #370A06",
"O+	c #490E08",
"P+	c #581009",
"Q+	c #64130B",
"R+	c #6F150D",
"S+	c #74160D",
"T+	c #7E180E",
"U+	c #80180F",
"V+	c #8A1A11",
"W+	c #8F1B12",
"X+	c #8E1B12",
"Y+	c #8D1C13",
"Z+	c #8C1C14",
"`+	c #8C1C15",
" @	c #871B14",
".@	c #6F1611",
"+@	c #340B08",
"@@	c #030202",
"#@	c #050202",
"$@	c #070302",
"%@	c #080303",
"&@	c #090303",
"*@	c #0A0303",
"=@	c #0C0403",
"-@	c #1B0604",
";@	c #250805",
">@	c #2D0906",
",@	c #400D08",
"'@	c #3E0C08",
")@	c #3D0C08",
"!@	c #3D0C09",
"~@	c #3C0C09",
"{@	c #390C09",
"]@	c #290907",
"^@	c #110504",
"/@	c #020202",
"                                                                            ",
"                                                                            ",
"                                                                            ",
"                                                                            ",
"                                                                            ",
"                                                                            ",
"                                      . + @                                 ",
"                                    # $ % & *                               ",
"                                    = - ; > ,                               ",
"                                  ' ) ! ~ { ] ^                             ",
"                                / ( _ : < [ } | 1                           ",
"                                2 - 3 4 5 6 7 8 9                           ",
"                              0 a b c d e f g h i j                         ",
"                            k ( l m n o p q r s 8 t                         ",
"                            u v b w x y z A B C D i E                       ",
"                          F G H I J K L M N O P Q R S                       ",
"                          T U V W 5 X Y Z `  ...+.@.#.$.                    ",
"                        %.&.b *.5 =.-.;.>.,. . .'.).!.~.                    ",
"                        {.].^./.5 (._.;.:.<. .[.}.|.1.2.3.                  ",
"                      4.5.6.7.5 (.O 8.9.0.a.[.[.[.b.c.d.e.                  ",
"                    f.g.^.h.i.=.O O j.k.l.m.[.[.n.n.o.p.q.r.                ",
"                    4.s.t.u.=.O O v.w.x.y.z.[.n.n.n.A.B.C.D.                ",
"                  E.F.G.H.I.O O v. .J.K.L.M.[.n.n.N.O.P.Q.R.                ",
"                  S.T.U.V.(.O v. . .W.X.Y.Z.n.n.n.`. +.+++@+#+              ",
"                $+%+&+*+(.O O  . . .=+-+;+>+n.n.N. + +,+'+)+!+              ",
"                ~+{+^.]+O O v. . .[.^+/+(+_+n.`. + +:+<+[+}+|+1+            ",
"                2+3+4+5+W 6+7+8+9+}.0+a+b+c+N. + +:+:+:+d+e+f+g+            ",
"              h+{+s s s i+i+i+j+k+l+m+n+n+o+p+p+q+r+r+s+t+u+v+w+            ",
"              x+y+z+A+B+C+D+E+F+F+F+G+G+G+B.B.H+H+H+H+}+}+}+I+J+K+          ",
"                L+M+N+O+P+Q+R+S+T+U+U+V+W+X+X+Y+Y+Y+Z+Z+Z+`+ @.@+@          ",
"                  @@#@$@%@&@*@=@-@;@;@>@,@'@'@)@)@!@!@~@~@~@{@]@^@          ",
"                            /@/@/@/@/@/@/@/@/@/@/@/@/@/@/@/@/@/@/@          ",
"                                                                            ",
"                                                                            ",
"                                                                            ",
"                                                                            ",
"                                                                            ",
"                                                                            "};
