/* XPM */
static char * mblock_xpm[] = {
"16 13 142 2",
"  	c None",
". 	c #868C85",
"+ 	c #828982",
"@ 	c #798078",
"# 	c #737A72",
"$ 	c #6A726A",
"% 	c #6A7269",
"& 	c #545C54",
"* 	c #818880",
"= 	c #979E96",
"- 	c #B0B8AF",
"; 	c #9CA69B",
"> 	c #8E998C",
", 	c #7A8479",
"' 	c #747E74",
") 	c #859084",
"! 	c #596058",
"~ 	c #AFB2AE",
"{ 	c #CBD0CB",
"] 	c #B1B9B0",
"^ 	c #A2A8A1",
"/ 	c #888E88",
"( 	c #686F68",
"_ 	c #7C867B",
": 	c #8E9A8E",
"< 	c #919C90",
"[ 	c #828C81",
"} 	c #383D38",
"| 	c #ABB0AB",
"1 	c #CED2CD",
"2 	c #C7CDC7",
"3 	c #C8CEC7",
"4 	c #989B98",
"5 	c #757D74",
"6 	c #70776F",
"7 	c #3B3F3A",
"8 	c #AEB6AE",
"9 	c #BEC5BE",
"0 	c #C4CAC4",
"a 	c #A1A8A1",
"b 	c #3F443F",
"c 	c #A7AEA7",
"d 	c #9FA99E",
"e 	c #9AA499",
"f 	c #9DA79C",
"g 	c #818780",
"h 	c #404440",
"i 	c #3C413C",
"j 	c #666C66",
"k 	c #B5BCB4",
"l 	c #CCD1CC",
"m 	c #6E746D",
"n 	c #424842",
"o 	c #5F6F60",
"p 	c #727971",
"q 	c #8A9689",
"r 	c #7C867A",
"s 	c #686F64",
"t 	c #3A3C34",
"u 	c #47463A",
"v 	c #6E766E",
"w 	c #949E92",
"x 	c #96A196",
"y 	c #80887F",
"z 	c #4F544E",
"A 	c #434942",
"B 	c #3F443E",
"C 	c #343E35",
"D 	c #7B927E",
"E 	c #768877",
"F 	c #676C5E",
"G 	c #8B8562",
"H 	c #7E7858",
"I 	c #6E6648",
"J 	c #54503C",
"K 	c #3F4036",
"L 	c #636A62",
"M 	c #747E73",
"N 	c #525952",
"O 	c #676E66",
"P 	c #515750",
"Q 	c #484E47",
"R 	c #484E46",
"S 	c #080A08",
"T 	c #333E36",
"U 	c #313E36",
"V 	c #2A302A",
"W 	c #2D2E28",
"X 	c #272924",
"Y 	c #2C302C",
"Z 	c #4E564E",
"` 	c #515851",
" .	c #5D645C",
"..	c #5E665D",
"+.	c #535A52",
"@.	c #4A504A",
"#.	c #3E443C",
"$.	c #060706",
"%.	c #405044",
"&.	c #2E473D",
"*.	c #212E28",
"=.	c #121312",
"-.	c #444A44",
";.	c #555C54",
">.	c #596158",
",.	c #4E554E",
"'.	c #585F57",
").	c #606860",
"!.	c #545B54",
"~.	c #686F67",
"{.	c #464B46",
"].	c #3E4C42",
"^.	c #3A584C",
"/.	c #202F29",
"(.	c #0B0C0B",
"_.	c #363B36",
":.	c #474D46",
"<.	c #50574F",
"[.	c #5C645C",
"}.	c #565D55",
"|.	c #5A6158",
"1.	c #5F675E",
"2.	c #494F48",
"3.	c #313C34",
"4.	c #406051",
"5.	c #1F322C",
"6.	c #0D110F",
"7.	c #1A1C1A",
"8.	c #4A5049",
"9.	c #5C635B",
"0.	c #666F66",
"a.	c #50564F",
"b.	c #37443A",
"c.	c #3B584C",
"d.	c #243C33",
"e.	c #15201B",
"f.	c #020302",
"g.	c #343834",
"h.	c #2E322E",
"i.	c #2E3E36",
"j.	c #1E2A24",
"k.	c #1A201B",
"            . + @ # $ % &       ",
"        * = - ; > , ' , ) !     ",
"      ~ { ] - ^ / ( _ : < [ }   ",
"    | 1 2 3 4 5 6 7 8 9 0 a b   ",
"    c d e f g h i j k 3 l m n   ",
"  o p q ) r s t u v w x y z A B ",
"C D E F G H I J K L M N O P Q R ",
"S T U V W X Y B Z `  ...+.( @.#.",
"$.%.&.*.=.@.-.;.>.,.'.).!.~.{.  ",
"  ].^./.(._.:.<.[.}.+.|.1.2.    ",
"  3.4.5.6.7.,.8.9.0.a.7         ",
"  b.c.d.e.f.g.h.Y               ",
"    i.j.k.                      "};
