/* XPM */
static char * mcharacter_xpm[] = {
"16 16 61 1",
" 	c None",
".	c #959595",
"+	c #656565",
"@	c #121212",
"#	c #737373",
"$	c #D3D3D3",
"%	c #CDCDCD",
"&	c #747474",
"*	c #ADADAD",
"=	c #C2C2C2",
"-	c #6F6F6F",
";	c #3F3F3F",
">	c #343434",
",	c #9E9E9E",
"'	c #A6A6A6",
")	c #7C7C7C",
"!	c #BBBBBB",
"~	c #B5B5B5",
"{	c #3C3C3C",
"]	c #5A5A5A",
"^	c #434343",
"/	c #B9B9B9",
"(	c #7B7B7B",
"_	c #A1A1A1",
":	c #929292",
"<	c #393939",
"[	c #717171",
"}	c #4E4E4E",
"|	c #686868",
"1	c #B0B0B0",
"2	c #D0D0D0",
"3	c #636363",
"4	c #4F4F4F",
"5	c #9F9F9F",
"6	c #787878",
"7	c #878787",
"8	c #989898",
"9	c #757575",
"0	c #565656",
"a	c #8F8F8F",
"b	c #919191",
"c	c #969696",
"d	c #A9A9A9",
"e	c #B6B6B6",
"f	c #555555",
"g	c #B4B4B4",
"h	c #B7B7B7",
"i	c #6B6B6B",
"j	c #333333",
"k	c #A5A5A5",
"l	c #AFAFAF",
"m	c #515151",
"n	c #8E8E8E",
"o	c #CBCBCB",
"p	c #9B9B9B",
"q	c #A8A8A8",
"r	c #C1C1C1",
"s	c #A7A7A7",
"t	c #797979",
"u	c #949494",
"v	c #4B4B4B",
"                ",
"                ",
"                ",
"         .+@    ",
"   #$%& *=-;>   ",
"    ,,')!~ {]^  ",
"    ,/((_: <[}  ",
"   |12]  3 454  ",
"   678    789   ",
"  0a5b   cdef   ",
"  6ghi jkl=m    ",
"   nopqrest     ",
"    7uv:s3      ",
"                ",
"                ",
"                "};
