/* XPM */
static char * mexec_xpm[] = {
"16 16 93 2",
"  	c None",
". 	c #000000",
"+ 	c #676767",
"@ 	c #E6E6E6",
"# 	c #494949",
"$ 	c #707070",
"% 	c #2C2C2C",
"& 	c #3B3B3B",
"* 	c #A7A7A7",
"= 	c #E0E0E0",
"- 	c #636363",
"; 	c #404040",
"> 	c #838383",
", 	c #A5A5A6",
"' 	c #BEBEC0",
") 	c #C7C7C9",
"! 	c #9C9C9C",
"~ 	c #767676",
"{ 	c #747475",
"] 	c #868686",
"^ 	c #B5B5B6",
"/ 	c #D6D6D7",
"( 	c #C6C6C7",
"_ 	c #3E3E3F",
": 	c #BEBEBE",
"< 	c #DF9E62",
"[ 	c #FFB56C",
"} 	c #FFC280",
"| 	c #A6907E",
"1 	c #8D8D8D",
"2 	c #7D7D7D",
"3 	c #1D1D1D",
"4 	c #8E8E8E",
"5 	c #909092",
"6 	c #E7A66B",
"7 	c #FFCF94",
"8 	c #D5AE80",
"9 	c #A29076",
"0 	c #FFE5AE",
"a 	c #AFAFB0",
"b 	c #2B2B2B",
"c 	c #9E9E9E",
"d 	c #DEDEDE",
"e 	c #C0946C",
"f 	c #FFD89A",
"g 	c #727272",
"h 	c #858587",
"i 	c #B6A48A",
"j 	c #FFEEB4",
"k 	c #FFCB86",
"l 	c #B7B7B7",
"m 	c #B7B7B9",
"n 	c #EEEEEE",
"o 	c #8B8B8C",
"p 	c #B6B6B7",
"q 	c #BFA996",
"r 	c #DFCEA4",
"s 	c #AC9A80",
"t 	c #FFF6DA",
"u 	c #FFFFD0",
"v 	c #DFB88A",
"w 	c #9D9D9F",
"x 	c #AEAEAE",
"y 	c #343435",
"z 	c #BFBFC0",
"A 	c #A8927F",
"B 	c #FFFFC0",
"C 	c #FFFFEF",
"D 	c #FFF6CA",
"E 	c #989899",
"F 	c #222222",
"G 	c #666666",
"H 	c #CECECE",
"I 	c #B8B8B9",
"J 	c #C8A989",
"K 	c #C0AE94",
"L 	c #C7B19F",
"M 	c #C0C0C0",
"N 	c #595959",
"O 	c #6C6C6C",
"P 	c #9D9D9D",
"Q 	c #CDCDCE",
"R 	c #E5E5E5",
"S 	c #7A7A7B",
"T 	c #9F9FA0",
"U 	c #A5A5A5",
"V 	c #7E7E7F",
"W 	c #303030",
"X 	c #686868",
"Y 	c #181818",
"Z 	c #4C4C4C",
"` 	c #F6F6F6",
" .	c #7C7C7E",
"                .               ",
"              + @ .             ",
"      # $ % & * = - % ; >       ",
"    . , ' ) ! ~ { ] ^ / ( _     ",
"      % : { < [ } } | 1 2 3     ",
"  % . 4 5 6 7 8 9 0 0 | a b .   ",
"  c d ' e 7 f g h i j k l m n ; ",
". o p , q k j r s t u v ( w x y ",
"  3 % % z A f B C D r a E F %   ",
"      G E H I J K L / M E b     ",
"    N n / O P Q R p S T n U     ",
"    _ p V 3 W * x X Y Z T w .   ",
"      % .   . x ` ;     3 3     ",
"              _  ..             ",
"                .               ",
"                                "};
