/* XPM */
static char * mfolder_xpm[] = {
"16 16 119 2",
"  	c None",
". 	c #4A4C4A",
"+ 	c #464C46",
"@ 	c #B8C1B7",
"# 	c #868886",
"$ 	c #303030",
"% 	c #2C2E2C",
"& 	c #7E817E",
"* 	c #787878",
"= 	c #BDBDBD",
"- 	c #3D403D",
"; 	c #A1AEA0",
"> 	c #B0BDAF",
", 	c #8E978D",
"' 	c #202420",
") 	c #383D38",
"! 	c #BAC3B9",
"~ 	c #7F817E",
"{ 	c #363336",
"] 	c #F0F0F0",
"^ 	c #D5D6D5",
"/ 	c #696E69",
"( 	c #7E897E",
"_ 	c #909D8F",
": 	c #696C69",
"< 	c #0D0E0D",
"[ 	c #899488",
"} 	c #B2BEB0",
"| 	c #CACECA",
"1 	c #A1A1A1",
"2 	c #CDCDCD",
"3 	c #EFF0EF",
"4 	c #979A97",
"5 	c #646B63",
"6 	c #A8B2A6",
"7 	c #AAAEA9",
"8 	c #383838",
"9 	c #626A61",
"0 	c #ABB9AA",
"a 	c #C2CDC2",
"b 	c #B8BAB8",
"c 	c #9D9E9D",
"d 	c #ECECEC",
"e 	c #DADCDA",
"f 	c #6B706B",
"g 	c #7C867B",
"h 	c #BCC5BA",
"i 	c #787C78",
"j 	c #121312",
"k 	c #565D56",
"l 	c #B3C0B2",
"m 	c #C2C8C2",
"n 	c #9A9C9A",
"o 	c #CBCBCB",
"p 	c #F2F3F2",
"q 	c #9C9F9C",
"r 	c #6C746B",
"s 	c #A8B5A7",
"t 	c #9BA29A",
"u 	c #212420",
"v 	c #5A625A",
"w 	c #A7B4A6",
"x 	c #ACBAAB",
"y 	c #C0CABF",
"z 	c #ABAEAB",
"A 	c #8F918F",
"B 	c #E2E2E2",
"C 	c #70796F",
"D 	c #808D7E",
"E 	c #1E241E",
"F 	c #1B1E1B",
"G 	c #96A294",
"H 	c #B1BEB0",
"I 	c #576156",
"J 	c #989898",
"K 	c #464946",
"L 	c #6A7269",
"M 	c #606C5F",
"N 	c #141814",
"O 	c #424A42",
"P 	c #99A698",
"Q 	c #657163",
"R 	c #7A7B7A",
"S 	c #3C3E3C",
"T 	c #7A8479",
"U 	c #374136",
"V 	c #3E463D",
"W 	c #8A9788",
"X 	c #6F7C6D",
"Y 	c #535553",
"Z 	c #3C403B",
"` 	c #737E71",
" .	c #242A23",
"..	c #293028",
"+.	c #727F70",
"@.	c #A6B4A5",
"#.	c #778475",
"$.	c #383C38",
"%.	c #444A44",
"&.	c #4F5A4E",
"*.	c #050605",
"=.	c #525F51",
"-.	c #909F8F",
";.	c #AAB8A9",
">.	c #829180",
",.	c #1E231D",
"'.	c #454B44",
").	c #181C17",
"!.	c #000000",
"~.	c #3C463A",
"{.	c #707E6E",
"].	c #7D8D7C",
"^.	c #2E342D",
"/.	c #010101",
"(.	c #384036",
"_.	c #424F40",
":.	c #2A302A",
"<.	c #090A08",
"[.	c #000100",
"            .                   ",
"          + @ # $               ",
"% &   * = - ; > , '             ",
") ! ~ { ] ^ / ( _ : <           ",
"  [ } | 1 2 3 4 5 6 7 8         ",
"  9 0 0 a b c d e f g h i j     ",
"  k 0 0 0 l m n o p q r s t u   ",
"  v w 0 0 0 x y z A B : C D E   ",
"  F G 0 0 0 0 0 H I J K L M N   ",
"    O P 0 0 0 0 0 Q R S T U     ",
"      V W 0 0 0 0 X Y Z `  .    ",
"        ..+.@.0 0 #.$.%.&.*.    ",
"            =.-.;.>.,.'.).!.!.  ",
"              ~.{.].^.^./.!.!.  ",
"                (._.:.<.!.!.    ",
"                    [.!.        "};
