/* XPM */
static char * mlink_xpm[] = {
"16 16 73 1",
" 	c None",
".	c #DD2611",
"+	c #AE240F",
"@	c #901B0D",
"#	c #BC2210",
"$	c #C67211",
"%	c #A5310F",
"&	c #CB2311",
"*	c #B64E0F",
"=	c #9D7C0C",
"-	c #BC6611",
";	c #85190E",
">	c #B63110",
",	c #A4720D",
"'	c #211902",
")	c #C59012",
"!	c #A33011",
"~	c #C02111",
"{	c #C36A11",
"]	c #A5810D",
"^	c #332704",
"/	c #CC9F14",
"(	c #BF6714",
"_	c #80180F",
":	c #D82613",
"<	c #B64210",
"[	c #DDAA12",
"}	c #98760D",
"|	c #2D2304",
"1	c #CB9E14",
"2	c #D7A216",
"3	c #9D2D13",
"4	c #BF2411",
"5	c #CC8212",
"6	c #DEAC13",
"7	c #C59912",
"8	c #7F620C",
"9	c #D6A616",
"0	c #D9A917",
"a	c #BC6817",
"b	c #7B1910",
"c	c #D42613",
"d	c #B73F10",
"e	c #DCA813",
"f	c #DCAB14",
"g	c #BA9112",
"h	c #4E3D08",
"i	c #D2A416",
"j	c #D8A919",
"k	c #CE9119",
"l	c #912714",
"m	c #B22011",
"n	c #A93610",
"o	c #B44D12",
"p	c #BB5D13",
"q	c #BE6E14",
"r	c #A56212",
"s	c #C57B17",
"t	c #C47B18",
"u	c #C27618",
"v	c #A53816",
"w	c #62140F",
"x	c #480E08",
"y	c #380B06",
"z	c #4B0E09",
"A	c #59110B",
"B	c #64130C",
"C	c #71160E",
"D	c #74160F",
"E	c #731710",
"F	c #721710",
"G	c #711711",
"H	c #430E0B",
"                ",
"                ",
"                ",
"       .+@      ",
"       #$%      ",
"      &*=-;     ",
"      >,')!     ",
"     ~{]^/(_    ",
"    :<[}|123    ",
"    4567890ab   ",
"   cdefghijkl   ",
"   mnopqrstuvw  ",
"   xyzABCDEFGH  ",
"                ",
"                ",
"                "};
