/* XPM */
static char * mpipe_xpm[] = {
"16 16 67 1",
" 	c None",
".	c #283220",
"+	c #272D21",
"@	c #788B65",
"#	c #5A6E4A",
"$	c #282F23",
"%	c #90A87D",
"&	c #7B9468",
"*	c #444B37",
"=	c #12140F",
"-	c #4C1C1C",
";	c #4C2927",
">	c #673234",
",	c #292D22",
"'	c #8EA67C",
")	c #7E986A",
"!	c #546246",
"~	c #12150F",
"{	c #3B1E1D",
"]	c #331216",
"^	c #36231C",
"/	c #3F3827",
"(	c #605847",
"_	c #789265",
":	c #596A4A",
"<	c #1C2018",
"[	c #483632",
"}	c #2C1E1B",
"|	c #4A3C38",
"1	c #5E3932",
"2	c #462621",
"3	c #595C3C",
"4	c #404F34",
"5	c #22271D",
"6	c #382C26",
"7	c #1F2216",
"8	c #413A28",
"9	c #433E2C",
"0	c #637D4E",
"a	c #39442E",
"b	c #2B281E",
"c	c #5C503B",
"d	c #535D41",
"e	c #688055",
"f	c #637952",
"g	c #313428",
"h	c #8B9C7E",
"i	c #7E9A68",
"j	c #536645",
"k	c #5E6D50",
"l	c #3D4533",
"m	c #8E9E81",
"n	c #93AE80",
"o	c #698057",
"p	c #38402D",
"q	c #0F0E0C",
"r	c #7C8C6E",
"s	c #8C9F7C",
"t	c #6A8158",
"u	c #424B36",
"v	c #23221B",
"w	c #505945",
"x	c #647852",
"y	c #3E4432",
"z	c #2C2B22",
"A	c #3A402E",
"B	c #262A1F",
"                ",
"            .   ",
"           +@#  ",
"          $%&*= ",
"      -;>,')!~  ",
"     {]^/(_:<   ",
"    [}|12345    ",
"     67890a     ",
"     bcdefg     ",
"     hijkl      ",
"    mnopq       ",
"   rstu         ",
"  vwxy          ",
"   zAB          ",
"                ",
"                "};
