/* XPM */
static char * msocket_xpm[] = {
"16 16 189 2",
"  	c None",
". 	c #59584E",
"+ 	c #383832",
"@ 	c #302F2A",
"# 	c #2E2D28",
"$ 	c #282824",
"% 	c #2F2E2A",
"& 	c #2F2E29",
"* 	c #2D2D28",
"= 	c #272722",
"- 	c #1C1C19",
"; 	c #32312C",
"> 	c #201F1C",
", 	c #44433B",
"' 	c #878478",
") 	c #8A887A",
"! 	c #8E8A7C",
"~ 	c #969384",
"{ 	c #9B9888",
"] 	c #A3A08F",
"^ 	c #AAA796",
"/ 	c #ADAA98",
"( 	c #B2AE9C",
"_ 	c #B4B09E",
": 	c #AFAB99",
"< 	c #B5B29F",
"[ 	c #AFAB9A",
"} 	c #A7A493",
"| 	c #6C6A60",
"1 	c #969484",
"2 	c #BBB9AC",
"3 	c #CDC9B8",
"4 	c #C4C0AC",
"5 	c #B9B6A3",
"6 	c #89877A",
"7 	c #3A3A34",
"8 	c #7E7D70",
"9 	c #AEAB9B",
"0 	c #E3E1D8",
"a 	c #CFCBBB",
"b 	c #C5C1AD",
"c 	c #C6C3B0",
"d 	c #C7C3B0",
"e 	c #C6C2AF",
"f 	c #C3BFAB",
"g 	c #848378",
"h 	c #74746D",
"i 	c #2C2D2A",
"j 	c #6F6E62",
"k 	c #A8A493",
"l 	c #CECBBA",
"m 	c #EEEDE8",
"n 	c #CFCCBC",
"o 	c #CAC8BE",
"p 	c #B8B7AE",
"q 	c #AAA89C",
"r 	c #B8B5A2",
"s 	c #C2BEAA",
"t 	c #BEBAA7",
"u 	c #A6A392",
"v 	c #7D7C72",
"w 	c #818179",
"x 	c #76776E",
"y 	c #606054",
"z 	c #A4A190",
"A 	c #DBD9CE",
"B 	c #ADADA8",
"C 	c #7B7A73",
"D 	c #9A978A",
"E 	c #A9A697",
"F 	c #A29F92",
"G 	c #A5A295",
"H 	c #9D9B8D",
"I 	c #7A7A72",
"J 	c #83837B",
"K 	c #84847C",
"L 	c #6E6E68",
"M 	c #1E1E1B",
"N 	c #525248",
"O 	c #9A9787",
"P 	c #C8C6BF",
"Q 	c #65655E",
"R 	c #A8A496",
"S 	c #AEAA9A",
"T 	c #B0AC9C",
"U 	c #B3B0A1",
"V 	c #C8C6BC",
"W 	c #8D8D84",
"X 	c #64645E",
"Y 	c #0F0F0E",
"Z 	c #888678",
"` 	c #C9C5B3",
" .	c #A2A19B",
"..	c #7E7C72",
"+.	c #A4A091",
"@.	c #68665C",
"#.	c #A6A394",
"$.	c #615F56",
"%.	c #AAA698",
"&.	c #C4C2B6",
"*.	c #A4A39C",
"=.	c #6A6A63",
"-.	c #1F1F1D",
";.	c #757367",
">.	c #CAC6B4",
",.	c #96948E",
"'.	c #7B786F",
").	c #999587",
"!.	c #46443E",
"~.	c #9B988A",
"{.	c #373631",
"].	c #CAC7BC",
"^.	c #A8A8A1",
"/.	c #686862",
"(.	c #282826",
"_.	c #615F55",
":.	c #9F9E94",
"<.	c #78766E",
"[.	c #A5A293",
"}.	c #918E80",
"|.	c #ACA898",
"1.	c #777469",
"2.	c #B5B2A6",
"3.	c #D6D4CE",
"4.	c #999890",
"5.	c #696962",
"6.	c #262623",
"7.	c #68665B",
"8.	c #C4C0AD",
"9.	c #B5B2A3",
"0.	c #696860",
"a.	c #8C8A7E",
"b.	c #AFAB9B",
"c.	c #B0AC9D",
"d.	c #BBB8AA",
"e.	c #D6D4CC",
"f.	c #C0BEB5",
"g.	c #85857D",
"h.	c #666660",
"i.	c #32322E",
"j.	c #646258",
"k.	c #BFBBA8",
"l.	c #928E7E",
"m.	c #706C60",
"n.	c #636057",
"o.	c #858378",
"p.	c #A8A69B",
"q.	c #BAB9B0",
"r.	c #A8A59B",
"s.	c #78756A",
"t.	c #72726A",
"u.	c #82827A",
"v.	c #81817A",
"w.	c #5D5D57",
"x.	c #353532",
"y.	c #5A584F",
"z.	c #8C887A",
"A.	c #747064",
"B.	c #736F63",
"C.	c #716D61",
"D.	c #666358",
"E.	c #76766E",
"F.	c #7F7F77",
"G.	c #5C5C56",
"H.	c #4D4C44",
"I.	c #4C4A41",
"J.	c #58554C",
"K.	c #676358",
"L.	c #6F6B5F",
"M.	c #6B675C",
"N.	c #5E5E58",
"O.	c #1F1E1B",
"P.	c #1A1916",
"Q.	c #282623",
"R.	c #37352F",
"S.	c #3F3C36",
"T.	c #46443C",
"U.	c #545148",
"V.	c #5C594F",
"W.	c #646056",
"X.	c #636054",
"Y.	c #67645C",
"Z.	c #585852",
"`.	c #2B2B28",
" +	c #1E1E1C",
".+	c #2A2A26",
"++	c #2E2D29",
"@+	c #44423C",
"#+	c #504F49",
"    . + @ # $ % & * = - ; > ,   ",
"  ' ) ! ~ { ] ^ / ( _ : < [ } | ",
"1 2 3 4 4 4 4 4 4 4 4 4 4 5 6 7 ",
"8 9 0 a 4 b c d e 4 4 f _ g h i ",
"j k l m n o p q r s t u v w x $ ",
"y z b A B C D E F G H I J K L M ",
"N O d P Q R S T S U V W K K X Y ",
"  Z `  ...+.@.#.$.%.&.*.K K =.-.",
"  ;.>.,.'.).!.~.{.F ].^.K K /.(.",
"  _.c :.<.[.}.|.1.2.3.4.K K 5.6.",
"  7.8.9.0.a.b.c.d.e.f.g.K K h.i.",
"  j.k.l.m.n.o.p.q.r.s.t.u.v.w.x.",
"  y.z.m.m.m.m.A.B.C.m.D.E.F.G.  ",
"  H.I.J.K.L.m.m.m.m.m.M.j.I N.  ",
"      O.P.Q.R.S.T.U.V.W.X.Y.Z.  ",
"                `. +$ .+++@+#+  "};
