/* XPM */
static char * munknown_xpm[] = {
"16 16 37 1",
" 	c None",
".	c #303000",
"+	c #000000",
"@	c #B0B070",
"#	c #EFEF90",
"$	c #808060",
"%	c #404000",
"&	c #FFFFE0",
"*	c #FFFFD0",
"=	c #FFFFC0",
"-	c #B0B060",
";	c #808070",
">	c #FFFFEF",
",	c #8080C0",
"'	c #8080B0",
")	c #404030",
"!	c #EFEFB0",
"~	c #FFFFFF",
"{	c #404090",
"]	c #4040A0",
"^	c #4040B0",
"/	c #505000",
"(	c #707040",
"_	c #8080D0",
":	c #000080",
"<	c #EFEFA0",
"[	c #000090",
"}	c #A0A060",
"|	c #8080A0",
"1	c #707030",
"2	c #BFBFB0",
"3	c #BFBFC0",
"4	c #2B2B00",
"5	c #A0A030",
"6	c #D0D060",
"7	c #909030",
"8	c #181818",
"      .+        ",
"      @#$%+     ",
"     %&&**=-$%+ ",
"     ;>>,''===#)",
"    +!~{'>]^===/",
"    (&~_*&':===+",
"   +<&>&&&{{==#+",
"   -&&&>'['===} ",
"  %==**|{=====1 ",
" +#==*=23=====4 ",
" 5====='3====6++",
"47#====['====$++",
"  47#========/+ ",
"    +/}#====6+  ",
"       +/}##/   ",
"          8%    "};
