/* XPM */
static char * new_xpm[] = {
"16 16 22 1",
"-	c None",
".	c #000000",
"/	c #C0C0C0",
"0	c #808080",
"1	c #FFFFFF",
"2	c #FF0000",
"3	c #800080",
"4	c #FF00FF",
"5	c #008000",
"6	c #00FF00",
"7	c #808000",
"8	c #FFFF00",
"9	c #000080",
":	c #0000FF",
";	c #008080",
"<	c #00FFFF",
"=	c #800000",
">	c #FFA858",
"?	c #FFDCA8",
"@	c #DCDCDC",
"A	c #C3C3C3",
"B	c #A0A0A0",
"------....------",
"-----..-....-.--",
"----.-----....--",
"-----------...--",
"----------....--",
"-....-----------",
".>??>.......----",
".????>>>>>>>.---",
".??.............",
".?>.@@@@@@@@@@@.",
".?.@AAAABABABB.-",
".>.@AAABABABBB.-",
"..@AAABABABBB.--",
"..@AABABABBBB.--",
".@AABABABBBB.---",
".............---"};
