/* XPM */
static char * open_xpm[] = {
"32 32 300 2",
"  	c None",
". 	c #75A1B9",
"+ 	c #7297AD",
"@ 	c #78A1BA",
"# 	c #73A0B9",
"$ 	c #6A91A6",
"% 	c #6C9FBB",
"& 	c #679FBC",
"* 	c #639EBD",
"= 	c #6A9FBB",
"- 	c #60859A",
"; 	c #6C9AB3",
"> 	c #6798B2",
", 	c #6995AD",
"' 	c #6890A6",
") 	c #5B7F94",
"! 	c #6C91A6",
"~ 	c #71A0BA",
"{ 	c #6EA0BA",
"] 	c #58798E",
"^ 	c #6FA0BB",
"/ 	c #6E96AD",
"( 	c #7598AD",
"_ 	c #97A9B3",
": 	c #A7A9AB",
"< 	c #A5A7AA",
"[ 	c #A8ABAE",
"} 	c #B0B4B9",
"| 	c #ACB0B4",
"1 	c #A6ACB2",
"2 	c #A5A9AE",
"3 	c #A8ADB3",
"4 	c #B0B3B9",
"5 	c #ACB0B5",
"6 	c #A4A7AA",
"7 	c #A4A7AB",
"8 	c #A6ACB3",
"9 	c #B1B5BB",
"0 	c #8E8F97",
"a 	c #7AA2BA",
"b 	c #AFB0B3",
"c 	c #A9A7AA",
"d 	c #9F9B9A",
"e 	c #A1A2A3",
"f 	c #C3BFC1",
"g 	c #B7B3B3",
"h 	c #9E9DA0",
"i 	c #9D9A9C",
"j 	c #A9A8AA",
"k 	c #C1BDC0",
"l 	c #B2B0B3",
"m 	c #98999C",
"n 	c #979699",
"o 	c #9FA2A6",
"p 	c #C6C2C6",
"q 	c #9E9C9F",
"r 	c #999CAC",
"s 	c #A8A5A7",
"t 	c #ABA7AA",
"u 	c #AEAAAE",
"v 	c #A6A2A3",
"w 	c #B0ACAF",
"x 	c #A6A3A5",
"y 	c #A5A1A3",
"z 	c #AAA6A7",
"A 	c #ADA9AC",
"B 	c #ADAAAE",
"C 	c #AFACB1",
"D 	c #8A97A2",
"E 	c #7C7A97",
"F 	c #706FA1",
"G 	c #5D5C98",
"H 	c #64639B",
"I 	c #69689D",
"J 	c #A9A7B4",
"K 	c #D4D3D4",
"L 	c #D2D2D4",
"M 	c #C0BDBF",
"N 	c #7D7D97",
"O 	c #6767AB",
"P 	c #4D4DA2",
"Q 	c #4949A0",
"R 	c #5859A2",
"S 	c #51529E",
"T 	c #5B5DA4",
"U 	c #5353A3",
"V 	c #5252A4",
"W 	c #5354A2",
"X 	c #5F60A8",
"Y 	c #BBBACB",
"Z 	c #FBFBFB",
"` 	c #DDDADB",
" .	c #6B97AF",
"..	c #68A1C2",
"+.	c #A09FA8",
"@.	c #BBBBCC",
"#.	c #B3B3CC",
"$.	c #B0B0CB",
"%.	c #B7B9C9",
"&.	c #B3B4C3",
"*.	c #B1B1C0",
"=.	c #B0AFC3",
"-.	c #B5B5CD",
";.	c #B7B7CA",
">.	c #B9B9CA",
",.	c #D4D3D6",
"'.	c #EBEBE9",
").	c #D4D1D3",
"!.	c #AEAEB1",
"~.	c #C5C1C4",
"{.	c #BBB8BA",
"].	c #CAC4B8",
"^.	c #BAB6B8",
"/.	c #C0BCBF",
"(.	c #B1AFB1",
"_.	c #B8B6B8",
":.	c #CBC7C9",
"<.	c #B1B1B5",
"[.	c #9E9FA3",
"}.	c #AFAFB2",
"|.	c #C2BFC2",
"1.	c #BDB9BB",
"2.	c #A8A4A8",
"3.	c #D9D5C7",
"4.	c #B6B295",
"5.	c #A3A1A4",
"6.	c #AAA8AB",
"7.	c #ADB0B4",
"8.	c #C4C0C2",
"9.	c #9D9DA1",
"0.	c #8F8E91",
"a.	c #ADABAF",
"b.	c #BDB9BA",
"c.	c #C8C1A3",
"d.	c #BEB681",
"e.	c #D5C987",
"f.	c #9C9CA3",
"g.	c #B7B1B0",
"h.	c #D9D7D4",
"i.	c #AFADB0",
"j.	c #B6B3B7",
"k.	c #C4C0C3",
"l.	c #AAA9AB",
"m.	c #989A9D",
"n.	c #C4C0C4",
"o.	c #C1BDBF",
"p.	c #C1BBB5",
"q.	c #BAB49E",
"r.	c #BCBABD",
"s.	c #C7C4C6",
"t.	c #D1CFD0",
"u.	c #A0A2A7",
"v.	c #B1B0B4",
"w.	c #CAC6C8",
"x.	c #B0B2B6",
"y.	c #72A2BE",
"z.	c #AEADB0",
"A.	c #ACAAA9",
"B.	c #959497",
"C.	c #98979A",
"D.	c #A2A2A5",
"E.	c #AEAFB2",
"F.	c #C2BEC1",
"G.	c #A2A1A3",
"H.	c #99989B",
"I.	c #9C9CA0",
"J.	c #A5A8AD",
"K.	c #A1A4A9",
"L.	c #919093",
"M.	c #BEBBBE",
"N.	c #B7B4B8",
"O.	c #B6B3B6",
"P.	c #B9B7BB",
"Q.	c #BEBCBF",
"R.	c #C5C1C5",
"S.	c #BAB7BA",
"T.	c #BAB8BC",
"U.	c #BCBBC0",
"V.	c #9C9B9E",
"W.	c #82919B",
"X.	c #BCB6B7",
"Y.	c #BAB7B8",
"Z.	c #A0A1A4",
"`.	c #8F8F91",
" +	c #C8C0B3",
".+	c #B2A693",
"++	c #D2B88E",
"@+	c #D8CEA4",
"#+	c #B5B6BA",
"$+	c #B0B3B8",
"%+	c #ADABAE",
"&+	c #B8B9BE",
"*+	c #9E9EA1",
"=+	c #C3BFC2",
"-+	c #CBBC8C",
";+	c #D6B570",
">+	c #D9C883",
",+	c #AEABB0",
"'+	c #AAA9AC",
")+	c #B1B2B6",
"!+	c #979A9F",
"~+	c #B2B4B8",
"{+	c #9FA0A3",
"]+	c #85949E",
"^+	c #6F92A7",
"/+	c #BCB5A6",
"(+	c #C2B56E",
"_+	c #9B9A9F",
":+	c #ABB2B9",
"<+	c #A6AC94",
"[+	c #697A88",
"}+	c #A8A9AF",
"|+	c #BFBDC1",
"1+	c #B8B5B8",
"2+	c #BDBABD",
"3+	c #B0AFB1",
"4+	c #A9A98E",
"5+	c #B7B5B8",
"6+	c #C2BEC2",
"7+	c #BBBABE",
"8+	c #B3B0AA",
"9+	c #A3A29C",
"0+	c #8E8D8B",
"a+	c #9DA2A2",
"b+	c #BDBBBF",
"c+	c #C9C5C7",
"d+	c #B7B8BC",
"e+	c #A2A7AE",
"f+	c #6AA2C2",
"g+	c #B0ABAC",
"h+	c #959598",
"i+	c #9D9C9D",
"j+	c #939395",
"k+	c #9F9C9D",
"l+	c #9A9B9F",
"m+	c #97948D",
"n+	c #A4A29B",
"o+	c #9B9B96",
"p+	c #A39F98",
"q+	c #9CAEBB",
"r+	c #C8C4C7",
"s+	c #C7C3C6",
"t+	c #A0A2A4",
"u+	c #909397",
"v+	c #9FA3A9",
"w+	c #B8B6B7",
"x+	c #C6C2C3",
"y+	c #C2BFC1",
"z+	c #C4C2C3",
"A+	c #C3C1C4",
"B+	c #BFBCBF",
"C+	c #A6A8AC",
"D+	c #959498",
"E+	c #B9B5B6",
"F+	c #6B91A6",
"G+	c #86868D",
"H+	c #98989B",
"I+	c #A09EA1",
"J+	c #9C9B9D",
"K+	c #9E9D9F",
"L+	c #91A3B0",
"M+	c #939295",
"N+	c #87858B",
"O+	c #ACA9AA",
"P+	c #ACADB0",
"Q+	c #6C95AC",
"R+	c #82838B",
"S+	c #8E8C90",
"T+	c #9A9A9D",
"U+	c #8E8C8F",
"V+	c #8E8B8E",
"W+	c #918F91",
"X+	c #A0A0A3",
"Y+	c #A1A0A2",
"Z+	c #909092",
"`+	c #8C8A8D",
" @	c #949496",
".@	c #A2A0A2",
"+@	c #9D9DA0",
"@@	c #A9A689",
"#@	c #8B898D",
"$@	c #83848A",
"%@	c #B0AEAE",
"&@	c #B2B2B4",
"*@	c #B3B4B8",
"=@	c #B0B1B4",
"-@	c #85878F",
";@	c #A3A6A9",
">@	c #A1A4A7",
",@	c #A5A8AB",
"'@	c #A8AAAC",
")@	c #A1A3A6",
"!@	c #9FA1A4",
"~@	c #A7A8AA",
"{@	c #A4A6A9",
"]@	c #A4A5A8",
"^@	c #ACAEB3",
"/@	c #9D9FA1",
"(@	c #ACAFB4",
"_@	c #AEB1B7",
"                                                                ",
"                                                                ",
"                                                                ",
"    . . + @ . . @ @ . . @ @ # @ . . @ @ . . @ @ . . # + . .     ",
"  # $ $ % & & * = = * & & & - - * & & & & * = = * ; > , ' ) '   ",
"  # ! ' ~ % ~ % { { % ~ % * - ] ^ ~ % % ~ % { { ^ ^ ; / ! ) '   ",
"  ( _ : < [ } | 1 2 3 4 5 6 7 8 9 9 9 9 9 9 9 9 9 9 9 9 9 0 '   ",
"  a b c d e f g h i j k l m n o p p p p p p p p p p p p p q '   ",
"  @ r s t t u u v s s w t x y z A A A A A A A A B C u u A D '   ",
"  @ E F G H G G H G G G I J K K K K K K K K K K L L K K K M '   ",
"  # N O P Q R S T U V W X Y Z Z Z Z Z Z Z Z Z Z Z Z Z Z Z `  .  ",
"  ..+.@.#.$.%.&.*.=.-.;.>.,.'.'.'.'.'.'.'.'.'.'.'.'.'.'.'.). .  ",
"  @ !.~.p p p {.f ].^.p p p p p /.(._.p p p p p p p p :.<.[.'   ",
"  @ }.p p p |.1.2.3.4.p p p p p 5.6.7.|.p p p p p p ~.8.9.0.'   ",
"  # a.p p p b.c.d.e.f.p p p p p g.h.i.j.p p p p p p p k.l.m.'   ",
"  @ a.p p p n.o.p.q.r.p ~.~.p p s.t.u.v.p p p p p p p w.:.x.'   ",
"  y.z.p p p A.B.C.D.E.n.p p F.G.H.H.I.J.f p p p p p ~.k.K.L.'   ",
"  y.z.p p p M.N.O.P.Q.R.p p R.{.S.S.T.U.~.p p p p p p f V.W.'   ",
"  # }.p R.R.R.X.Y.k./.p p p ~.p R.n.p p p p p p p p p f Z.`.'   ",
"  # a.p R.R. +.+++@+#+p p p ~.p $+%+&+p p p p p p p p f *+`.'   ",
"  y.a.p p p =+-+;+>+,+p p p p ~.'+)+!+~+p p f p p p p f {+]+^+  ",
"  y.!.~.p p k /+;+(+_+p p p p f :+<+[+}+p p ~.k.p p p f {+L.'   ",
"  . z.R.R.|+1+2+3+4+5+5+|.p 6+7+8+9+0+a+b+p ~.p p p R.c+d+e+'   ",
"  f+b =+R.g+h+i+j+k+*+*+{.w.{.l+m+n+o+p+q+r+s+r+p p =+=+t+u+'   ",
"  @ v+v+w+x+x+x+y+x+z+z+z+z+x+A+z+z+x+x+z+z+A+A+x+B+C+D+E+} F+  ",
"  + G+0.H+I+J+I+K+K+*+*+*+*+I+9.*+*+I+I+*+*+L+9.I+H+M+N+O+P+F+  ",
"  Q+R+S+T+U+B.H.V+W+n X+Y+Z+n `+ @.@+@H+n @@#@$@+@%@&@*@^.=@'   ",
"  # -@Z.< +@Z.;@K+K+>@,@'@)@J.+@!@~@,@{@]@^@{+/@{@(@9 x.9 _@'   ",
"    ' ' ' ' ' ' ' ' ' ' ' ' ' ' ' ' ' ' ' ' ' ' ' ' ^+' ' '     ",
"                                                                ",
"                                                                ",
"                                                                "};
