/* XPM */
static char * pdf_xpm[] = {
"32 32 17 1",
" 	c None",
".	c #050506",
"+	c #979493",
"@	c #D8D446",
"#	c #B1B0AF",
"$	c #F91D1C",
"%	c #E6E234",
"&	c #D0B3B1",
"*	c #CFCDCB",
"=	c #F55958",
"-	c #4F4F4F",
";	c #727271",
">	c #D89393",
",	c #2C2C2C",
"'	c #F13736",
")	c #ED7777",
"!	c #F4F4F3",
"                   ..           ",
"                 ..++-          ",
"               #.+#++,          ",
"          #...-;#####-+         ",
"       ...,;#########+.         ",
"     .*;++########+#+#++        ",
"     *!+;;########+####.        ",
"    .!**-;++##$$++#++##++       ",
"    ,*!*-;+++')+########.       ",
"   .#+;-;;+++'+>++#+#+##++      ",
"   .;---;;+++>$=#########.      ",
"   ;,;;;;+++@#>'###@#####++     ",
"    ,+;+;++###>'##########,     ",
"    .##+++#+##>$#*#####*##+     ",
"    .#########$$#&*#*#*#*##     ",
"    .########>$='##**#@*#*&.    ",
"    ;###****>'>*&)$&#*******,   ",
"    +#*****#&$&*>)$$)&@**#**+.  ",
"     +***&*&'>&')$$$$''>*****,  ",
" ..............'&**&$>&'***#*#. ",
" ..!!.!!..!!!..**!***'=&******+.",
" ..!..!.!.!....!!*!**********#+.",
" ..!!.!.!.!!...!*!*!!*!*!**#+,. ",
" ..!..!.!.!....!!%*!**!****,.+  ",
" ..!..!!..!....!!!!*!*!**#,...* ",
" ..............!*!!*!&#+,...... ",
"      ,*!!!!!!!!!*!*++,....;#   ",
"       -!!!!!!!!+.....;*        ",
"       ;!!!!!!#-...-+           ",
"        -!!!#...;#              ",
"        ......;&                ",
"         .;#                    "};
