/* XPM */
static char * pipe_xpm[] = {
"32 32 241 2",
"  	c None",
". 	c #1D2417",
"+ 	c #324028",
"@ 	c #0D110A",
"# 	c #0E100B",
"$ 	c #566646",
"% 	c #8CA678",
"& 	c #758E60",
"* 	c #2D3A24",
"= 	c #050504",
"- 	c #637355",
"; 	c #8A9F76",
"> 	c #738061",
", 	c #697D56",
"' 	c #5F754E",
") 	c #181C14",
"! 	c #10130E",
"~ 	c #6E8061",
"{ 	c #9EB98A",
"] 	c #95AF82",
"^ 	c #768E63",
"/ 	c #4C553C",
"( 	c #4A533E",
"_ 	c #21261C",
": 	c #050604",
"< 	c #637357",
"[ 	c #9DB889",
"} 	c #96B081",
"| 	c #789363",
"1 	c #687F57",
"2 	c #525D45",
"3 	c #26261E",
"4 	c #020202",
"5 	c #41201F",
"6 	c #52312E",
"7 	c #56302F",
"8 	c #10120E",
"9 	c #67785B",
"0 	c #9DB789",
"a 	c #96B182",
"b 	c #687F56",
"c 	c #546147",
"d 	c #282E22",
"e 	c #060604",
"f 	c #521F1F",
"g 	c #451A1A",
"h 	c #401D1D",
"i 	c #5E3532",
"j 	c #743E3F",
"k 	c #6C292F",
"l 	c #080303",
"m 	c #9CB688",
"n 	c #97B383",
"o 	c #7B9766",
"p 	c #6F875D",
"q 	c #5A694C",
"r 	c #38402F",
"s 	c #090C07",
"t 	c #4A1B1B",
"u 	c #511E1E",
"v 	c #240D0D",
"w 	c #252216",
"x 	c #3F4A2F",
"y 	c #1A0C0C",
"z 	c #2E211D",
"A 	c #91A87E",
"B 	c #98B384",
"C 	c #799563",
"D 	c #6B8458",
"E 	c #58674A",
"F 	c #373E2F",
"G 	c #0C0E0A",
"H 	c #513733",
"I 	c #160808",
"J 	c #0A0304",
"K 	c #3E141F",
"L 	c #4B1B1F",
"M 	c #43422C",
"N 	c #667249",
"O 	c #3D1719",
"P 	c #612A2E",
"Q 	c #616F53",
"R 	c #657B54",
"S 	c #6C8458",
"T 	c #5D6D4D",
"U 	c #454E3A",
"V 	c #12150F",
"W 	c #4E3A36",
"X 	c #382925",
"Y 	c #130707",
"Z 	c #12110E",
"` 	c #A17679",
" .	c #913644",
"..	c #432720",
"+.	c #2E261B",
"@.	c #4A171C",
"#.	c #572B27",
"$.	c #5B7647",
"%.	c #35432B",
"&.	c #48553D",
"*.	c #46513C",
"=.	c #42332E",
"-.	c #3A2925",
";.	c #2A3321",
">.	c #4C3536",
",.	c #4E2B29",
"'.	c #545B3B",
").	c #3E3A28",
"!.	c #632025",
"~.	c #4C4A31",
"{.	c #66834F",
"].	c #627C4D",
"^.	c #23291D",
"/.	c #131610",
"(.	c #594640",
"_.	c #3E2F2B",
":.	c #171E12",
"<.	c #36442A",
"[.	c #191C12",
"}.	c #465536",
"|.	c #3B3C27",
"1.	c #4C2923",
"2.	c #2E2E20",
"3.	c #5A7248",
"4.	c #65814F",
"5.	c #678053",
"6.	c #0F100B",
"7.	c #64443F",
"8.	c #281F1A",
"9.	c #14150D",
"0.	c #1A120E",
"a.	c #473326",
"b.	c #3D241C",
"c.	c #3C3728",
"d.	c #576B47",
"e.	c #647F4F",
"f.	c #688154",
"g.	c #5C6E4B",
"h.	c #13120E",
"i.	c #241513",
"j.	c #5E3B36",
"k.	c #64332F",
"l.	c #3C2D22",
"m.	c #4C5A3F",
"n.	c #5A6F4A",
"o.	c #657E52",
"p.	c #657F51",
"q.	c #657A54",
"r.	c #4B553E",
"s.	c #191512",
"t.	c #323B2A",
"u.	c #5B6E49",
"v.	c #52653E",
"w.	c #697F58",
"x.	c #728B5E",
"y.	c #6E8959",
"z.	c #6A8258",
"A.	c #59694A",
"B.	c #2F3327",
"C.	c #424D3B",
"D.	c #9DB28E",
"E.	c #99B485",
"F.	c #66824F",
"G.	c #546A44",
"H.	c #71895F",
"I.	c #738963",
"J.	c #637753",
"K.	c #536145",
"L.	c #32372A",
"M.	c #3E4837",
"N.	c #9DAE90",
"O.	c #B0C5A0",
"P.	c #89A771",
"Q.	c #6F8C5A",
"R.	c #46563A",
"S.	c #404D37",
"T.	c #58664C",
"U.	c #484F3C",
"V.	c #313729",
"W.	c #44503C",
"X.	c #A8B89B",
"Y.	c #B4C8A6",
"Z.	c #8DAB78",
"`.	c #738E5E",
" +	c #60724F",
".+	c #22251B",
"++	c #0D0A09",
"@+	c #11110E",
"#+	c #3E4C33",
"$+	c #91A483",
"%+	c #B9CBAB",
"&+	c #96B281",
"*+	c #74915F",
"=+	c #6A8158",
"-+	c #607250",
";+	c #4D583E",
">+	c #11130D",
",+	c #435037",
"'+	c #7D8B6F",
")+	c #ACBA9F",
"!+	c #779362",
"~+	c #687E57",
"{+	c #5D6E4F",
"]+	c #444B36",
"^+	c #161811",
"/+	c #2C3425",
"(+	c #869A77",
"_+	c #ABBB9D",
":+	c #7F8B6F",
"<+	c #6E825B",
"[+	c #6A8259",
"}+	c #5E704F",
"|+	c #4C563E",
"1+	c #1C1D15",
"2+	c #12130E",
"3+	c #23231C",
"4+	c #565D4F",
"5+	c #889F76",
"6+	c #7A9365",
"7+	c #546244",
"8+	c #4D5740",
"9+	c #49533B",
"0+	c #1F2019",
"a+	c #333127",
"b+	c #312F26",
"c+	c #303828",
"d+	c #647A53",
"e+	c #5D6F4E",
"f+	c #3F4231",
"g+	c #24251D",
"h+	c #0E0D0B",
"i+	c #312E25",
"j+	c #323127",
"k+	c #3D4631",
"l+	c #546143",
"m+	c #2E3325",
"n+	c #181713",
"o+	c #36352A",
"p+	c #29281F",
"q+	c #303223",
"r+	c #1E2219",
"                                                                ",
"                                                                ",
"                                                                ",
"                                                . + @           ",
"                                              # $ % & *         ",
"                                            = - ; > , ' )       ",
"                                          ! ~ { ] ^ / ( _       ",
"                                        : < [ } | 1 2 3 4       ",
"                            5 6 7     8 9 0 a | b c d e         ",
"                        f g h i j k l - m n o p q r s           ",
"                      t u   v w x y z A B C D E F G             ",
"                    H I J K L M N O P Q R S T U V               ",
"                  W X Y Z `  ...+.@.#.$.%.&.*.G                 ",
"                  =.-.  ;.>.,.'.).!.~.{.].^./.                  ",
"                  (._.:.<.[.}.|.1.2.3.4.5.6.                    ",
"                    7.8.9.0.a.b.c.d.e.f.g.h.                    ",
"                      i.j.k.l.m.n.o.p.q.r.s.                    ",
"                      t.u.v.n.w.x.y.z.A.B.                      ",
"                    C.D.E.F.G.H.I.J.K.L.                        ",
"                  M.N.O.P.Q.R.S.T.U.V.                          ",
"                W.X.Y.Z.`.1  +.+++@+                            ",
"              #+$+%+&+*+=+-+;+>+                                ",
"            ,+'+)+E.!+~+{+]+^+                                  ",
"          /+(+_+:+<+[+}+|+1+                                    ",
"        2+3+4+5+6+7+8+9+0+                                      ",
"          a+b+c+d+e+f+g+                                        ",
"          h+i+j+k+l+m+                                          ",
"            n+o+p+q+r+                                          ",
"                =                                               ",
"                                                                ",
"                                                                ",
"                                                                "};
