/* XPM */
static char * rpm_xpm[] = {
"32 17 17 1",
" 	c None",
".	c #050506",
"+	c #969695",
"@	c #4F4F4E",
"#	c #D0CFD0",
"$	c #7C1B1A",
"%	c #C34A48",
"&	c #B5B3B4",
"*	c #292928",
"=	c #FDFDFB",
"-	c #C47774",
";	c #717172",
">	c #DA8F8C",
",	c #B31F1D",
"'	c #D8BABC",
")	c #3D3B3B",
"!	c #E2DEDF",
"           ;@....*)             ",
"       ..;#=========!,,%        ",
"     @..;=============',,       ",
"   *..)=================>,,     ",
"  ...#===================,,,,   ",
" ....=========!+=========>,,,   ",
" ....==========)@**++#====,,,,  ",
";....==============;;))@+',,,,% ",
"*.)========================#>$$ ",
".....; ......    ;.....))....;  ",
"...*.; ...;...   )..;  ..   ... ",
"...    ...   ..  )..;  ..   ... ",
"...    ...   ..  )..;  ..   ... ",
"...    ...  ...  )..;  ..   ... ",
"...    ...*..    )..;  ..   ... ",
"       ...@                     ",
"       ...                      "};
