/* XPM */
static char * socket_xpm[] = {
"32 32 525 2",
"  	c None",
". 	c #3B3933",
"+ 	c #31302B",
"@ 	c #1F1E1B",
"# 	c #171715",
"$ 	c #21201D",
"% 	c #161614",
"& 	c #0F0E0D",
"* 	c #22211E",
"= 	c #20201C",
"- 	c #030302",
"; 	c #070706",
"> 	c #040403",
", 	c #000000",
"' 	c #030303",
") 	c #11110F",
"! 	c #080707",
"~ 	c #020202",
"{ 	c #12120F",
"] 	c #4F4D45",
"^ 	c #636257",
"/ 	c #3E3D36",
"( 	c #33332E",
"_ 	c #30302A",
": 	c #252420",
"< 	c #21211D",
"[ 	c #373530",
"} 	c #383732",
"| 	c #32322C",
"1 	c #43423B",
"2 	c #43423C",
"3 	c #3B3A34",
"4 	c #55544B",
"5 	c #3D3C36",
"6 	c #46453D",
"7 	c #4C4B43",
"8 	c #3A3933",
"9 	c #35342F",
"0 	c #5A584F",
"a 	c #55534A",
"b 	c #363530",
"c 	c #4F4E45",
"d 	c #6B695E",
"e 	c #706E63",
"f 	c #66645A",
"g 	c #615F55",
"h 	c #6C6A5F",
"i 	c #5E5C52",
"j 	c #656359",
"k 	c #666459",
"l 	c #7E7C6F",
"m 	c #838073",
"n 	c #817F71",
"o 	c #8D8A7C",
"p 	c #949182",
"q 	c #918F80",
"r 	c #9B9888",
"s 	c #A4A090",
"t 	c #9C9988",
"u 	c #A09D8C",
"v 	c #A7A493",
"w 	c #989585",
"x 	c #A4A190",
"y 	c #A9A694",
"z 	c #989586",
"A 	c #999686",
"B 	c #9E9B8B",
"C 	c #777569",
"D 	c #8C8A7C",
"E 	c #929083",
"F 	c #B3B0A0",
"G 	c #AEAB99",
"H 	c #AFAC9A",
"I 	c #B8B4A1",
"J 	c #BBB7A4",
"K 	c #C4C0AC",
"L 	c #C1BDA9",
"M 	c #A5A191",
"N 	c #616056",
"O 	c #A8A593",
"P 	c #888678",
"Q 	c #9F9D91",
"R 	c #D6D3C5",
"S 	c #CAC6B4",
"T 	c #C0BCA8",
"U 	c #A9A594",
"V 	c #858376",
"W 	c #41403A",
"X 	c #A6A492",
"Y 	c #838173",
"Z 	c #9B998D",
"` 	c #DDDACF",
" .	c #DBD8CC",
"..	c #CBC7B6",
"+.	c #BEBAA7",
"@.	c #A3A090",
"#.	c #828175",
"$.	c #737269",
"%.	c #33332F",
"&.	c #7F7E70",
"*.	c #908D7F",
"=.	c #D1CEBE",
"-.	c #E5E3DB",
";.	c #E1DED5",
">.	c #C5C1AD",
",.	c #C3BFAB",
"'.	c #79786E",
").	c #777770",
"!.	c #6D6D66",
"~.	c #31322E",
"{.	c #918E7F",
"].	c #C7C3B0",
"^.	c #D7D4C6",
"/.	c #F0EEEA",
"(.	c #E2E0D6",
"_.	c #C7C4B1",
":.	c #C9C6B4",
"<.	c #C9C6B3",
"[.	c #C9C5B2",
"}.	c #C7C3AF",
"|.	c #C0BDA9",
"1.	c #B7B4A1",
"2.	c #9B9788",
"3.	c #7C7B71",
"4.	c #787870",
"5.	c #808079",
"6.	c #6C6C65",
"7.	c #282825",
"8.	c #79786B",
"9.	c #918E80",
"0.	c #E0DED3",
"a.	c #F5F5F2",
"b.	c #C6C2AF",
"c.	c #C9C5B3",
"d.	c #CCC9B8",
"e.	c #D3D0C3",
"f.	c #D1CFC4",
"g.	c #C7C5BA",
"h.	c #C2C0B2",
"i.	c #C1BEAD",
"j.	c #C4C1AD",
"k.	c #C8C4AE",
"l.	c #C6C3AD",
"m.	c #BDB9A6",
"n.	c #AEAA99",
"o.	c #939082",
"p.	c #76756B",
"q.	c #7A7A72",
"r.	c #83837B",
"s.	c #6C6C64",
"t.	c #282824",
"u.	c #65655A",
"v.	c #858375",
"w.	c #CCC8B7",
"x.	c #EBEAE4",
"y.	c #F8F8F6",
"z.	c #D5D2C4",
"A.	c #D9D6CB",
"B.	c #CDCCC6",
"C.	c #BCBCB7",
"D.	c #AEAEA8",
"E.	c #9C9B93",
"F.	c #919087",
"G.	c #959488",
"H.	c #A3A091",
"I.	c #B3AF9D",
"J.	c #BDBAA6",
"K.	c #BEBBA7",
"L.	c #BCB9A5",
"M.	c #B6B2A0",
"N.	c #8A887B",
"O.	c #72726A",
"P.	c #797972",
"Q.	c #84847C",
"R.	c #686960",
"S.	c #272824",
"T.	c #656559",
"U.	c #898678",
"V.	c #C6C2AE",
"W.	c #D2CFC0",
"X.	c #F4F4F1",
"Y.	c #E6E6E1",
"Z.	c #C4C4C0",
"`.	c #81817C",
" +	c #5F5F59",
".+	c #77756C",
"++	c #969387",
"@+	c #A29F91",
"#+	c #A3A092",
"$+	c #9A988C",
"%+	c #919085",
"&+	c #979589",
"*+	c #A3A193",
"=+	c #A5A392",
"-+	c #949385",
";+	c #7D7C72",
">+	c #7F7F77",
",+	c #5F5F58",
"'+	c #242420",
")+	c #5A5B50",
"!+	c #807F71",
"~+	c #CAC7B6",
"{+	c #DCDAD2",
"]+	c #B0B0A9",
"^+	c #5A5A54",
"/+	c #74746D",
"(+	c #98968B",
"_+	c #ACA999",
":+	c #B0AC9C",
"<+	c #ADA99A",
"[+	c #ABA899",
"}+	c #B0AC9E",
"|+	c #ACA99C",
"1+	c #8E8D82",
"2+	c #585852",
"3+	c #181816",
"4+	c #54554A",
"5+	c #7A786B",
"6+	c #C8C4B2",
"7+	c #D6D4C8",
"8+	c #CFCDC9",
"9+	c #65655E",
"0+	c #969488",
"a+	c #BAB7A9",
"b+	c #CBC8BE",
"c+	c #B6B4A9",
"d+	c #87877E",
"e+	c #4C4C47",
"f+	c #10100F",
"g+	c #505046",
"h+	c #6F6D62",
"i+	c #BCB8A5",
"j+	c #CDC9B8",
"k+	c #E0DFD8",
"l+	c #9B9A92",
"m+	c #454541",
"n+	c #8B8A7F",
"o+	c #AFAB9B",
"p+	c #ABA797",
"q+	c #AEAA9A",
"r+	c #AFAB9C",
"s+	c #ABA898",
"t+	c #B4B1A2",
"u+	c #D8D7D1",
"v+	c #A5A499",
"w+	c #7C7C75",
"x+	c #4A4A46",
"y+	c #0E0E0D",
"z+	c #ABA896",
"A+	c #CECABA",
"B+	c #DDDCD7",
"C+	c #74746C",
"D+	c #4E4E48",
"E+	c #A5A393",
"F+	c #A5A192",
"G+	c #79766B",
"H+	c #9A9789",
"I+	c #AEAA9B",
"J+	c #AAA697",
"K+	c #817E72",
"L+	c #BAB6A8",
"M+	c #CECCC3",
"N+	c #BCBBB3",
"O+	c #7B7B74",
"P+	c #51514C",
"Q+	c #181817",
"R+	c #6D6B60",
"S+	c #A3A08F",
"T+	c #CDCAB9",
"U+	c #D8D7D2",
"V+	c #5D5D58",
"W+	c #575752",
"X+	c #8B887B",
"Y+	c #1D1C1A",
"Z+	c #A8A595",
"`+	c #42413B",
" @	c #9B988A",
".@	c #B3B0A1",
"+@	c #BEBCAE",
"@@	c #CCCBC1",
"#@	c #CBCAC3",
"$@	c #5B5B55",
"%@	c #262623",
"&@	c #646258",
"*@	c #8F8D7E",
"=@	c #D1CFC8",
"-@	c #595854",
";@	c #4D4C48",
">@	c #ADA999",
",@	c #8B877B",
"'@	c #6F6D63",
")@	c #A8A596",
"!@	c #928F81",
"~@	c #8C897D",
"{@	c #B4B0A1",
"]@	c #C1BEB1",
"^@	c #D0CEC4",
"/@	c #CDCDC6",
"(@	c #808078",
"_@	c #52524D",
":@	c #2D2D2A",
"<@	c #58584E",
"[@	c #C5C1AE",
"}@	c #CECBBB",
"|@	c #CECCC4",
"1@	c #5E5E59",
"2@	c #464642",
"3@	c #ABA798",
"4@	c #79756A",
"5@	c #181715",
"6@	c #747267",
"7@	c #868377",
"8@	c #31302C",
"9@	c #393833",
"0@	c #908C7F",
"a@	c #CBC9BE",
"b@	c #CAC8BE",
"c@	c #4E4E49",
"d@	c #242421",
"e@	c #7F7D70",
"f@	c #CBC8B7",
"g@	c #CBC9BF",
"h@	c #62625D",
"i@	c #555550",
"j@	c #A7A496",
"k@	c #AFAC9C",
"l@	c #8C897C",
"m@	c #59574E",
"n@	c #A29E8F",
"o@	c #4F4C45",
"p@	c #3E3D37",
"q@	c #8E8B7E",
"r@	c #BFBBAF",
"s@	c #D8D5CE",
"t@	c #D7D5CE",
"u@	c #C0BEB7",
"v@	c #4F4F4A",
"w@	c #47453E",
"x@	c #C5C1B2",
"y@	c #8A8A82",
"z@	c #53534E",
"A@	c #918E82",
"B@	c #A9A696",
"C@	c #A9A595",
"D@	c #A7A394",
"E@	c #BAB7AA",
"F@	c #CECBC1",
"G@	c #D1D0C7",
"H@	c #D9D8D3",
"I@	c #9D9C92",
"J@	c #272725",
"K@	c #7D7B6E",
"L@	c #C8C4B4",
"M@	c #AAA99D",
"N@	c #6E6E68",
"O@	c #54544E",
"P@	c #9E9C8E",
"Q@	c #AEAB9B",
"R@	c #B8B4A6",
"S@	c #C9C6BB",
"T@	c #DAD8D1",
"U@	c #DEDCD5",
"V@	c #BFBDB4",
"W@	c #898980",
"X@	c #353532",
"Y@	c #57554C",
"Z@	c #757366",
"`@	c #C4C0AD",
" #	c #C1BDAB",
".#	c #A29F90",
"+#	c #7A776D",
"@#	c #68665D",
"##	c #54534D",
"$#	c #8F8C81",
"%#	c #B2AE9F",
"&#	c #BBB8AB",
"*#	c #C8C6BB",
"=#	c #D7D5CC",
"-#	c #E0DED9",
";#	c #CBC9C1",
">#	c #96958B",
",#	c #7A7A73",
"'#	c #2F2F2B",
")#	c #5D5C52",
"!#	c #737165",
"~#	c #B6B29E",
"{#	c #888475",
"]#	c #726E62",
"^#	c #6F6C60",
"/#	c #626057",
"(#	c #54524D",
"_#	c #848378",
":#	c #A8A697",
"<#	c #D3D2C9",
"[#	c #E0DED8",
"}#	c #D9D7CF",
"|#	c #BAB7AD",
"1#	c #8D8B80",
"2#	c #747167",
"3#	c #73736C",
"4#	c #81817A",
"5#	c #76766F",
"6#	c #444440",
"7#	c #30302D",
"8#	c #5C5A50",
"9#	c #BAB6A3",
"0#	c #959182",
"a#	c #747063",
"b#	c #706C60",
"c#	c #6E6B5F",
"d#	c #68655A",
"e#	c #6C695F",
"f#	c #7D7B72",
"g#	c #8E8D85",
"h#	c #9E9D94",
"i#	c #A1A095",
"j#	c #969388",
"k#	c #8B887D",
"l#	c #827F74",
"m#	c #737064",
"n#	c #6C695E",
"o#	c #64625B",
"p#	c #707068",
"q#	c #818179",
"r#	c #82827A",
"s#	c #7E7E77",
"t#	c #71716A",
"u#	c #484843",
"v#	c #3A3A36",
"w#	c #504E46",
"x#	c #5D5B51",
"y#	c #9B9787",
"z#	c #737063",
"A#	c #6E6A5F",
"B#	c #706D62",
"C#	c #757267",
"D#	c #787569",
"E#	c #747064",
"F#	c #716E62",
"G#	c #6E6A5E",
"H#	c #676359",
"I#	c #605E55",
"J#	c #787871",
"K#	c #7D7D75",
"L#	c #72726B",
"M#	c #454540",
"N#	c #373734",
"O#	c #626056",
"P#	c #7D7A6D",
"Q#	c #6D695D",
"R#	c #656157",
"S#	c #64635A",
"T#	c #7F7F78",
"U#	c #75756E",
"V#	c #5E5C53",
"W#	c #555249",
"X#	c #6C685C",
"Y#	c #6F6B5F",
"Z#	c #676358",
"`#	c #5F5C53",
" $	c #6E6D65",
".$	c #7C7B74",
"+$	c #42423E",
"@$	c #3C3B35",
"#$	c #302F29",
"$$	c #3F3D36",
"%$	c #393731",
"&$	c #49463E",
"*$	c #58544B",
"=$	c #646056",
"-$	c #6C695D",
";$	c #696559",
">$	c #605D53",
",$	c #646157",
"'$	c #73726A",
")$	c #7C7C74",
"!$	c #43433D",
"~$	c #1B1A18",
"{$	c #23211E",
"]$	c #23211D",
"^$	c #262520",
"/$	c #2F2E29",
"($	c #3D3B35",
"_$	c #565249",
":$	c #5A564D",
"<$	c #59554C",
"[$	c #5D5A50",
"}$	c #646156",
"|$	c #6A665B",
"1$	c #6B675B",
"2$	c #656156",
"3$	c #646055",
"4$	c #68655C",
"5$	c #72716A",
"6$	c #797971",
"7$	c #484844",
"8$	c #060605",
"9$	c #1C1C19",
"0$	c #201F1B",
"a$	c #22211D",
"b$	c #262521",
"c$	c #292824",
"d$	c #2E2D28",
"e$	c #373630",
"f$	c #403E38",
"g$	c #48463F",
"h$	c #4C4A41",
"i$	c #55534B",
"j$	c #5F5C52",
"k$	c #625E53",
"l$	c #625F54",
"m$	c #64635C",
"n$	c #3D3D39",
"o$	c #292927",
"p$	c #222220",
"q$	c #1B1B19",
"r$	c #282724",
"s$	c #33312C",
"t$	c #43413A",
"u$	c #4A4840",
"v$	c #56554D",
"w$	c #3D3D38",
"x$	c #373631",
"y$	c #4B4943",
"z$	c #5D5C55",
"                  . +   @ # $ % & * = - ; > , ' ) ! ~ ' {       ",
"        ] ^ / ( _ : < [ } | 1 2 3 ] 4 5 6 7 8 9 0 a b 1 c d     ",
"    e f g h i j d f k l m n o p q r s t u v r w x y z r A B C   ",
"  D E F G H I J K K K K K K K K K K K K K K K K K K K K L M N   ",
"O P Q R S K K K K K K K K K K K K K K K K K K K K K K T U V W   ",
"X Y Z `  ...K K K K K K K K K K K K K K K K K K K K +.@.#.$.%.  ",
"  &.*.=.-.;...K K K K K K K K >.>.>.K K K K K K ,.J @.'.).!.~.  ",
"  l {.].^./.(.S K K K _.:.:.<.[.[.}.K K K K K |.1.2.3.4.5.6.7.  ",
"  8.9.K S 0.a.0.b.c.d.e.f.g.h.i.j.k.l.>.K ,.m.n.o.p.q.r.r.s.t.  ",
"  u.v.K K w.x.y.z.A.B.C.D.E.F.G.H.I.J.K.L.M.@.N.O.P.r.Q.r.R.S.  ",
"  T.U.K K V.W.X.Y.Z.`. +.+++@+#+$+%+&+*+=+-+;+).>+Q.Q.Q.r.,+'+  ",
"  )+!+K K >.~+{+]+^+/+(+_+:+:+:+:+<+[+}+|+1+).>+Q.Q.Q.Q.5.2+3+  ",
"  4+5+,.K 6+7+8+ +9+0+<+:+:+:+:+:+:+:+a+b+c+d+Q.Q.Q.Q.Q.>+e+f+  ",
"  g+h+i+K j+k+l+m+n+<+o+p+q+:+r+s+s+r+t+g.u+v+Q.Q.Q.Q.Q.w+x+y+  ",
"    f z+K A+B+C+D+E+o+F+G+H+I+J+K+K+J+:+L+M+N+Q.Q.Q.Q.Q.O+P+Q+  ",
"    R+S+K T+U+V+W+<+:+X+Y+h+Z+H+W `+ @.@+@@@#@Q.Q.Q.Q.Q.>+$@%@  ",
"    &@*@>.A+=@-@;@>@:+,@Y+'@)@!@3 b ~@{@]@^@/@Q.Q.Q.Q.Q.(@_@:@  ",
"    <@P [@}@|@1@2@3@:+4@5@6@3@7@8@9@0@a+a@b@/@Q.Q.Q.Q.Q.(@c@d@  ",
"    1 e@>.f@g@h@i@j@k@l@m@o.:+n@o@p@q@r@s@t@u@Q.Q.Q.Q.Q.(@v@d@  ",
"    w@5+K b.x@y@z@A@<+<+B@q+:+o+C@D@E@F@G@H@I@Q.Q.Q.Q.Q.>+i@J@  ",
"    4 K@K V.L@M@N@O@P@Q@:+:+:+:+:+R@S@T@U@V@W@Q.Q.Q.Q.Q.w+z@X@  ",
"    Y@Z@K `@ #.#+#@###$#3@:+:+%#&#*#=#-#;#>#Q.Q.Q.Q.Q.Q.,#c@'#  ",
"    )#!#K ,.~#{#]#^#/#(#_#:#{@]@<#[#}#|#1#2#3#4#r.Q.r.4#5#6#7#  ",
"    8#&@J 9#0#a#b#b#c#d#e#f#g#h#i#j#k#l#m#n#o#p#q#r#r#s#t#u#v#  ",
"    w#x#x y#z#b#b#b#b#b#A#B#C#4@D#E#]#F#b#G#H#I#J#q#q#K#L#M#N#  ",
"      O#P#E#Q#b#b#b#b#b#b#b#b#b#b#b#b#b#b#b#Q#R#S#O+T#s#U#6#    ",
"      V#W#X#Y#b#b#b#b#b#b#b#b#b#b#b#b#b#b#b#A#Z#`# $.$s#P.+$    ",
"      @$#$$$%$&$*$=$-$Y#b#b#b#b#b#b#b#b#b#b#Y#;$>$,$'$O+)$!$    ",
"        %   ~${$]$^$/$($&$_$:$<$[$}$|$Y#Y#G#Y#1$2$3$4$5$6$7$    ",
"                  8$# ~$9$0$a$b$c$d$e$f$g$h$i$j$k$l$j$/#m$n$    ",
"                              o$:@o$p$q$7.r$%@d$s$($t$u$v$w$    ",
"                                                  q$x$y$z$      "};
