/* XPM */
static char * src_xpm[] = {
"29 32 17 1",
" 	c None",
".	c #040406",
"+	c #928988",
"@	c #CAC8C7",
"#	c #AFAAA9",
"$	c #AC8988",
"%	c #BAB7B7",
"&	c #525252",
"*	c #EAEAE9",
"=	c #757575",
"-	c #2F2F2E",
";	c #9A5654",
">	c #A27777",
",	c #D8D8D8",
"'	c #9B9A99",
")	c #F9F9F9",
"!	c #B39898",
"                ..           ",
"              ..++.          ",
"             .+##'.          ",
"        ...-+#####&          ",
"     ..-='%%%%%%##'.         ",
"   .,+'##%%%#%'%###=         ",
"  .,*=+'##%%#%'%###%.        ",
" .',,&='###%##;%#%##+        ",
" .,*,&=+'####%++#####.       ",
".#*#&&=+''####+>###%#+       ",
".=&&&==''''++>!+'#''#%.      ",
".&==+=++=;>$###$>>+$>%+.     ",
" -+'+=+>'#%#%%>>'#%%+##-     ",
" .##'#'+$#%%%#%%%%%#>$%+     ",
" .%%%%%#+%@%@#@%@!>$!%%%     ",
" .%@%%%#;!#@@@##$$>%@@%%.    ",
" .&,@,%#,%$,,,,@,@@$@@@@@.   ",
"  .**,@!$%@,,@,,@@!!@@@@@'.  ",
"  .,*,**@>,,,,,%!!%@@@@@@@-  ",
"  .*****,!@,*%!%,,,,,,@@@@#. ",
"  .*))*)*@%#!#@,,,,,,,,@@@@'.",
"  .*,*****%@,*!*,*,,,,,,@@@+.",
"  &.**********$**,*,,,,@,+.. ",
"   .*)**)*******,**,,,,,-.   ",
"   .,*)*)))******,*,*,%....  ",
"   ..***)))))******,'....... ",
"    .)))))))))***@'......    ",
"     ))))))))@......         ",
"     @))))*#-....            ",
"     -)*%+....               ",
"     .......                 ",
"      ..                     "};
