/* XPM */
static char * tar_xpm[] = {
"32 25 17 1",
" 	c None",
".	c #0B0B0A",
"+	c #8E846C",
"@	c #4B483D",
"#	c #A5B690",
"$	c #A24657",
"%	c #6C6556",
"&	c #62363C",
"*	c #C78191",
"=	c #322E28",
"-	c #D2D8CC",
";	c #8F6A64",
">	c #B49E86",
",	c #9E8F75",
"'	c #D2C295",
")	c #A53152",
"!	c #BC6278",
"                                ",
"          .=-.                  ",
"           =-#                  ",
"           .#-.                 ",
"            =#%.  .             ",
"          .=..,=.,##%.          ",
"          ''..@.##--++.         ",
"     ...=>))'=@%#---+%@.%.      ",
"     ,@@&*))*-.@+'#+%@%.@;=     ",
"   .@'''>%$$))'@@%%%@%+,,,+     ",
"   .#''''',@)$!>@%@+,,,,++,@    ",
"   '''''''''',@%,,,,,,,+,,,;=   ",
" .>''-'''-'''%@@,,,+,,,,,+,=.   ",
"  @''''-''''%@=+++,,,,,+,;==    ",
"   =+-''''''%+=,.@+,,+%&.==     ",
"    =+''-''%;,=,@=,+,;==@@=     ",
"    =+%&+'%.,>=,+=%+=&@@@@%     ",
"     ++@=@=%+#@,,@=%@@=@@,%     ",
"     ,',++++,'.,,+@@@=;,,+=     ",
"     .='#,++>'=,+,@@@%,,%=.     ",
"        .='#''=+,,@@%@.         ",
"          =+''=++,+%=.          ",
"            =,;,%=              ",
"             @@%.               ",
"                                "};
