/* XPM */
static char * txt_xpm[] = {
"29 32 17 1",
" 	c None",
".	c #020204",
"+	c #8A8A89",
"@	c #C8C8C8",
"#	c #4A4A4A",
"$	c #ABABAA",
"%	c #E7E7E7",
"&	c #696969",
"*	c #D8D8D8",
"=	c #B7B7B7",
"-	c #282827",
";	c #FAFAF9",
">	c #171716",
",	c #999998",
"'	c #575758",
")	c #797978",
"!	c #383839",
"                ..           ",
"              ..++.          ",
"             .+$$,>          ",
"        ...#+$=$$$#          ",
"     .>>),====,)$$,.         ",
"   .*+,$===$,#,$$$$+         ",
"  .**&+,$$===,$$=$$$>        ",
" .,%*'),$$$$$$$$$$$$+        ",
" >*%*'&+,$$$$$$$=$$$$>       ",
".$%$'')+,,$$$$$$$,!'$+       ",
".&''')'+,,+#+$=$&-'$=$>      ",
".#)))))&)))$==,&)$=$=$+.     ",
" >+,+)&#+$==))+==$$+,==-     ",
" .$$,#'$$=$##+==$&&$===+     ",
" .=$)$=$=)#&=,==,$@=====     ",
" .=@==+&$=@@@&+,=@@=@@@=.    ",
" .'**,@*@**),@@*+#&+=@@@@>   ",
"  .%%**,&$****@=$@@@@@@@@,.  ",
"  .*%=&+=****&$@****+$@@@@-  ",
"  .@;@*%%%%*&+****@,&*@*@@$. ",
"  .);%%%%**@=*%%*******@@@@,.",
"   >;;;@+,@%%%*,,$******@@@,.",
"   .*;@=%%;%%%,@*%*****@*+>. ",
"   .=;;;;%;@'=%%%%%%****>.   ",
"    !;;;;%$)+%%%%%*%**=>...  ",
"    .;;;&'+*;;;%%%%*$....... ",
"    .;;;&@;;;;;%%@,......    ",
"     ;;;;;;;;@......         ",
"     @;;;;%$!....            ",
"     !;%=)....               ",
"     .......                 ",
"      ..                     "};
