/* XPM */
static char * unknown_xpm[] = {
"32 32 9 1",
" 	c None",
".	c #000000",
"+	c #C0C000",
"@	c #FFFFC0",
"#	c #FFFFFF",
"$	c #0000C0",
"%	c #000080",
"&	c #808000",
"*	c #303030",
"            ..                  ",
"            .+..                ",
"            .@@+...             ",
"           .+#@@@@+....         ",
"           .@@#@@@@@@@+....     ",
"          .+##@##@#@@@@@@@+...  ",
"          .@###@#@#@@@@@@@@@@+..",
"          .#@###$%%%%$@@@@@@@@@.",
"         .+###@%%@#@%%$@@@@@@@+.",
"         .@###%%%####%%$@@@@@@&.",
"        .+@###$%@@#@@%%%@@@@@@. ",
"        .##@#####@#@#%%%@@@@@@. ",
"       .+@###@###@#@@%%%@@@@@@. ",
"       .@#@@##@@#@#@%%%@@@@@@+. ",
"      .@#@##@###@#%%%$@@@@@@@&. ",
"     .+@#@@@#@#@%%%$@@@@@@@@@.  ",
"     .@@@@#@@@@%%%@@@@@@@@@@@.  ",
"    .+@@@@@@#@@%%@@@@@@@@@@@+.  ",
"   .+@@@@@#@@@@%%#@@@@@@@@@@&.  ",
"   .@@@@@@@@@@@@@@@@@@@@@@@@.   ",
"  .+@@@@@@@@@@@@@@@@@@@@@@@+..  ",
" .+@@@@@@@@@@@$%$@@@@@@@@@@&....",
".&+@@@@@@@@@@@%%%@@@@@@@@@@.....",
" ..&+@@@@@@@@@$%$@@@@@@@@@@.... ",
"   ..&+@@@@@@@@@@@@@@@@@@@+...  ",
"     ..&+@@@@@@@@@@@@@@@@@&...  ",
"       ...&+@@@@@@@@@@@@@+...   ",
"          ...&+@@@@@@@@@@&..    ",
"             ...&+@@@@@@+..     ",
"                ...&+@@+&.      ",
"                   .*.&&.       ",
"                      ..        "};
