/* XPM */
static char * wav_xpm[] = {
"29 32 17 1",
" 	c None",
".	c #040406",
"+	c #728AE1",
"@	c #C7C8CA",
"#	c #AAACB0",
"$	c #535353",
"%	c #496BE6",
"&	c #676768",
"*	c #8A8A8C",
"=	c #B5B6BA",
"-	c #EBEBEA",
";	c #2C2C2C",
">	c #2C54EC",
",	c #6F7BA6",
"'	c #959AAB",
")	c #D8D8D8",
"!	c #F5F5F6",
"                ..           ",
"              ..**.          ",
"             .*##'.          ",
"        ....;*####$.         ",
"     ..;&'======##'.         ",
"   .)*'#======#=###*.        ",
"  .))&*'##==##=#####.        ",
" .'))$,'####==######*.       ",
" .)-)$&*'######=#####.       ",
".#-#&$&'''###*,'###=#*.      ",
".&$$$,&*%'###'%%####==.      ",
".$,&,**'>*###'%>=#=##=*.     ",
" ;*'***'>,==='%>'='%%==;     ",
" .######>%==@=,>%=,,===*     ",
" .===##=%%##,='>%%#%@===     ",
" .=@==##+%+@>@++#%=%#@@=.    ",
" .$))@#>'%'+>%>)@@++%@@@@.   ",
"  .-))@%+'+%>%++)@'%%@@@@'.  ",
"  .)-)=%%+%=>)#%)))+%#@@@@;  ",
"  .@!>%-)%+@)-+%)))=%')@@@#. ",
"  .,!!---%+'-)%%))))=@)@@@@'.",
"   ;!!!--=%+--@+-)))))))@@@*.",
"   .)-!!!-+>----)--))))@)*;. ",
"   . --!----------)-))))...  ",
"   .!---!-!-!---)-)-))=..... ",
"   .!-!--!---------)#....... ",
"    .--!--!-!-!--@*..........",
"    .--!--!-!............    ",
"     .---.............       ",
"     ;!-=,........           ",
"     .........               ",
"      ....                   "};
