/* XPM */
static char * img1_xpm[] = {
"64 64 3 1",
" 	c None",
".	c #FFFFFFFFFFFF",
"X	c #000000000000",
"                                                                ",
"                                                                ",
"                                                                ",
"                                                                ",
"                     .                                          ",
"                     ..                                         ",
"                      ..                                        ",
"                       ..                                       ",
"                        ..                                      ",
"                         ..                                     ",
"                     .......       XX                           ",
"                   .........       XXXX                         ",
"                 ....    ..          XX                         ",
"                ...     ..             XX                       ",
"               ...     ..              XXX                      ",
"              ...     ..                XXX                     ",
"              ..     ..                  XXX                    ",
"             ..      .                    XX                    ",
"            ...                            XX                   ",
"            ..                             XX                   ",
"            ..                              XX                  ",
"            ..                              XX                  ",
"            ..                              XX                  ",
"            ..                              XX                  ",
"            ..                              XX                  ",
"            ..                              XX                  ",
"            ..                              XX                  ",
"            ..                             XX                   ",
"            ..                             XX                   ",
"             ..                            XX                   ",
"             ..                    X      XX                    ",
"              ..                  XX      XX                    ",
"              ...                XX      XX                     ",
"               ...              XX      XXX                     ",
"                ...            XX     XXXX                      ",
"                 ....         XX    XXXXX                       ",
"                   ......    XXXXXXXXX                          ",
"                     ....    XXXXXXX                            ",
"                              XX                                ",
"                               XX                               ",
"                                XX                              ",
"                                 XX                             ",
"                                  XX                            ",
"                                   X                            ",
"                                                                ",
"                                                                ",
"                                                                ",
"                                                                ",
"                                                                ",
"                                                                ",
"                                                                ",
"                                                                ",
"                                                                ",
"                                                                ",
"                                                                ",
"                                                                ",
"                                                                ",
"                                                                ",
"                                                                ",
"                                                                ",
"                                                                ",
"                                                                ",
"                                                                ",
"                                                                "};
