/* XPM */
static char * img2_xpm[] = {
"64 64 3 1",
" 	c None",
".	c #FFFFFFFFFFFF",
"X	c #000000000000",
"                                                                ",
"                                                                ",
"                                                                ",
"                                                                ",
"                                                                ",
"                                                                ",
"                                                                ",
"                                                                ",
"                                                                ",
"                       ...........                              ",
"                     ..............                             ",
"                   ....          ....                           ",
"                  ...              ...                          ",
"                 ...                ...                         ",
"                ...                  ...                        ",
"                ..                    ..                        ",
"               ..                      ..                       ",
"               ..                      ..                       ",
"              ..                  ..    ..    ..                ",
"              ..                   ..   ..   ..                 ",
"              ..                    ..  ..  ..                  ",
"              ..                     .. .. ..                   ",
"                                      ......                    ",
"                                       ....                     ",
"                                        ..                      ",
"                                                                ",
"             XX                                                 ",
"            XXXX                                                ",
"           XXXXXX                                               ",
"          XX XX XX                                              ",
"         XX  XX  XX                                             ",
"        XX   XX   XX                                            ",
"       XX    XX    XX                  XX                       ",
"              XX                       XX                       ",
"              XX                      XX                        ",
"               XX                     XX                        ",
"               XX                   XXX                         ",
"               XXX                 XXX                          ",
"                XXX               XXX                           ",
"                 XXXX            XXX                            ",
"                   XXXXX       XXXX                             ",
"                     XXXXXXXXXXXX                               ",
"                        XXXXXXX                                 ",
"                                                                ",
"                                                                ",
"                                                                ",
"                                                                ",
"                                                                ",
"                                                                ",
"                                                                ",
"                                                                ",
"                                                                ",
"                                                                ",
"                                                                ",
"                                                                ",
"                                                                ",
"                                                                ",
"                                                                ",
"                                                                ",
"                                                                ",
"                                                                ",
"                                                                ",
"                                                                ",
"                                                                "};
