/* XPM */
static char * img3_xpm[] = {
"64 64 3 1",
" 	c None",
".	c #000000000000",
"X	c #FFFFFFFFFFFF",
"                                                                ",
"                                                                ",
"                                                                ",
"                                                                ",
"                    .                                           ",
"                    ..                                          ",
"                     ..                                         ",
"                      ..                                        ",
"                       ..                                       ",
"                        ..                                      ",
"                    .......                                     ",
"                  .........    XXXX                             ",
"               .....    ..     XXXXXX                           ",
"              ....     ..          XXXX                         ",
"             ...      ..             XXX                        ",
"             ..      ..               XXX                       ",
"            ..      ..                 XXX                      ",
"            ..      .                   XX                      ",
"           ..                            XX                     ",
"           ..                            XX                     ",
"           ..                             XX                    ",
"          ..                              XX                    ",
"          ..                              XX                    ",
"          ..                              XX                    ",
"          ..                              XX                    ",
"          ..                              XX                    ",
"          ..                              XX                    ",
"          ..                              XX                    ",
"           ..                             XX                    ",
"           ..                             XX                    ",
"            ..                           XXX                    ",
"            ...                   X      XX                     ",
"             ...                 XX     XX                      ",
"              ...               XX     XXX                      ",
"               ..              XX     XXX                       ",
"                 ..           XX     XXX                        ",
"                 ....        XX    XXXX                         ",
"                   ..       XXXXXXXXX                           ",
"                            XXXXXXX                             ",
"                             XX                                 ",
"                              XX                                ",
"                               XX                               ",
"                                XX                              ",
"                                 XX                             ",
"                                  X                             ",
"                                                                ",
"                                                                ",
"                                                                ",
"                                                                ",
"                                                                ",
"                                                                ",
"                                                                ",
"                                                                ",
"                                                                ",
"                                                                ",
"                                                                ",
"                                                                ",
"                                                                ",
"                                                                ",
"                                                                ",
"                                                                ",
"                                                                ",
"                                                                ",
"                                                                "};
