/* XPM */
static char * img4_xpm[] = {
"64 64 3 1",
" 	c None",
".	c #000000000000",
"X	c #FFFFFFFFFFFF",
"                                                                ",
"                                                                ",
"                                                                ",
"                                                                ",
"                                                                ",
"                                                                ",
"                                                                ",
"                                                                ",
"                          .......                               ",
"                        ............                            ",
"                      ....       .....                          ",
"                     ...            ....                        ",
"                    ...               ...                       ",
"                   ...                 ...                      ",
"                  ...                   ..                      ",
"                 ..                     ..                      ",
"                 ..                      ..                     ",
"                ..                       ..                     ",
"                ..                  ..    ..    .               ",
"                                     ..   ..   ..               ",
"                                      ..  ..  ..                ",
"                                       .. .. ..                 ",
"                                        ......                  ",
"                                         ....                   ",
"                                          ..                    ",
"                                                                ",
"              XX                                                ",
"             XXXX                                               ",
"            XXXXXX                                              ",
"           XX XX XX                     XX                      ",
"          XX  XX  XX                    XX                      ",
"         XX   XX   XX                   XX                      ",
"        XX    XX    XX                  XX                      ",
"               XX                      XX                       ",
"               XX                      XX                       ",
"                XX                    XX                        ",
"                XXX                  XXX                        ",
"                 XXX                XXX                         ",
"                  XXX              XXX                          ",
"                   XXXX          XXXX                           ",
"                     XXXXXXXXXXXXXX                             ",
"                      XXXXXXXXXXX                               ",
"                                                                ",
"                                                                ",
"                                                                ",
"                                                                ",
"                                                                ",
"                                                                ",
"                                                                ",
"                                                                ",
"                                                                ",
"                                                                ",
"                                                                ",
"                                                                ",
"                                                                ",
"                                                                ",
"                                                                ",
"                                                                ",
"                                                                ",
"                                                                ",
"                                                                ",
"                                                                ",
"                                                                ",
"                                                                "};
