/* XPM */
static char * _opt_kde2_share_icons_medium_locolor_apps_link_png[] = {
"32 32 41 1",
"-	c None",
".	c #000000",
"/	c #C0C0C0",
"0	c #808080",
"1	c #FFFFFF",
"2	c #FF0000",
"3	c #800080",
"4	c #FF00FF",
"5	c #008000",
"6	c #00FF00",
"7	c #808000",
"8	c #FFFF00",
"9	c #000080",
":	c #0000FF",
";	c #008080",
"<	c #00FFFF",
"=	c #800000",
">	c #555555",
"?	c #555500",
"@	c #000049",
"A	c #040000",
"B	c #005555",
"C	c #000400",
"D	c #000005",
"E	c #050000",
"F	c #000600",
"G	c #030000",
"H	c #000500",
"I	c #555502",
"J	c #0C0000",
"K	c #000B00",
"L	c #000010",
"M	c #090000",
"N	c #000D00",
"O	c #00000E",
"P	c #0F0000",
"Q	c #000501",
"R	c #55550E",
"S	c #010000",
"T	c #0000A1",
"U	c #1E0000",
">>>>>>>>>>?...........@.A...B>>>",
">>>>>>>>>>?...........@.>>>>>>>>",
">>>>>>>>>>?...........@.>>>>>>>>",
">>>>>>>>>>?...........@.>>>>>>>>",
">>>>>>>>>>?...........@.>>>>>>>>",
">>>>>>>>>>?...........@.>>>>>>>>",
">>>>>>>>>>?...........@.>>>>>>>>",
">>>>>>>>>>?...........@.>>>>>>>>",
">>>>>>>>>>?...........@.>>>>>>>>",
">>>>>>>>>>?...........@.>>>>>>>>",
">>>>>>>>>>?...........@.>>>>>>>>",
">>>>>>>>>>?...........@.>>>>>>>>",
">>>>>>>>>>?...........@.>>>>>>>>",
">>>>>>>>>>?...........@.>>>>>>>>",
">>>>>>>>>>?......CD...@.>>>>>>>>",
">>>>>>>>>>?.EF...CD.GH@.>>>>>>>>",
">>>>>>>>>>I...........@.>>>>>>>>",
">>>>>>>>>>?.JKL.MNO.PQ@.>>>>>>>>",
">>>>>>>>>>RS..........@.>>>>>>>>",
">>>>>>>>>>?...........@.>>>>>>>>",
">>>>>>>>>>?...........@.>>>>>>>>",
">>>>>>>>>>?...........@.....>>>>",
"....>>>>>>?...........@.<118>>>>",
"<118>>>>>>?...........@.<118>>>>",
"<118>>>>>>?...........@.<<<8>>>>",
"<<<8>>>>>>?...........@.<::8>>>>",
"<::8>>>>>>?...........@.<2.8>>>>",
"<2.8>>>>>>?...........@.<1:8>>>>",
"<1:8>>>>>>?...........@.<1<8>>>>",
"<1<8>>>>>>?...........@.<118>>>>",
"<118>>>>>>?...........@.....>>>>",
"....>>>>>>?...........TUUUUUUUUU"};
